<mxfile host="app.diagrams.net" modified="2022-01-14T04:25:20.770Z" agent="5.0 (Windows NT 10.0; Win64; x64) AppleWebKit/537.36 (KHTML, like Gecko) Chrome/97.0.4692.71 Safari/537.36" etag="3NdPtoSUbyQcMYdfNBj3" version="16.0.0" type="github">
  <diagram id="p1VaJm9dE1Vxcm2Y2X1g" name="Page-1">
    <mxGraphModel dx="2863" dy="628" grid="1" gridSize="10" guides="1" tooltips="1" connect="1" arrows="1" fold="1" page="1" pageScale="1" pageWidth="827" pageHeight="1169" background="#F1FAEE" math="0" shadow="0">
      <root>
        <mxCell id="0" />
        <mxCell id="1" parent="0" />
        <mxCell id="85etgImM21U0zFLn9ePR-90" value="" style="rounded=0;whiteSpace=wrap;html=1;sketch=0;fontSize=12;fontColor=#1D3557;strokeColor=#808080;strokeWidth=0;fillColor=default;" parent="1" vertex="1">
          <mxGeometry x="-943" y="750" width="1273" height="1190" as="geometry" />
        </mxCell>
        <mxCell id="85etgImM21U0zFLn9ePR-4" value="" style="group" parent="1" vertex="1" connectable="0">
          <mxGeometry x="395" y="350" width="130" height="130" as="geometry" />
        </mxCell>
        <mxCell id="85etgImM21U0zFLn9ePR-2" value="" style="whiteSpace=wrap;html=1;aspect=fixed;rounded=0;sketch=0;fontColor=#1D3557;strokeColor=#457B9D;fillColor=#A8DADC;strokeWidth=3;" parent="85etgImM21U0zFLn9ePR-4" vertex="1">
          <mxGeometry width="130" height="130" as="geometry" />
        </mxCell>
        <mxCell id="85etgImM21U0zFLn9ePR-3" value="&lt;b&gt;&lt;font style=&quot;font-size: 15px&quot;&gt;home.jsp&lt;br&gt;(&amp;nbsp; /&amp;nbsp; )&lt;br&gt;&lt;/font&gt;&lt;/b&gt;" style="text;html=1;strokeColor=none;fillColor=none;align=center;verticalAlign=middle;whiteSpace=wrap;rounded=0;sketch=0;fontColor=#1D3557;" parent="85etgImM21U0zFLn9ePR-4" vertex="1">
          <mxGeometry x="25" y="30" width="80" height="70" as="geometry" />
        </mxCell>
        <mxCell id="85etgImM21U0zFLn9ePR-7" value="" style="group" parent="1" vertex="1" connectable="0">
          <mxGeometry x="-290" y="710" width="827" height="1360" as="geometry" />
        </mxCell>
        <mxCell id="85etgImM21U0zFLn9ePR-6" value="관리자 페이지" style="text;html=1;strokeColor=none;fillColor=none;align=center;verticalAlign=middle;whiteSpace=wrap;rounded=0;sketch=0;fontSize=20;fontColor=#1D3557;fontStyle=1" parent="85etgImM21U0zFLn9ePR-7" vertex="1">
          <mxGeometry x="-480" y="110" width="200" height="30" as="geometry" />
        </mxCell>
        <mxCell id="85etgImM21U0zFLn9ePR-28" value="" style="group" parent="85etgImM21U0zFLn9ePR-7" vertex="1" connectable="0">
          <mxGeometry x="-235" y="280" width="505" height="1080" as="geometry" />
        </mxCell>
        <mxCell id="85etgImM21U0zFLn9ePR-26" value="" style="rounded=0;whiteSpace=wrap;html=1;sketch=0;fontSize=15;fontColor=#1D3557;strokeColor=#457B9D;strokeWidth=1;fillColor=#FFFAF0;" parent="85etgImM21U0zFLn9ePR-28" vertex="1">
          <mxGeometry x="-390" y="-18.97" width="895" height="1098.97" as="geometry" />
        </mxCell>
        <mxCell id="85etgImM21U0zFLn9ePR-57" value="&lt;span style=&quot;color: rgba(0 , 0 , 0 , 0) ; font-family: monospace ; font-size: 0px&quot;&gt;%3CmxGraphModel%3E%3Croot%3E%3CmxCell%20id%3D%220%22%2F%3E%3CmxCell%20id%3D%221%22%20parent%3D%220%22%2F%3E%3CmxCell%20id%3D%222%22%20value%3D%22%22%20style%3D%22rounded%3D1%3BwhiteSpace%3Dwrap%3Bhtml%3D1%3Bsketch%3D0%3BfontSize%3D20%3BfontColor%3D%231D3557%3BstrokeColor%3D%23457B9D%3BstrokeWidth%3D2%3BfillColor%3D%23E8F0FC%3B%22%20vertex%3D%221%22%20parent%3D%221%22%3E%3CmxGeometry%20x%3D%22370%22%20y%3D%22860%22%20width%3D%22144.13%22%20height%3D%2280%22%20as%3D%22geometry%22%2F%3E%3C%2FmxCell%3E%3CmxCell%20id%3D%223%22%20value%3D%22%26lt%3Bspan%20style%3D%26quot%3Bfont-size%3A%2013px%26quot%3B%26gt%3B%EA%B4%80%EB%A6%AC%EC%9E%90%20%EB%A9%94%EC%9D%B8%20%ED%8E%98%EC%9D%B4%EC%A7%80%26lt%3Bbr%26gt%3B%2Fadmin%2Fmain%26lt%3Bbr%26gt%3B%5BGET%5D%26lt%3Bbr%26gt%3B%26lt%3B%2Fspan%26gt%3B%22%20style%3D%22text%3Bhtml%3D1%3BstrokeColor%3Dnone%3BfillColor%3Dnone%3Balign%3Dcenter%3BverticalAlign%3Dmiddle%3BwhiteSpace%3Dwrap%3Brounded%3D0%3Bsketch%3D0%3BfontSize%3D20%3BfontColor%3D%231D3557%3BfontStyle%3D1%22%20vertex%3D%221%22%20parent%3D%221%22%3E%3CmxGeometry%20x%3D%22374.79%22%20y%3D%22880%22%20width%3D%22134.56%22%20height%3D%2240%22%20as%3D%22geometry%22%2F%3E%3C%2FmxCell%3E%3C%2Froot%3E%3C%2FmxGraphModel%3E&lt;/span&gt;" style="rounded=1;whiteSpace=wrap;html=1;sketch=0;fontSize=20;fontColor=#1D3557;strokeColor=#457B9D;strokeWidth=2;fillColor=#E8F0FC;" parent="85etgImM21U0zFLn9ePR-28" vertex="1">
          <mxGeometry x="295" y="20" width="184.13" height="80" as="geometry" />
        </mxCell>
        <mxCell id="85etgImM21U0zFLn9ePR-73" value="&lt;span style=&quot;color: rgba(0 , 0 , 0 , 0) ; font-family: monospace ; font-size: 0px&quot;&gt;%3CmxGraphModel%3E%3Croot%3E%3CmxCell%20id%3D%220%22%2F%3E%3CmxCell%20id%3D%221%22%20parent%3D%220%22%2F%3E%3CmxCell%20id%3D%222%22%20value%3D%22%26lt%3Bspan%20style%3D%26quot%3Bcolor%3A%20rgba(0%20%2C%200%20%2C%200%20%2C%200)%20%3B%20font-family%3A%20monospace%20%3B%20font-size%3A%200px%26quot%3B%26gt%3B%253CmxGraphModel%253E%253Croot%253E%253CmxCell%2520id%253D%25220%2522%252F%253E%253CmxCell%2520id%253D%25221%2522%2520parent%253D%25220%2522%252F%253E%253CmxCell%2520id%253D%25222%2522%2520value%253D%2522%2522%2520style%253D%2522rounded%253D1%253BwhiteSpace%253Dwrap%253Bhtml%253D1%253Bsketch%253D0%253BfontSize%253D20%253BfontColor%253D%25231D3557%253BstrokeColor%253D%2523457B9D%253BstrokeWidth%253D2%253BfillColor%253D%2523E8F0FC%253B%2522%2520vertex%253D%25221%2522%2520parent%253D%25221%2522%253E%253CmxGeometry%2520x%253D%2522370%2522%2520y%253D%2522860%2522%2520width%253D%2522144.13%2522%2520height%253D%252280%2522%2520as%253D%2522geometry%2522%252F%253E%253C%252FmxCell%253E%253CmxCell%2520id%253D%25223%2522%2520value%253D%2522%2526lt%253Bspan%2520style%253D%2526quot%253Bfont-size%253A%252013px%2526quot%253B%2526gt%253B%25EA%25B4%2580%25EB%25A6%25AC%25EC%259E%2590%2520%25EB%25A9%2594%25EC%259D%25B8%2520%25ED%258E%2598%25EC%259D%25B4%25EC%25A7%2580%2526lt%253Bbr%2526gt%253B%252Fadmin%252Fmain%2526lt%253Bbr%2526gt%253B%255BGET%255D%2526lt%253Bbr%2526gt%253B%2526lt%253B%252Fspan%2526gt%253B%2522%2520style%253D%2522text%253Bhtml%253D1%253BstrokeColor%253Dnone%253BfillColor%253Dnone%253Balign%253Dcenter%253BverticalAlign%253Dmiddle%253BwhiteSpace%253Dwrap%253Brounded%253D0%253Bsketch%253D0%253BfontSize%253D20%253BfontColor%253D%25231D3557%253BfontStyle%253D1%2522%2520vertex%253D%25221%2522%2520parent%253D%25221%2522%253E%253CmxGeometry%2520x%253D%2522374.79%2522%2520y%253D%2522880%2522%2520width%253D%2522134.56%2522%2520height%253D%252240%2522%2520as%253D%2522geometry%2522%252F%253E%253C%252FmxCell%253E%253C%252Froot%253E%253C%252FmxGraphModel%253E%26lt%3B%2Fspan%26gt%3B%22%20style%3D%22rounded%3D1%3BwhiteSpace%3Dwrap%3Bhtml%3D1%3Bsketch%3D0%3BfontSize%3D20%3BfontColor%3D%231D3557%3BstrokeColor%3D%23457B9D%3BstrokeWidth%3D2%3BfillColor%3D%23E8F0FC%3B%22%20vertex%3D%221%22%20parent%3D%221%22%3E%3CmxGeometry%20x%3D%22-347.06%22%20y%3D%221020%22%20width%3D%22184.13%22%20height%3D%2280%22%20as%3D%22geometry%22%2F%3E%3C%2FmxCell%3E%3C%2Froot%3E%3C%2FmxGraphModel%3E&lt;/span&gt;" style="rounded=1;whiteSpace=wrap;html=1;sketch=0;fontSize=20;fontColor=#1D3557;strokeColor=#457B9D;strokeWidth=2;fillColor=#E8F0FC;" parent="85etgImM21U0zFLn9ePR-28" vertex="1">
          <mxGeometry x="194.24" y="120" width="209.13" height="80" as="geometry" />
        </mxCell>
        <mxCell id="85etgImM21U0zFLn9ePR-82" value="&lt;span style=&quot;font-size: 13px&quot;&gt;&lt;span style=&quot;font-weight: normal&quot;&gt;일별 회원 방문 통계 페이지&amp;nbsp;&lt;br&gt;/admin/statistics/visitor_daily&lt;br&gt;[GET]&lt;/span&gt;&lt;br&gt;&lt;/span&gt;" style="text;html=1;strokeColor=none;fillColor=none;align=center;verticalAlign=middle;whiteSpace=wrap;rounded=0;sketch=0;fontSize=20;fontColor=#1D3557;fontStyle=1" parent="85etgImM21U0zFLn9ePR-28" vertex="1">
          <mxGeometry x="215" y="140" width="167.61" height="40" as="geometry" />
        </mxCell>
        <mxCell id="85etgImM21U0zFLn9ePR-27" value="통계" style="text;html=1;strokeColor=none;fillColor=none;align=center;verticalAlign=middle;whiteSpace=wrap;rounded=0;sketch=0;fontSize=15;fontColor=#1D3557;" parent="85etgImM21U0zFLn9ePR-28" vertex="1">
          <mxGeometry x="445" y="1037.560975609756" width="60" height="42.4390243902439" as="geometry" />
        </mxCell>
        <mxCell id="85etgImM21U0zFLn9ePR-118" value="&lt;span style=&quot;color: rgba(0 , 0 , 0 , 0) ; font-family: monospace ; font-size: 0px&quot;&gt;%3CmxGraphModel%3E%3Croot%3E%3CmxCell%20id%3D%220%22%2F%3E%3CmxCell%20id%3D%221%22%20parent%3D%220%22%2F%3E%3CmxCell%20id%3D%222%22%20value%3D%22%26lt%3Bspan%20style%3D%26quot%3Bcolor%3A%20rgba(0%20%2C%200%20%2C%200%20%2C%200)%20%3B%20font-family%3A%20monospace%20%3B%20font-size%3A%200px%26quot%3B%26gt%3B%253CmxGraphModel%253E%253Croot%253E%253CmxCell%2520id%253D%25220%2522%252F%253E%253CmxCell%2520id%253D%25221%2522%2520parent%253D%25220%2522%252F%253E%253CmxCell%2520id%253D%25222%2522%2520value%253D%2522%2522%2520style%253D%2522rounded%253D1%253BwhiteSpace%253Dwrap%253Bhtml%253D1%253Bsketch%253D0%253BfontSize%253D20%253BfontColor%253D%25231D3557%253BstrokeColor%253D%2523457B9D%253BstrokeWidth%253D2%253BfillColor%253D%2523E8F0FC%253B%2522%2520vertex%253D%25221%2522%2520parent%253D%25221%2522%253E%253CmxGeometry%2520x%253D%2522370%2522%2520y%253D%2522860%2522%2520width%253D%2522144.13%2522%2520height%253D%252280%2522%2520as%253D%2522geometry%2522%252F%253E%253C%252FmxCell%253E%253CmxCell%2520id%253D%25223%2522%2520value%253D%2522%2526lt%253Bspan%2520style%253D%2526quot%253Bfont-size%253A%252013px%2526quot%253B%2526gt%253B%25EA%25B4%2580%25EB%25A6%25AC%25EC%259E%2590%2520%25EB%25A9%2594%25EC%259D%25B8%2520%25ED%258E%2598%25EC%259D%25B4%25EC%25A7%2580%2526lt%253Bbr%2526gt%253B%252Fadmin%252Fmain%2526lt%253Bbr%2526gt%253B%255BGET%255D%2526lt%253Bbr%2526gt%253B%2526lt%253B%252Fspan%2526gt%253B%2522%2520style%253D%2522text%253Bhtml%253D1%253BstrokeColor%253Dnone%253BfillColor%253Dnone%253Balign%253Dcenter%253BverticalAlign%253Dmiddle%253BwhiteSpace%253Dwrap%253Brounded%253D0%253Bsketch%253D0%253BfontSize%253D20%253BfontColor%253D%25231D3557%253BfontStyle%253D1%2522%2520vertex%253D%25221%2522%2520parent%253D%25221%2522%253E%253CmxGeometry%2520x%253D%2522374.79%2522%2520y%253D%2522880%2522%2520width%253D%2522134.56%2522%2520height%253D%252240%2522%2520as%253D%2522geometry%2522%252F%253E%253C%252FmxCell%253E%253C%252Froot%253E%253C%252FmxGraphModel%253E%26lt%3B%2Fspan%26gt%3B%22%20style%3D%22rounded%3D1%3BwhiteSpace%3Dwrap%3Bhtml%3D1%3Bsketch%3D0%3BfontSize%3D20%3BfontColor%3D%231D3557%3BstrokeColor%3D%23457B9D%3BstrokeWidth%3D2%3BfillColor%3D%23E8F0FC%3B%22%20vertex%3D%221%22%20parent%3D%221%22%3E%3CmxGeometry%20x%3D%22-347.06%22%20y%3D%221020%22%20width%3D%22184.13%22%20height%3D%2280%22%20as%3D%22geometry%22%2F%3E%3C%2FmxCell%3E%3C%2Froot%3E%3C%2FmxGraphModel%3E&lt;/span&gt;" style="rounded=1;whiteSpace=wrap;html=1;sketch=0;fontSize=20;strokeColor=#d79b00;strokeWidth=2;fillColor=#ffe6cc;" parent="85etgImM21U0zFLn9ePR-28" vertex="1">
          <mxGeometry x="-355.43000000000006" y="179" width="145" height="80" as="geometry" />
        </mxCell>
        <mxCell id="85etgImM21U0zFLn9ePR-116" value="&lt;span style=&quot;color: rgba(0 , 0 , 0 , 0) ; font-family: monospace ; font-size: 0px&quot;&gt;%3CmxGraphModel%3E%3Croot%3E%3CmxCell%20id%3D%220%22%2F%3E%3CmxCell%20id%3D%221%22%20parent%3D%220%22%2F%3E%3CmxCell%20id%3D%222%22%20value%3D%22%26lt%3Bspan%20style%3D%26quot%3Bcolor%3A%20rgba(0%20%2C%200%20%2C%200%20%2C%200)%20%3B%20font-family%3A%20monospace%20%3B%20font-size%3A%200px%26quot%3B%26gt%3B%253CmxGraphModel%253E%253Croot%253E%253CmxCell%2520id%253D%25220%2522%252F%253E%253CmxCell%2520id%253D%25221%2522%2520parent%253D%25220%2522%252F%253E%253CmxCell%2520id%253D%25222%2522%2520value%253D%2522%2522%2520style%253D%2522rounded%253D1%253BwhiteSpace%253Dwrap%253Bhtml%253D1%253Bsketch%253D0%253BfontSize%253D20%253BfontColor%253D%25231D3557%253BstrokeColor%253D%2523457B9D%253BstrokeWidth%253D2%253BfillColor%253D%2523E8F0FC%253B%2522%2520vertex%253D%25221%2522%2520parent%253D%25221%2522%253E%253CmxGeometry%2520x%253D%2522370%2522%2520y%253D%2522860%2522%2520width%253D%2522144.13%2522%2520height%253D%252280%2522%2520as%253D%2522geometry%2522%252F%253E%253C%252FmxCell%253E%253CmxCell%2520id%253D%25223%2522%2520value%253D%2522%2526lt%253Bspan%2520style%253D%2526quot%253Bfont-size%253A%252013px%2526quot%253B%2526gt%253B%25EA%25B4%2580%25EB%25A6%25AC%25EC%259E%2590%2520%25EB%25A9%2594%25EC%259D%25B8%2520%25ED%258E%2598%25EC%259D%25B4%25EC%25A7%2580%2526lt%253Bbr%2526gt%253B%252Fadmin%252Fmain%2526lt%253Bbr%2526gt%253B%255BGET%255D%2526lt%253Bbr%2526gt%253B%2526lt%253B%252Fspan%2526gt%253B%2522%2520style%253D%2522text%253Bhtml%253D1%253BstrokeColor%253Dnone%253BfillColor%253Dnone%253Balign%253Dcenter%253BverticalAlign%253Dmiddle%253BwhiteSpace%253Dwrap%253Brounded%253D0%253Bsketch%253D0%253BfontSize%253D20%253BfontColor%253D%25231D3557%253BfontStyle%253D1%2522%2520vertex%253D%25221%2522%2520parent%253D%25221%2522%253E%253CmxGeometry%2520x%253D%2522374.79%2522%2520y%253D%2522880%2522%2520width%253D%2522134.56%2522%2520height%253D%252240%2522%2520as%253D%2522geometry%2522%252F%253E%253C%252FmxCell%253E%253C%252Froot%253E%253C%252FmxGraphModel%253E%26lt%3B%2Fspan%26gt%3B%22%20style%3D%22rounded%3D1%3BwhiteSpace%3Dwrap%3Bhtml%3D1%3Bsketch%3D0%3BfontSize%3D20%3BfontColor%3D%231D3557%3BstrokeColor%3D%23457B9D%3BstrokeWidth%3D2%3BfillColor%3D%23E8F0FC%3B%22%20vertex%3D%221%22%20parent%3D%221%22%3E%3CmxGeometry%20x%3D%22-347.06%22%20y%3D%221020%22%20width%3D%22184.13%22%20height%3D%2280%22%20as%3D%22geometry%22%2F%3E%3C%2FmxCell%3E%3C%2Froot%3E%3C%2FmxGraphModel%3E&lt;/span&gt;" style="rounded=1;whiteSpace=wrap;html=1;sketch=0;fontSize=20;strokeColor=#d79b00;strokeWidth=2;fillColor=#ffe6cc;" parent="85etgImM21U0zFLn9ePR-28" vertex="1">
          <mxGeometry x="-55" y="180" width="144.13" height="80" as="geometry" />
        </mxCell>
        <mxCell id="85etgImM21U0zFLn9ePR-119" value="6개월 간 월별 방문자 수&lt;br&gt;/ajax/monthly&lt;br&gt;[GET]" style="text;html=1;strokeColor=none;fillColor=none;align=center;verticalAlign=middle;whiteSpace=wrap;rounded=0;sketch=0;fontSize=12;fontColor=#1D3557;" parent="85etgImM21U0zFLn9ePR-28" vertex="1">
          <mxGeometry x="-48.15" y="200" width="138.15" height="40" as="geometry" />
        </mxCell>
        <mxCell id="85etgImM21U0zFLn9ePR-121" value="이번달 누적 방문자 수&lt;br&gt;/ajax/thisMonth&lt;br&gt;[GET]" style="text;html=1;strokeColor=none;fillColor=none;align=center;verticalAlign=middle;whiteSpace=wrap;rounded=0;sketch=0;fontSize=12;fontColor=#1D3557;" parent="85etgImM21U0zFLn9ePR-28" vertex="1">
          <mxGeometry x="-345" y="190" width="125" height="50" as="geometry" />
        </mxCell>
        <mxCell id="85etgImM21U0zFLn9ePR-96" value="&lt;span style=&quot;color: rgba(0 , 0 , 0 , 0) ; font-family: monospace ; font-size: 0px&quot;&gt;%3CmxGraphModel%3E%3Croot%3E%3CmxCell%20id%3D%220%22%2F%3E%3CmxCell%20id%3D%221%22%20parent%3D%220%22%2F%3E%3CmxCell%20id%3D%222%22%20value%3D%22%26lt%3Bspan%20style%3D%26quot%3Bcolor%3A%20rgba(0%20%2C%200%20%2C%200%20%2C%200)%20%3B%20font-family%3A%20monospace%20%3B%20font-size%3A%200px%26quot%3B%26gt%3B%253CmxGraphModel%253E%253Croot%253E%253CmxCell%2520id%253D%25220%2522%252F%253E%253CmxCell%2520id%253D%25221%2522%2520parent%253D%25220%2522%252F%253E%253CmxCell%2520id%253D%25222%2522%2520value%253D%2522%2522%2520style%253D%2522rounded%253D1%253BwhiteSpace%253Dwrap%253Bhtml%253D1%253Bsketch%253D0%253BfontSize%253D20%253BfontColor%253D%25231D3557%253BstrokeColor%253D%2523457B9D%253BstrokeWidth%253D2%253BfillColor%253D%2523E8F0FC%253B%2522%2520vertex%253D%25221%2522%2520parent%253D%25221%2522%253E%253CmxGeometry%2520x%253D%2522370%2522%2520y%253D%2522860%2522%2520width%253D%2522144.13%2522%2520height%253D%252280%2522%2520as%253D%2522geometry%2522%252F%253E%253C%252FmxCell%253E%253CmxCell%2520id%253D%25223%2522%2520value%253D%2522%2526lt%253Bspan%2520style%253D%2526quot%253Bfont-size%253A%252013px%2526quot%253B%2526gt%253B%25EA%25B4%2580%25EB%25A6%25AC%25EC%259E%2590%2520%25EB%25A9%2594%25EC%259D%25B8%2520%25ED%258E%2598%25EC%259D%25B4%25EC%25A7%2580%2526lt%253Bbr%2526gt%253B%252Fadmin%252Fmain%2526lt%253Bbr%2526gt%253B%255BGET%255D%2526lt%253Bbr%2526gt%253B%2526lt%253B%252Fspan%2526gt%253B%2522%2520style%253D%2522text%253Bhtml%253D1%253BstrokeColor%253Dnone%253BfillColor%253Dnone%253Balign%253Dcenter%253BverticalAlign%253Dmiddle%253BwhiteSpace%253Dwrap%253Brounded%253D0%253Bsketch%253D0%253BfontSize%253D20%253BfontColor%253D%25231D3557%253BfontStyle%253D1%2522%2520vertex%253D%25221%2522%2520parent%253D%25221%2522%253E%253CmxGeometry%2520x%253D%2522374.79%2522%2520y%253D%2522880%2522%2520width%253D%2522134.56%2522%2520height%253D%252240%2522%2520as%253D%2522geometry%2522%252F%253E%253C%252FmxCell%253E%253C%252Froot%253E%253C%252FmxGraphModel%253E%26lt%3B%2Fspan%26gt%3B%22%20style%3D%22rounded%3D1%3BwhiteSpace%3Dwrap%3Bhtml%3D1%3Bsketch%3D0%3BfontSize%3D20%3BfontColor%3D%231D3557%3BstrokeColor%3D%23457B9D%3BstrokeWidth%3D2%3BfillColor%3D%23E8F0FC%3B%22%20vertex%3D%221%22%20parent%3D%221%22%3E%3CmxGeometry%20x%3D%22-347.06%22%20y%3D%221020%22%20width%3D%22184.13%22%20height%3D%2280%22%20as%3D%22geometry%22%2F%3E%3C%2FmxCell%3E%3C%2Froot%3E%3C%2FmxGraphModel%3E&lt;/span&gt;" style="rounded=1;whiteSpace=wrap;html=1;sketch=0;fontSize=20;fontColor=#1D3557;strokeColor=#457B9D;strokeWidth=2;fillColor=#E8F0FC;" parent="85etgImM21U0zFLn9ePR-28" vertex="1">
          <mxGeometry x="194.24" y="410" width="209.13" height="80" as="geometry" />
        </mxCell>
        <mxCell id="COgYv8JIRqIL7-lJRIyB-1" value="" style="endArrow=classic;html=1;rounded=1;sketch=0;fontSize=12;fontColor=#1D3557;strokeColor=#457B9D;strokeWidth=1;fillColor=#A8DADC;curved=0;exitX=0.75;exitY=1;exitDx=0;exitDy=0;entryX=1;entryY=0.5;entryDx=0;entryDy=0;" parent="85etgImM21U0zFLn9ePR-28" source="85etgImM21U0zFLn9ePR-57" target="85etgImM21U0zFLn9ePR-96" edge="1">
          <mxGeometry width="50" height="50" relative="1" as="geometry">
            <mxPoint x="265" y="310" as="sourcePoint" />
            <mxPoint x="315" y="260" as="targetPoint" />
            <Array as="points">
              <mxPoint x="433" y="450" />
            </Array>
          </mxGeometry>
        </mxCell>
        <mxCell id="COgYv8JIRqIL7-lJRIyB-2" value="" style="endArrow=classic;html=1;rounded=1;sketch=0;fontSize=12;fontColor=#1D3557;strokeColor=#457B9D;strokeWidth=1;fillColor=#A8DADC;curved=0;exitX=0.75;exitY=1;exitDx=0;exitDy=0;entryX=1;entryY=0.5;entryDx=0;entryDy=0;" parent="85etgImM21U0zFLn9ePR-28" source="85etgImM21U0zFLn9ePR-57" target="85etgImM21U0zFLn9ePR-73" edge="1">
          <mxGeometry width="50" height="50" relative="1" as="geometry">
            <mxPoint x="265" y="310" as="sourcePoint" />
            <mxPoint x="315" y="260" as="targetPoint" />
            <Array as="points">
              <mxPoint x="433" y="160" />
            </Array>
          </mxGeometry>
        </mxCell>
        <mxCell id="COgYv8JIRqIL7-lJRIyB-31" value="&lt;span style=&quot;color: rgba(0 , 0 , 0 , 0) ; font-family: monospace ; font-size: 0px&quot;&gt;%3CmxGraphModel%3E%3Croot%3E%3CmxCell%20id%3D%220%22%2F%3E%3CmxCell%20id%3D%221%22%20parent%3D%220%22%2F%3E%3CmxCell%20id%3D%222%22%20value%3D%22%26lt%3Bspan%20style%3D%26quot%3Bcolor%3A%20rgba(0%20%2C%200%20%2C%200%20%2C%200)%20%3B%20font-family%3A%20monospace%20%3B%20font-size%3A%200px%26quot%3B%26gt%3B%253CmxGraphModel%253E%253Croot%253E%253CmxCell%2520id%253D%25220%2522%252F%253E%253CmxCell%2520id%253D%25221%2522%2520parent%253D%25220%2522%252F%253E%253CmxCell%2520id%253D%25222%2522%2520value%253D%2522%2522%2520style%253D%2522rounded%253D1%253BwhiteSpace%253Dwrap%253Bhtml%253D1%253Bsketch%253D0%253BfontSize%253D20%253BfontColor%253D%25231D3557%253BstrokeColor%253D%2523457B9D%253BstrokeWidth%253D2%253BfillColor%253D%2523E8F0FC%253B%2522%2520vertex%253D%25221%2522%2520parent%253D%25221%2522%253E%253CmxGeometry%2520x%253D%2522370%2522%2520y%253D%2522860%2522%2520width%253D%2522144.13%2522%2520height%253D%252280%2522%2520as%253D%2522geometry%2522%252F%253E%253C%252FmxCell%253E%253CmxCell%2520id%253D%25223%2522%2520value%253D%2522%2526lt%253Bspan%2520style%253D%2526quot%253Bfont-size%253A%252013px%2526quot%253B%2526gt%253B%25EA%25B4%2580%25EB%25A6%25AC%25EC%259E%2590%2520%25EB%25A9%2594%25EC%259D%25B8%2520%25ED%258E%2598%25EC%259D%25B4%25EC%25A7%2580%2526lt%253Bbr%2526gt%253B%252Fadmin%252Fmain%2526lt%253Bbr%2526gt%253B%255BGET%255D%2526lt%253Bbr%2526gt%253B%2526lt%253B%252Fspan%2526gt%253B%2522%2520style%253D%2522text%253Bhtml%253D1%253BstrokeColor%253Dnone%253BfillColor%253Dnone%253Balign%253Dcenter%253BverticalAlign%253Dmiddle%253BwhiteSpace%253Dwrap%253Brounded%253D0%253Bsketch%253D0%253BfontSize%253D20%253BfontColor%253D%25231D3557%253BfontStyle%253D1%2522%2520vertex%253D%25221%2522%2520parent%253D%25221%2522%253E%253CmxGeometry%2520x%253D%2522374.79%2522%2520y%253D%2522880%2522%2520width%253D%2522134.56%2522%2520height%253D%252240%2522%2520as%253D%2522geometry%2522%252F%253E%253C%252FmxCell%253E%253C%252Froot%253E%253C%252FmxGraphModel%253E%26lt%3B%2Fspan%26gt%3B%22%20style%3D%22rounded%3D1%3BwhiteSpace%3Dwrap%3Bhtml%3D1%3Bsketch%3D0%3BfontSize%3D20%3BfontColor%3D%231D3557%3BstrokeColor%3D%23457B9D%3BstrokeWidth%3D2%3BfillColor%3D%23E8F0FC%3B%22%20vertex%3D%221%22%20parent%3D%221%22%3E%3CmxGeometry%20x%3D%22-347.06%22%20y%3D%221020%22%20width%3D%22184.13%22%20height%3D%2280%22%20as%3D%22geometry%22%2F%3E%3C%2FmxCell%3E%3C%2Froot%3E%3C%2FmxGraphModel%3E&lt;/span&gt;" style="rounded=1;whiteSpace=wrap;html=1;sketch=0;fontSize=20;strokeColor=#d79b00;strokeWidth=2;fillColor=#ffe6cc;" parent="85etgImM21U0zFLn9ePR-28" vertex="1">
          <mxGeometry x="-385" y="350" width="155" height="80" as="geometry" />
        </mxCell>
        <mxCell id="85etgImM21U0zFLn9ePR-95" value="&lt;span style=&quot;color: rgba(0 , 0 , 0 , 0) ; font-family: monospace ; font-size: 0px&quot;&gt;%3CmxGraphModel%3E%3Croot%3E%3CmxCell%20id%3D%220%22%2F%3E%3CmxCell%20id%3D%221%22%20parent%3D%220%22%2F%3E%3CmxCell%20id%3D%222%22%20value%3D%22%26lt%3Bspan%20style%3D%26quot%3Bcolor%3A%20rgba(0%20%2C%200%20%2C%200%20%2C%200)%20%3B%20font-family%3A%20monospace%20%3B%20font-size%3A%200px%26quot%3B%26gt%3B%253CmxGraphModel%253E%253Croot%253E%253CmxCell%2520id%253D%25220%2522%252F%253E%253CmxCell%2520id%253D%25221%2522%2520parent%253D%25220%2522%252F%253E%253CmxCell%2520id%253D%25222%2522%2520value%253D%2522%2522%2520style%253D%2522rounded%253D1%253BwhiteSpace%253Dwrap%253Bhtml%253D1%253Bsketch%253D0%253BfontSize%253D20%253BfontColor%253D%25231D3557%253BstrokeColor%253D%2523457B9D%253BstrokeWidth%253D2%253BfillColor%253D%2523E8F0FC%253B%2522%2520vertex%253D%25221%2522%2520parent%253D%25221%2522%253E%253CmxGeometry%2520x%253D%2522370%2522%2520y%253D%2522860%2522%2520width%253D%2522144.13%2522%2520height%253D%252280%2522%2520as%253D%2522geometry%2522%252F%253E%253C%252FmxCell%253E%253CmxCell%2520id%253D%25223%2522%2520value%253D%2522%2526lt%253Bspan%2520style%253D%2526quot%253Bfont-size%253A%252013px%2526quot%253B%2526gt%253B%25EA%25B4%2580%25EB%25A6%25AC%25EC%259E%2590%2520%25EB%25A9%2594%25EC%259D%25B8%2520%25ED%258E%2598%25EC%259D%25B4%25EC%25A7%2580%2526lt%253Bbr%2526gt%253B%252Fadmin%252Fmain%2526lt%253Bbr%2526gt%253B%255BGET%255D%2526lt%253Bbr%2526gt%253B%2526lt%253B%252Fspan%2526gt%253B%2522%2520style%253D%2522text%253Bhtml%253D1%253BstrokeColor%253Dnone%253BfillColor%253Dnone%253Balign%253Dcenter%253BverticalAlign%253Dmiddle%253BwhiteSpace%253Dwrap%253Brounded%253D0%253Bsketch%253D0%253BfontSize%253D20%253BfontColor%253D%25231D3557%253BfontStyle%253D1%2522%2520vertex%253D%25221%2522%2520parent%253D%25221%2522%253E%253CmxGeometry%2520x%253D%2522374.79%2522%2520y%253D%2522880%2522%2520width%253D%2522134.56%2522%2520height%253D%252240%2522%2520as%253D%2522geometry%2522%252F%253E%253C%252FmxCell%253E%253C%252Froot%253E%253C%252FmxGraphModel%253E%26lt%3B%2Fspan%26gt%3B%22%20style%3D%22rounded%3D1%3BwhiteSpace%3Dwrap%3Bhtml%3D1%3Bsketch%3D0%3BfontSize%3D20%3BfontColor%3D%231D3557%3BstrokeColor%3D%23457B9D%3BstrokeWidth%3D2%3BfillColor%3D%23E8F0FC%3B%22%20vertex%3D%221%22%20parent%3D%221%22%3E%3CmxGeometry%20x%3D%22-347.06%22%20y%3D%221020%22%20width%3D%22184.13%22%20height%3D%2280%22%20as%3D%22geometry%22%2F%3E%3C%2FmxCell%3E%3C%2Froot%3E%3C%2FmxGraphModel%3E&lt;/span&gt;" style="rounded=1;whiteSpace=wrap;html=1;sketch=0;fontSize=20;fontColor=#1D3557;strokeColor=#457B9D;strokeWidth=2;fillColor=#E8F0FC;" parent="85etgImM21U0zFLn9ePR-28" vertex="1">
          <mxGeometry x="194.24" y="570" width="209.13" height="80" as="geometry" />
        </mxCell>
        <mxCell id="QMKBq2frlUEZXYPOAQRA-14" value="기부금액 월별 통계 페이지&lt;br&gt;/admin/statistics/donation_monthly&lt;br&gt;[GET]" style="text;html=1;strokeColor=none;fillColor=none;align=center;verticalAlign=middle;whiteSpace=wrap;rounded=0;sketch=0;fontSize=12;fontColor=#1D3557;" parent="85etgImM21U0zFLn9ePR-28" vertex="1">
          <mxGeometry x="194.24" y="580" width="195" height="60" as="geometry" />
        </mxCell>
        <mxCell id="COgYv8JIRqIL7-lJRIyB-30" value="&lt;span style=&quot;color: rgba(0 , 0 , 0 , 0) ; font-family: monospace ; font-size: 0px&quot;&gt;%3CmxGraphModel%3E%3Croot%3E%3CmxCell%20id%3D%220%22%2F%3E%3CmxCell%20id%3D%221%22%20parent%3D%220%22%2F%3E%3CmxCell%20id%3D%222%22%20value%3D%22%26lt%3Bspan%20style%3D%26quot%3Bcolor%3A%20rgba(0%20%2C%200%20%2C%200%20%2C%200)%20%3B%20font-family%3A%20monospace%20%3B%20font-size%3A%200px%26quot%3B%26gt%3B%253CmxGraphModel%253E%253Croot%253E%253CmxCell%2520id%253D%25220%2522%252F%253E%253CmxCell%2520id%253D%25221%2522%2520parent%253D%25220%2522%252F%253E%253CmxCell%2520id%253D%25222%2522%2520value%253D%2522%2522%2520style%253D%2522rounded%253D1%253BwhiteSpace%253Dwrap%253Bhtml%253D1%253Bsketch%253D0%253BfontSize%253D20%253BfontColor%253D%25231D3557%253BstrokeColor%253D%2523457B9D%253BstrokeWidth%253D2%253BfillColor%253D%2523E8F0FC%253B%2522%2520vertex%253D%25221%2522%2520parent%253D%25221%2522%253E%253CmxGeometry%2520x%253D%2522370%2522%2520y%253D%2522860%2522%2520width%253D%2522144.13%2522%2520height%253D%252280%2522%2520as%253D%2522geometry%2522%252F%253E%253C%252FmxCell%253E%253CmxCell%2520id%253D%25223%2522%2520value%253D%2522%2526lt%253Bspan%2520style%253D%2526quot%253Bfont-size%253A%252013px%2526quot%253B%2526gt%253B%25EA%25B4%2580%25EB%25A6%25AC%25EC%259E%2590%2520%25EB%25A9%2594%25EC%259D%25B8%2520%25ED%258E%2598%25EC%259D%25B4%25EC%25A7%2580%2526lt%253Bbr%2526gt%253B%252Fadmin%252Fmain%2526lt%253Bbr%2526gt%253B%255BGET%255D%2526lt%253Bbr%2526gt%253B%2526lt%253B%252Fspan%2526gt%253B%2522%2520style%253D%2522text%253Bhtml%253D1%253BstrokeColor%253Dnone%253BfillColor%253Dnone%253Balign%253Dcenter%253BverticalAlign%253Dmiddle%253BwhiteSpace%253Dwrap%253Brounded%253D0%253Bsketch%253D0%253BfontSize%253D20%253BfontColor%253D%25231D3557%253BfontStyle%253D1%2522%2520vertex%253D%25221%2522%2520parent%253D%25221%2522%253E%253CmxGeometry%2520x%253D%2522374.79%2522%2520y%253D%2522880%2522%2520width%253D%2522134.56%2522%2520height%253D%252240%2522%2520as%253D%2522geometry%2522%252F%253E%253C%252FmxCell%253E%253C%252Froot%253E%253C%252FmxGraphModel%253E%26lt%3B%2Fspan%26gt%3B%22%20style%3D%22rounded%3D1%3BwhiteSpace%3Dwrap%3Bhtml%3D1%3Bsketch%3D0%3BfontSize%3D20%3BfontColor%3D%231D3557%3BstrokeColor%3D%23457B9D%3BstrokeWidth%3D2%3BfillColor%3D%23E8F0FC%3B%22%20vertex%3D%221%22%20parent%3D%221%22%3E%3CmxGeometry%20x%3D%22-347.06%22%20y%3D%221020%22%20width%3D%22184.13%22%20height%3D%2280%22%20as%3D%22geometry%22%2F%3E%3C%2FmxCell%3E%3C%2Froot%3E%3C%2FmxGraphModel%3E&lt;/span&gt;" style="rounded=1;whiteSpace=wrap;html=1;sketch=0;fontSize=20;strokeColor=#d79b00;strokeWidth=2;fillColor=#ffe6cc;" parent="85etgImM21U0zFLn9ePR-28" vertex="1">
          <mxGeometry x="-48" y="510" width="148" height="80" as="geometry" />
        </mxCell>
        <mxCell id="QMKBq2frlUEZXYPOAQRA-36" value="&lt;span style=&quot;color: rgba(0 , 0 , 0 , 0) ; font-family: monospace ; font-size: 0px&quot;&gt;%3CmxGraphModel%3E%3Croot%3E%3CmxCell%20id%3D%220%22%2F%3E%3CmxCell%20id%3D%221%22%20parent%3D%220%22%2F%3E%3CmxCell%20id%3D%222%22%20value%3D%22%26lt%3Bspan%20style%3D%26quot%3Bcolor%3A%20rgba(0%20%2C%200%20%2C%200%20%2C%200)%20%3B%20font-family%3A%20monospace%20%3B%20font-size%3A%200px%26quot%3B%26gt%3B%253CmxGraphModel%253E%253Croot%253E%253CmxCell%2520id%253D%25220%2522%252F%253E%253CmxCell%2520id%253D%25221%2522%2520parent%253D%25220%2522%252F%253E%253CmxCell%2520id%253D%25222%2522%2520value%253D%2522%2522%2520style%253D%2522rounded%253D1%253BwhiteSpace%253Dwrap%253Bhtml%253D1%253Bsketch%253D0%253BfontSize%253D20%253BfontColor%253D%25231D3557%253BstrokeColor%253D%2523457B9D%253BstrokeWidth%253D2%253BfillColor%253D%2523E8F0FC%253B%2522%2520vertex%253D%25221%2522%2520parent%253D%25221%2522%253E%253CmxGeometry%2520x%253D%2522370%2522%2520y%253D%2522860%2522%2520width%253D%2522144.13%2522%2520height%253D%252280%2522%2520as%253D%2522geometry%2522%252F%253E%253C%252FmxCell%253E%253CmxCell%2520id%253D%25223%2522%2520value%253D%2522%2526lt%253Bspan%2520style%253D%2526quot%253Bfont-size%253A%252013px%2526quot%253B%2526gt%253B%25EA%25B4%2580%25EB%25A6%25AC%25EC%259E%2590%2520%25EB%25A9%2594%25EC%259D%25B8%2520%25ED%258E%2598%25EC%259D%25B4%25EC%25A7%2580%2526lt%253Bbr%2526gt%253B%252Fadmin%252Fmain%2526lt%253Bbr%2526gt%253B%255BGET%255D%2526lt%253Bbr%2526gt%253B%2526lt%253B%252Fspan%2526gt%253B%2522%2520style%253D%2522text%253Bhtml%253D1%253BstrokeColor%253Dnone%253BfillColor%253Dnone%253Balign%253Dcenter%253BverticalAlign%253Dmiddle%253BwhiteSpace%253Dwrap%253Brounded%253D0%253Bsketch%253D0%253BfontSize%253D20%253BfontColor%253D%25231D3557%253BfontStyle%253D1%2522%2520vertex%253D%25221%2522%2520parent%253D%25221%2522%253E%253CmxGeometry%2520x%253D%2522374.79%2522%2520y%253D%2522880%2522%2520width%253D%2522134.56%2522%2520height%253D%252240%2522%2520as%253D%2522geometry%2522%252F%253E%253C%252FmxCell%253E%253C%252Froot%253E%253C%252FmxGraphModel%253E%26lt%3B%2Fspan%26gt%3B%22%20style%3D%22rounded%3D1%3BwhiteSpace%3Dwrap%3Bhtml%3D1%3Bsketch%3D0%3BfontSize%3D20%3BfontColor%3D%231D3557%3BstrokeColor%3D%23457B9D%3BstrokeWidth%3D2%3BfillColor%3D%23E8F0FC%3B%22%20vertex%3D%221%22%20parent%3D%221%22%3E%3CmxGeometry%20x%3D%22-347.06%22%20y%3D%221020%22%20width%3D%22184.13%22%20height%3D%2280%22%20as%3D%22geometry%22%2F%3E%3C%2FmxCell%3E%3C%2Froot%3E%3C%2FmxGraphModel%3E&lt;/span&gt;" style="rounded=1;whiteSpace=wrap;html=1;sketch=0;fontSize=20;strokeColor=#d79b00;strokeWidth=2;fillColor=#ffe6cc;" parent="85etgImM21U0zFLn9ePR-28" vertex="1">
          <mxGeometry x="-285" y="630" width="160" height="80" as="geometry" />
        </mxCell>
        <mxCell id="QMKBq2frlUEZXYPOAQRA-37" value="&lt;span style=&quot;color: rgba(0 , 0 , 0 , 0) ; font-family: monospace ; font-size: 0px&quot;&gt;%3CmxGraphModel%3E%3Croot%3E%3CmxCell%20id%3D%220%22%2F%3E%3CmxCell%20id%3D%221%22%20parent%3D%220%22%2F%3E%3CmxCell%20id%3D%222%22%20value%3D%22%26lt%3Bspan%20style%3D%26quot%3Bcolor%3A%20rgba(0%20%2C%200%20%2C%200%20%2C%200)%20%3B%20font-family%3A%20monospace%20%3B%20font-size%3A%200px%26quot%3B%26gt%3B%253CmxGraphModel%253E%253Croot%253E%253CmxCell%2520id%253D%25220%2522%252F%253E%253CmxCell%2520id%253D%25221%2522%2520parent%253D%25220%2522%252F%253E%253CmxCell%2520id%253D%25222%2522%2520value%253D%2522%2522%2520style%253D%2522rounded%253D1%253BwhiteSpace%253Dwrap%253Bhtml%253D1%253Bsketch%253D0%253BfontSize%253D20%253BfontColor%253D%25231D3557%253BstrokeColor%253D%2523457B9D%253BstrokeWidth%253D2%253BfillColor%253D%2523E8F0FC%253B%2522%2520vertex%253D%25221%2522%2520parent%253D%25221%2522%253E%253CmxGeometry%2520x%253D%2522370%2522%2520y%253D%2522860%2522%2520width%253D%2522144.13%2522%2520height%253D%252280%2522%2520as%253D%2522geometry%2522%252F%253E%253C%252FmxCell%253E%253CmxCell%2520id%253D%25223%2522%2520value%253D%2522%2526lt%253Bspan%2520style%253D%2526quot%253Bfont-size%253A%252013px%2526quot%253B%2526gt%253B%25EA%25B4%2580%25EB%25A6%25AC%25EC%259E%2590%2520%25EB%25A9%2594%25EC%259D%25B8%2520%25ED%258E%2598%25EC%259D%25B4%25EC%25A7%2580%2526lt%253Bbr%2526gt%253B%252Fadmin%252Fmain%2526lt%253Bbr%2526gt%253B%255BGET%255D%2526lt%253Bbr%2526gt%253B%2526lt%253B%252Fspan%2526gt%253B%2522%2520style%253D%2522text%253Bhtml%253D1%253BstrokeColor%253Dnone%253BfillColor%253Dnone%253Balign%253Dcenter%253BverticalAlign%253Dmiddle%253BwhiteSpace%253Dwrap%253Brounded%253D0%253Bsketch%253D0%253BfontSize%253D20%253BfontColor%253D%25231D3557%253BfontStyle%253D1%2522%2520vertex%253D%25221%2522%2520parent%253D%25221%2522%253E%253CmxGeometry%2520x%253D%2522374.79%2522%2520y%253D%2522880%2522%2520width%253D%2522134.56%2522%2520height%253D%252240%2522%2520as%253D%2522geometry%2522%252F%253E%253C%252FmxCell%253E%253C%252Froot%253E%253C%252FmxGraphModel%253E%26lt%3B%2Fspan%26gt%3B%22%20style%3D%22rounded%3D1%3BwhiteSpace%3Dwrap%3Bhtml%3D1%3Bsketch%3D0%3BfontSize%3D20%3BfontColor%3D%231D3557%3BstrokeColor%3D%23457B9D%3BstrokeWidth%3D2%3BfillColor%3D%23E8F0FC%3B%22%20vertex%3D%221%22%20parent%3D%221%22%3E%3CmxGeometry%20x%3D%22-347.06%22%20y%3D%221020%22%20width%3D%22184.13%22%20height%3D%2280%22%20as%3D%22geometry%22%2F%3E%3C%2FmxCell%3E%3C%2Froot%3E%3C%2FmxGraphModel%3E&lt;/span&gt;" style="rounded=1;whiteSpace=wrap;html=1;sketch=0;fontSize=20;strokeColor=#d79b00;strokeWidth=2;fillColor=#ffe6cc;" parent="85etgImM21U0zFLn9ePR-28" vertex="1">
          <mxGeometry x="-115" y="630" width="160" height="80" as="geometry" />
        </mxCell>
        <mxCell id="QMKBq2frlUEZXYPOAQRA-39" value="당월 누적 일시 기부 금액&lt;br&gt;/ajax/donation_thisMonth&lt;br&gt;[GET]" style="text;html=1;strokeColor=none;fillColor=none;align=center;verticalAlign=middle;whiteSpace=wrap;rounded=0;sketch=0;fontSize=12;fontColor=#1D3557;" parent="85etgImM21U0zFLn9ePR-28" vertex="1">
          <mxGeometry x="-45.5" y="520" width="143" height="60" as="geometry" />
        </mxCell>
        <mxCell id="QMKBq2frlUEZXYPOAQRA-42" value="당월 누적 정기 기부 금액&lt;br&gt;/ajax/regular_thisMonth&lt;br&gt;[GET]" style="text;html=1;strokeColor=none;fillColor=none;align=center;verticalAlign=middle;whiteSpace=wrap;rounded=0;sketch=0;fontSize=12;fontColor=#1D3557;" parent="85etgImM21U0zFLn9ePR-28" vertex="1">
          <mxGeometry x="-285" y="640" width="160" height="60" as="geometry" />
        </mxCell>
        <mxCell id="QMKBq2frlUEZXYPOAQRA-43" value="12개월 간 월별 정기 기부 금액&lt;br&gt;/ajax/regular_moy&lt;br&gt;[GET]" style="text;html=1;strokeColor=none;fillColor=none;align=center;verticalAlign=middle;whiteSpace=wrap;rounded=0;sketch=0;fontSize=12;fontColor=#1D3557;" parent="85etgImM21U0zFLn9ePR-28" vertex="1">
          <mxGeometry x="-117.5" y="640" width="165" height="60" as="geometry" />
        </mxCell>
        <mxCell id="QMKBq2frlUEZXYPOAQRA-45" value="" style="endArrow=classic;html=1;rounded=1;sketch=0;fontSize=15;fontColor=#1D3557;strokeColor=#457B9D;strokeWidth=1;fillColor=#A8DADC;curved=0;entryX=0.5;entryY=1;entryDx=0;entryDy=0;exitX=0;exitY=0.5;exitDx=0;exitDy=0;" parent="85etgImM21U0zFLn9ePR-28" source="QMKBq2frlUEZXYPOAQRA-14" target="COgYv8JIRqIL7-lJRIyB-30" edge="1">
          <mxGeometry width="50" height="50" relative="1" as="geometry">
            <mxPoint x="112.14999999999998" y="733.3" as="sourcePoint" />
            <mxPoint x="112.0018717447914" y="606.71" as="targetPoint" />
            <Array as="points">
              <mxPoint x="26" y="610" />
            </Array>
          </mxGeometry>
        </mxCell>
        <mxCell id="QMKBq2frlUEZXYPOAQRA-48" value="" style="endArrow=classic;html=1;rounded=1;sketch=0;fontSize=15;fontColor=#1D3557;strokeColor=#457B9D;strokeWidth=1;fillColor=#A8DADC;curved=0;entryX=0.5;entryY=0;entryDx=0;entryDy=0;exitX=0;exitY=0.5;exitDx=0;exitDy=0;" parent="85etgImM21U0zFLn9ePR-28" source="QMKBq2frlUEZXYPOAQRA-14" target="QMKBq2frlUEZXYPOAQRA-37" edge="1">
          <mxGeometry width="50" height="50" relative="1" as="geometry">
            <mxPoint x="142.1500000000001" y="763.3000000000002" as="sourcePoint" />
            <mxPoint x="142.00187174479152" y="636.71" as="targetPoint" />
            <Array as="points">
              <mxPoint x="-35" y="610" />
            </Array>
          </mxGeometry>
        </mxCell>
        <mxCell id="QMKBq2frlUEZXYPOAQRA-49" value="" style="endArrow=classic;html=1;rounded=1;sketch=0;fontSize=15;fontColor=#1D3557;strokeColor=#457B9D;strokeWidth=1;fillColor=#A8DADC;curved=0;entryX=0.5;entryY=0;entryDx=0;entryDy=0;exitX=0;exitY=0.5;exitDx=0;exitDy=0;" parent="85etgImM21U0zFLn9ePR-28" source="QMKBq2frlUEZXYPOAQRA-14" target="QMKBq2frlUEZXYPOAQRA-36" edge="1">
          <mxGeometry width="50" height="50" relative="1" as="geometry">
            <mxPoint x="152.1500000000001" y="773.3000000000002" as="sourcePoint" />
            <mxPoint x="152.00187174479152" y="646.71" as="targetPoint" />
            <Array as="points">
              <mxPoint x="-205" y="610" />
            </Array>
          </mxGeometry>
        </mxCell>
        <mxCell id="QMKBq2frlUEZXYPOAQRA-50" value="" style="endArrow=classic;html=1;rounded=1;sketch=0;fontSize=15;fontColor=#1D3557;strokeColor=#457B9D;strokeWidth=1;fillColor=#A8DADC;curved=0;entryX=0;entryY=0.25;entryDx=0;entryDy=0;exitX=0.5;exitY=0;exitDx=0;exitDy=0;" parent="85etgImM21U0zFLn9ePR-28" source="COgYv8JIRqIL7-lJRIyB-30" target="QMKBq2frlUEZXYPOAQRA-14" edge="1">
          <mxGeometry width="50" height="50" relative="1" as="geometry">
            <mxPoint x="162.1500000000001" y="783.3000000000002" as="sourcePoint" />
            <mxPoint x="162.00187174479152" y="656.71" as="targetPoint" />
            <Array as="points">
              <mxPoint x="26" y="480" />
              <mxPoint x="145" y="480" />
              <mxPoint x="145" y="595" />
            </Array>
          </mxGeometry>
        </mxCell>
        <mxCell id="QMKBq2frlUEZXYPOAQRA-55" value="" style="endArrow=classic;html=1;rounded=1;sketch=0;fontSize=15;fontColor=#1D3557;strokeColor=#457B9D;strokeWidth=1;fillColor=#A8DADC;curved=0;entryX=0;entryY=0.75;entryDx=0;entryDy=0;exitX=0.5;exitY=1;exitDx=0;exitDy=0;" parent="85etgImM21U0zFLn9ePR-28" source="QMKBq2frlUEZXYPOAQRA-37" target="QMKBq2frlUEZXYPOAQRA-14" edge="1">
          <mxGeometry width="50" height="50" relative="1" as="geometry">
            <mxPoint x="192.1500000000001" y="813.3000000000002" as="sourcePoint" />
            <mxPoint x="192.00187174479152" y="686.71" as="targetPoint" />
            <Array as="points">
              <mxPoint x="-35" y="730" />
              <mxPoint x="155" y="730" />
              <mxPoint x="155" y="625" />
            </Array>
          </mxGeometry>
        </mxCell>
        <mxCell id="QMKBq2frlUEZXYPOAQRA-56" value="" style="endArrow=classic;html=1;rounded=1;sketch=0;fontSize=15;fontColor=#1D3557;strokeColor=#457B9D;strokeWidth=1;fillColor=#A8DADC;curved=0;entryX=0;entryY=0.75;entryDx=0;entryDy=0;exitX=0.5;exitY=1;exitDx=0;exitDy=0;" parent="85etgImM21U0zFLn9ePR-28" source="QMKBq2frlUEZXYPOAQRA-36" target="QMKBq2frlUEZXYPOAQRA-14" edge="1">
          <mxGeometry width="50" height="50" relative="1" as="geometry">
            <mxPoint x="202.1500000000001" y="823.3000000000002" as="sourcePoint" />
            <mxPoint x="202.00187174479152" y="696.71" as="targetPoint" />
            <Array as="points">
              <mxPoint x="-205" y="730" />
              <mxPoint x="155" y="730" />
              <mxPoint x="155" y="625" />
            </Array>
          </mxGeometry>
        </mxCell>
        <mxCell id="QMKBq2frlUEZXYPOAQRA-57" value="ChartVO" style="edgeLabel;html=1;align=center;verticalAlign=middle;resizable=0;points=[];" parent="QMKBq2frlUEZXYPOAQRA-56" vertex="1" connectable="0">
          <mxGeometry x="0.7193" relative="1" as="geometry">
            <mxPoint as="offset" />
          </mxGeometry>
        </mxCell>
        <mxCell id="QMKBq2frlUEZXYPOAQRA-58" value="" style="endArrow=classic;html=1;rounded=1;sketch=0;fontSize=15;fontColor=#1D3557;strokeColor=#457B9D;strokeWidth=1;fillColor=#A8DADC;curved=0;entryX=1;entryY=0.5;entryDx=0;entryDy=0;exitX=0.75;exitY=1;exitDx=0;exitDy=0;" parent="85etgImM21U0zFLn9ePR-28" source="85etgImM21U0zFLn9ePR-57" target="85etgImM21U0zFLn9ePR-95" edge="1">
          <mxGeometry width="50" height="50" relative="1" as="geometry">
            <mxPoint x="212.1500000000001" y="833.3000000000002" as="sourcePoint" />
            <mxPoint x="212.00187174479152" y="706.71" as="targetPoint" />
            <Array as="points">
              <mxPoint x="433" y="610" />
            </Array>
          </mxGeometry>
        </mxCell>
        <mxCell id="85etgImM21U0zFLn9ePR-94" value="&lt;span style=&quot;color: rgba(0 , 0 , 0 , 0) ; font-family: monospace ; font-size: 0px&quot;&gt;%3CmxGraphModel%3E%3Croot%3E%3CmxCell%20id%3D%220%22%2F%3E%3CmxCell%20id%3D%221%22%20parent%3D%220%22%2F%3E%3CmxCell%20id%3D%222%22%20value%3D%22%26lt%3Bspan%20style%3D%26quot%3Bcolor%3A%20rgba(0%20%2C%200%20%2C%200%20%2C%200)%20%3B%20font-family%3A%20monospace%20%3B%20font-size%3A%200px%26quot%3B%26gt%3B%253CmxGraphModel%253E%253Croot%253E%253CmxCell%2520id%253D%25220%2522%252F%253E%253CmxCell%2520id%253D%25221%2522%2520parent%253D%25220%2522%252F%253E%253CmxCell%2520id%253D%25222%2522%2520value%253D%2522%2522%2520style%253D%2522rounded%253D1%253BwhiteSpace%253Dwrap%253Bhtml%253D1%253Bsketch%253D0%253BfontSize%253D20%253BfontColor%253D%25231D3557%253BstrokeColor%253D%2523457B9D%253BstrokeWidth%253D2%253BfillColor%253D%2523E8F0FC%253B%2522%2520vertex%253D%25221%2522%2520parent%253D%25221%2522%253E%253CmxGeometry%2520x%253D%2522370%2522%2520y%253D%2522860%2522%2520width%253D%2522144.13%2522%2520height%253D%252280%2522%2520as%253D%2522geometry%2522%252F%253E%253C%252FmxCell%253E%253CmxCell%2520id%253D%25223%2522%2520value%253D%2522%2526lt%253Bspan%2520style%253D%2526quot%253Bfont-size%253A%252013px%2526quot%253B%2526gt%253B%25EA%25B4%2580%25EB%25A6%25AC%25EC%259E%2590%2520%25EB%25A9%2594%25EC%259D%25B8%2520%25ED%258E%2598%25EC%259D%25B4%25EC%25A7%2580%2526lt%253Bbr%2526gt%253B%252Fadmin%252Fmain%2526lt%253Bbr%2526gt%253B%255BGET%255D%2526lt%253Bbr%2526gt%253B%2526lt%253B%252Fspan%2526gt%253B%2522%2520style%253D%2522text%253Bhtml%253D1%253BstrokeColor%253Dnone%253BfillColor%253Dnone%253Balign%253Dcenter%253BverticalAlign%253Dmiddle%253BwhiteSpace%253Dwrap%253Brounded%253D0%253Bsketch%253D0%253BfontSize%253D20%253BfontColor%253D%25231D3557%253BfontStyle%253D1%2522%2520vertex%253D%25221%2522%2520parent%253D%25221%2522%253E%253CmxGeometry%2520x%253D%2522374.79%2522%2520y%253D%2522880%2522%2520width%253D%2522134.56%2522%2520height%253D%252240%2522%2520as%253D%2522geometry%2522%252F%253E%253C%252FmxCell%253E%253C%252Froot%253E%253C%252FmxGraphModel%253E%26lt%3B%2Fspan%26gt%3B%22%20style%3D%22rounded%3D1%3BwhiteSpace%3Dwrap%3Bhtml%3D1%3Bsketch%3D0%3BfontSize%3D20%3BfontColor%3D%231D3557%3BstrokeColor%3D%23457B9D%3BstrokeWidth%3D2%3BfillColor%3D%23E8F0FC%3B%22%20vertex%3D%221%22%20parent%3D%221%22%3E%3CmxGeometry%20x%3D%22-347.06%22%20y%3D%221020%22%20width%3D%22184.13%22%20height%3D%2280%22%20as%3D%22geometry%22%2F%3E%3C%2FmxCell%3E%3C%2Froot%3E%3C%2FmxGraphModel%3E&lt;/span&gt;" style="rounded=1;whiteSpace=wrap;html=1;sketch=0;fontSize=20;fontColor=#1D3557;strokeColor=#457B9D;strokeWidth=2;fillColor=#E8F0FC;" parent="85etgImM21U0zFLn9ePR-28" vertex="1">
          <mxGeometry x="205" y="790" width="209.13" height="80" as="geometry" />
        </mxCell>
        <mxCell id="85etgImM21U0zFLn9ePR-13" value="" style="endArrow=classic;html=1;rounded=1;sketch=0;fontSize=15;fontColor=#1D3557;strokeColor=#457B9D;fillColor=#A8DADC;curved=0;exitX=0;exitY=0.75;exitDx=0;exitDy=0;fontStyle=0;strokeWidth=3;entryX=0.5;entryY=0;entryDx=0;entryDy=0;" parent="1" source="85etgImM21U0zFLn9ePR-2" target="85etgImM21U0zFLn9ePR-51" edge="1">
          <mxGeometry width="50" height="50" relative="1" as="geometry">
            <mxPoint x="-220" y="750" as="sourcePoint" />
            <mxPoint x="200" y="700" as="targetPoint" />
            <Array as="points">
              <mxPoint x="224" y="448" />
            </Array>
          </mxGeometry>
        </mxCell>
        <mxCell id="85etgImM21U0zFLn9ePR-51" value="&lt;h1&gt;&lt;font style=&quot;font-size: 15px&quot;&gt;AdminInterceptor&lt;/font&gt;&lt;/h1&gt;" style="text;html=1;strokeColor=#990000;fillColor=none;spacing=5;spacingTop=-20;whiteSpace=wrap;overflow=hidden;rounded=0;sketch=0;fontSize=13;fontColor=#1D3557;" parent="1" vertex="1">
          <mxGeometry x="159.99999999999994" y="650" width="140" height="50" as="geometry" />
        </mxCell>
        <mxCell id="85etgImM21U0zFLn9ePR-55" value="" style="endArrow=classic;html=1;rounded=1;sketch=0;fontSize=15;fontColor=#1D3557;strokeColor=#457B9D;fillColor=#A8DADC;curved=0;exitX=0.5;exitY=1;exitDx=0;exitDy=0;fontStyle=0;strokeWidth=3;entryX=0.5;entryY=0;entryDx=0;entryDy=0;" parent="1" source="85etgImM21U0zFLn9ePR-51" target="85etgImM21U0zFLn9ePR-8" edge="1">
          <mxGeometry width="50" height="50" relative="1" as="geometry">
            <mxPoint x="451.02" y="491.55999999999995" as="sourcePoint" />
            <mxPoint x="452.0699999999997" y="680" as="targetPoint" />
            <Array as="points" />
          </mxGeometry>
        </mxCell>
        <mxCell id="85etgImM21U0zFLn9ePR-29" value="" style="rounded=0;whiteSpace=wrap;html=1;sketch=0;fontSize=15;fontColor=#1D3557;strokeColor=#457B9D;strokeWidth=1;fillColor=#FFFAF0;" parent="1" vertex="1">
          <mxGeometry x="-1470" y="970" width="230" height="580" as="geometry" />
        </mxCell>
        <mxCell id="85etgImM21U0zFLn9ePR-30" value="게시판관리" style="text;html=1;strokeColor=none;fillColor=none;align=center;verticalAlign=middle;whiteSpace=wrap;rounded=0;sketch=0;fontSize=15;fontColor=#1D3557;" parent="1" vertex="1">
          <mxGeometry x="-1330" y="1487.560975609756" width="80" height="42.4390243902439" as="geometry" />
        </mxCell>
        <mxCell id="85etgImM21U0zFLn9ePR-19" value="" style="group" parent="1" vertex="1" connectable="0">
          <mxGeometry x="-510" y="770" width="827" height="912.44" as="geometry" />
        </mxCell>
        <mxCell id="85etgImM21U0zFLn9ePR-78" value="&lt;span style=&quot;color: rgba(0 , 0 , 0 , 0) ; font-family: monospace ; font-size: 0px&quot;&gt;%3CmxGraphModel%3E%3Croot%3E%3CmxCell%20id%3D%220%22%2F%3E%3CmxCell%20id%3D%221%22%20parent%3D%220%22%2F%3E%3CmxCell%20id%3D%222%22%20value%3D%22%26lt%3Bspan%20style%3D%26quot%3Bcolor%3A%20rgba(0%20%2C%200%20%2C%200%20%2C%200)%20%3B%20font-family%3A%20monospace%20%3B%20font-size%3A%200px%26quot%3B%26gt%3B%253CmxGraphModel%253E%253Croot%253E%253CmxCell%2520id%253D%25220%2522%252F%253E%253CmxCell%2520id%253D%25221%2522%2520parent%253D%25220%2522%252F%253E%253CmxCell%2520id%253D%25222%2522%2520value%253D%2522%2522%2520style%253D%2522rounded%253D1%253BwhiteSpace%253Dwrap%253Bhtml%253D1%253Bsketch%253D0%253BfontSize%253D20%253BfontColor%253D%25231D3557%253BstrokeColor%253D%2523457B9D%253BstrokeWidth%253D2%253BfillColor%253D%2523E8F0FC%253B%2522%2520vertex%253D%25221%2522%2520parent%253D%25221%2522%253E%253CmxGeometry%2520x%253D%2522370%2522%2520y%253D%2522860%2522%2520width%253D%2522144.13%2522%2520height%253D%252280%2522%2520as%253D%2522geometry%2522%252F%253E%253C%252FmxCell%253E%253CmxCell%2520id%253D%25223%2522%2520value%253D%2522%2526lt%253Bspan%2520style%253D%2526quot%253Bfont-size%253A%252013px%2526quot%253B%2526gt%253B%25EA%25B4%2580%25EB%25A6%25AC%25EC%259E%2590%2520%25EB%25A9%2594%25EC%259D%25B8%2520%25ED%258E%2598%25EC%259D%25B4%25EC%25A7%2580%2526lt%253Bbr%2526gt%253B%252Fadmin%252Fmain%2526lt%253Bbr%2526gt%253B%255BGET%255D%2526lt%253Bbr%2526gt%253B%2526lt%253B%252Fspan%2526gt%253B%2522%2520style%253D%2522text%253Bhtml%253D1%253BstrokeColor%253Dnone%253BfillColor%253Dnone%253Balign%253Dcenter%253BverticalAlign%253Dmiddle%253BwhiteSpace%253Dwrap%253Brounded%253D0%253Bsketch%253D0%253BfontSize%253D20%253BfontColor%253D%25231D3557%253BfontStyle%253D1%2522%2520vertex%253D%25221%2522%2520parent%253D%25221%2522%253E%253CmxGeometry%2520x%253D%2522374.79%2522%2520y%253D%2522880%2522%2520width%253D%2522134.56%2522%2520height%253D%252240%2522%2520as%253D%2522geometry%2522%252F%253E%253C%252FmxCell%253E%253C%252Froot%253E%253C%252FmxGraphModel%253E%26lt%3B%2Fspan%26gt%3B%22%20style%3D%22rounded%3D1%3BwhiteSpace%3Dwrap%3Bhtml%3D1%3Bsketch%3D0%3BfontSize%3D20%3BfontColor%3D%231D3557%3BstrokeColor%3D%23457B9D%3BstrokeWidth%3D2%3BfillColor%3D%23E8F0FC%3B%22%20vertex%3D%221%22%20parent%3D%221%22%3E%3CmxGeometry%20x%3D%22-347.06%22%20y%3D%221020%22%20width%3D%22184.13%22%20height%3D%2280%22%20as%3D%22geometry%22%2F%3E%3C%2FmxCell%3E%3C%2Froot%3E%3C%2FmxGraphModel%3E&lt;/span&gt;" style="rounded=1;whiteSpace=wrap;html=1;sketch=0;fontSize=20;strokeColor=#d79b00;strokeWidth=2;fillColor=#ffe6cc;" parent="85etgImM21U0zFLn9ePR-19" vertex="1">
          <mxGeometry x="10" y="240" width="153.05" height="80" as="geometry" />
        </mxCell>
        <mxCell id="85etgImM21U0zFLn9ePR-12" value="" style="group;fillColor=default;" parent="85etgImM21U0zFLn9ePR-19" vertex="1" connectable="0">
          <mxGeometry x="670" y="60" width="150" height="80" as="geometry" />
        </mxCell>
        <mxCell id="85etgImM21U0zFLn9ePR-8" value="" style="rounded=1;whiteSpace=wrap;html=1;sketch=0;fontSize=20;fontColor=#1D3557;strokeColor=#457B9D;strokeWidth=2;fillColor=#E8F0FC;" parent="85etgImM21U0zFLn9ePR-12" vertex="1">
          <mxGeometry width="144.13" height="80" as="geometry" />
        </mxCell>
        <mxCell id="85etgImM21U0zFLn9ePR-11" value="&lt;span style=&quot;font-size: 13px&quot;&gt;관리자 메인 페이지&lt;br&gt;/admin/main&lt;br&gt;[GET]&lt;br&gt;&lt;/span&gt;" style="text;html=1;strokeColor=none;fillColor=none;align=center;verticalAlign=middle;whiteSpace=wrap;rounded=0;sketch=0;fontSize=20;fontColor=#1D3557;fontStyle=1" parent="85etgImM21U0zFLn9ePR-12" vertex="1">
          <mxGeometry x="4.79" y="20" width="134.56" height="40" as="geometry" />
        </mxCell>
        <mxCell id="85etgImM21U0zFLn9ePR-25" value="" style="group" parent="85etgImM21U0zFLn9ePR-19" vertex="1" connectable="0">
          <mxGeometry x="250" y="220" width="250" height="610" as="geometry" />
        </mxCell>
        <mxCell id="85etgImM21U0zFLn9ePR-58" value="&lt;span style=&quot;font-size: 13px&quot;&gt;&lt;span style=&quot;font-weight: normal&quot;&gt;통계 메뉴 페이지&lt;br&gt;/admin/statistics/menu&lt;br&gt;[GET]&lt;/span&gt;&lt;br&gt;&lt;/span&gt;" style="text;html=1;strokeColor=none;fillColor=none;align=center;verticalAlign=middle;whiteSpace=wrap;rounded=0;sketch=0;fontSize=20;fontColor=#1D3557;fontStyle=1" parent="85etgImM21U0zFLn9ePR-25" vertex="1">
          <mxGeometry x="51.2" y="40" width="147.61" height="40" as="geometry" />
        </mxCell>
        <mxCell id="85etgImM21U0zFLn9ePR-77" value="&lt;span style=&quot;color: rgba(0 , 0 , 0 , 0) ; font-family: monospace ; font-size: 0px&quot;&gt;%3CmxGraphModel%3E%3Croot%3E%3CmxCell%20id%3D%220%22%2F%3E%3CmxCell%20id%3D%221%22%20parent%3D%220%22%2F%3E%3CmxCell%20id%3D%222%22%20value%3D%22%26lt%3Bspan%20style%3D%26quot%3Bcolor%3A%20rgba(0%20%2C%200%20%2C%200%20%2C%200)%20%3B%20font-family%3A%20monospace%20%3B%20font-size%3A%200px%26quot%3B%26gt%3B%253CmxGraphModel%253E%253Croot%253E%253CmxCell%2520id%253D%25220%2522%252F%253E%253CmxCell%2520id%253D%25221%2522%2520parent%253D%25220%2522%252F%253E%253CmxCell%2520id%253D%25222%2522%2520value%253D%2522%2522%2520style%253D%2522rounded%253D1%253BwhiteSpace%253Dwrap%253Bhtml%253D1%253Bsketch%253D0%253BfontSize%253D20%253BfontColor%253D%25231D3557%253BstrokeColor%253D%2523457B9D%253BstrokeWidth%253D2%253BfillColor%253D%2523E8F0FC%253B%2522%2520vertex%253D%25221%2522%2520parent%253D%25221%2522%253E%253CmxGeometry%2520x%253D%2522370%2522%2520y%253D%2522860%2522%2520width%253D%2522144.13%2522%2520height%253D%252280%2522%2520as%253D%2522geometry%2522%252F%253E%253C%252FmxCell%253E%253CmxCell%2520id%253D%25223%2522%2520value%253D%2522%2526lt%253Bspan%2520style%253D%2526quot%253Bfont-size%253A%252013px%2526quot%253B%2526gt%253B%25EA%25B4%2580%25EB%25A6%25AC%25EC%259E%2590%2520%25EB%25A9%2594%25EC%259D%25B8%2520%25ED%258E%2598%25EC%259D%25B4%25EC%25A7%2580%2526lt%253Bbr%2526gt%253B%252Fadmin%252Fmain%2526lt%253Bbr%2526gt%253B%255BGET%255D%2526lt%253Bbr%2526gt%253B%2526lt%253B%252Fspan%2526gt%253B%2522%2520style%253D%2522text%253Bhtml%253D1%253BstrokeColor%253Dnone%253BfillColor%253Dnone%253Balign%253Dcenter%253BverticalAlign%253Dmiddle%253BwhiteSpace%253Dwrap%253Brounded%253D0%253Bsketch%253D0%253BfontSize%253D20%253BfontColor%253D%25231D3557%253BfontStyle%253D1%2522%2520vertex%253D%25221%2522%2520parent%253D%25221%2522%253E%253CmxGeometry%2520x%253D%2522374.79%2522%2520y%253D%2522880%2522%2520width%253D%2522134.56%2522%2520height%253D%252240%2522%2520as%253D%2522geometry%2522%252F%253E%253C%252FmxCell%253E%253C%252Froot%253E%253C%252FmxGraphModel%253E%26lt%3B%2Fspan%26gt%3B%22%20style%3D%22rounded%3D1%3BwhiteSpace%3Dwrap%3Bhtml%3D1%3Bsketch%3D0%3BfontSize%3D20%3BfontColor%3D%231D3557%3BstrokeColor%3D%23457B9D%3BstrokeWidth%3D2%3BfillColor%3D%23E8F0FC%3B%22%20vertex%3D%221%22%20parent%3D%221%22%3E%3CmxGeometry%20x%3D%22-347.06%22%20y%3D%221020%22%20width%3D%22184.13%22%20height%3D%2280%22%20as%3D%22geometry%22%2F%3E%3C%2FmxCell%3E%3C%2Froot%3E%3C%2FmxGraphModel%3E&lt;/span&gt;" style="rounded=1;whiteSpace=wrap;html=1;sketch=0;fontSize=20;fontColor=#1D3557;strokeColor=#457B9D;strokeWidth=2;fillColor=#E8F0FC;" parent="85etgImM21U0zFLn9ePR-25" vertex="1">
          <mxGeometry x="-70.76000000000005" y="249.00000000000003" width="209.13" height="80" as="geometry" />
        </mxCell>
        <mxCell id="85etgImM21U0zFLn9ePR-83" value="&lt;span style=&quot;font-size: 13px&quot;&gt;&lt;span style=&quot;font-weight: normal&quot;&gt;월별 회원 방문 통계&amp;nbsp;페이지&lt;br&gt;/admin/statistics/visitor_monthly&lt;br&gt;[GET]&lt;/span&gt;&lt;br&gt;&lt;/span&gt;" style="text;html=1;strokeColor=none;fillColor=none;align=center;verticalAlign=middle;whiteSpace=wrap;rounded=0;sketch=0;fontSize=20;fontColor=#1D3557;fontStyle=1" parent="85etgImM21U0zFLn9ePR-25" vertex="1">
          <mxGeometry x="-46.2000000000001" y="270" width="160" height="38" as="geometry" />
        </mxCell>
        <mxCell id="85etgImM21U0zFLn9ePR-133" value="기부금액 일별 통계 페이지&lt;br&gt;/admin/statistics/donation_daily&lt;br&gt;[GET]" style="text;html=1;strokeColor=none;fillColor=none;align=center;verticalAlign=middle;whiteSpace=wrap;rounded=0;sketch=0;fontSize=12;fontColor=#1D3557;" parent="85etgImM21U0zFLn9ePR-25" vertex="1">
          <mxGeometry x="-70.75999999999999" y="420" width="195" height="60" as="geometry" />
        </mxCell>
        <mxCell id="85etgImM21U0zFLn9ePR-24" value="" style="group" parent="85etgImM21U0zFLn9ePR-19" vertex="1" connectable="0">
          <mxGeometry x="510" y="220" width="230" height="580" as="geometry" />
        </mxCell>
        <mxCell id="85etgImM21U0zFLn9ePR-22" value="" style="rounded=0;whiteSpace=wrap;html=1;sketch=0;fontSize=15;fontColor=#1D3557;strokeColor=#457B9D;strokeWidth=1;fillColor=#FFFAF0;" parent="85etgImM21U0zFLn9ePR-24" vertex="1">
          <mxGeometry y="-20" width="230" height="580" as="geometry" />
        </mxCell>
        <mxCell id="85etgImM21U0zFLn9ePR-16" value="" style="rounded=1;whiteSpace=wrap;html=1;sketch=0;fontSize=20;fontColor=#1D3557;strokeColor=#457B9D;strokeWidth=2;fillColor=#E8F0FC;" parent="85etgImM21U0zFLn9ePR-24" vertex="1">
          <mxGeometry x="20" y="20" width="189.8024956597222" height="83.41" as="geometry" />
        </mxCell>
        <mxCell id="85etgImM21U0zFLn9ePR-23" value="회원관리" style="text;html=1;strokeColor=none;fillColor=none;align=center;verticalAlign=middle;whiteSpace=wrap;rounded=0;sketch=0;fontSize=15;fontColor=#1D3557;" parent="85etgImM21U0zFLn9ePR-24" vertex="1">
          <mxGeometry x="150" y="517.5609756097562" width="80" height="42.43902439024391" as="geometry" />
        </mxCell>
        <mxCell id="85etgImM21U0zFLn9ePR-45" value="" style="endArrow=classic;html=1;rounded=1;sketch=0;fontSize=15;fontColor=#1D3557;strokeColor=#457B9D;strokeWidth=1;fillColor=#A8DADC;curved=0;exitX=0.25;exitY=1;exitDx=0;exitDy=0;entryX=0.25;entryY=0;entryDx=0;entryDy=0;" parent="85etgImM21U0zFLn9ePR-24" source="85etgImM21U0zFLn9ePR-16" target="85etgImM21U0zFLn9ePR-40" edge="1">
          <mxGeometry width="50" height="50" relative="1" as="geometry">
            <mxPoint x="-130" y="190" as="sourcePoint" />
            <mxPoint x="67" y="160" as="targetPoint" />
          </mxGeometry>
        </mxCell>
        <mxCell id="85etgImM21U0zFLn9ePR-64" value="&lt;font style=&quot;font-size: 12px&quot;&gt;memberId&lt;/font&gt;" style="edgeLabel;html=1;align=center;verticalAlign=middle;resizable=0;points=[];fontSize=15;fontColor=#1D3557;" parent="85etgImM21U0zFLn9ePR-45" vertex="1" connectable="0">
          <mxGeometry x="-0.0958" y="1" relative="1" as="geometry">
            <mxPoint as="offset" />
          </mxGeometry>
        </mxCell>
        <mxCell id="85etgImM21U0zFLn9ePR-46" value="" style="endArrow=classic;html=1;rounded=1;sketch=0;fontSize=15;fontColor=#1D3557;strokeColor=#457B9D;strokeWidth=1;fillColor=#A8DADC;curved=0;exitX=0.25;exitY=1;exitDx=0;exitDy=0;entryX=0.25;entryY=0;entryDx=0;entryDy=0;" parent="85etgImM21U0zFLn9ePR-24" source="85etgImM21U0zFLn9ePR-40" target="85etgImM21U0zFLn9ePR-43" edge="1">
          <mxGeometry width="50" height="50" relative="1" as="geometry">
            <mxPoint x="-130" y="190" as="sourcePoint" />
            <mxPoint x="-80" y="140" as="targetPoint" />
          </mxGeometry>
        </mxCell>
        <mxCell id="85etgImM21U0zFLn9ePR-71" value="&lt;font style=&quot;font-size: 12px&quot;&gt;memberId&lt;br&gt;memberGrade&lt;/font&gt;" style="edgeLabel;html=1;align=center;verticalAlign=middle;resizable=0;points=[];fontSize=15;fontColor=#1D3557;" parent="85etgImM21U0zFLn9ePR-46" vertex="1" connectable="0">
          <mxGeometry x="-0.1137" y="1" relative="1" as="geometry">
            <mxPoint as="offset" />
          </mxGeometry>
        </mxCell>
        <mxCell id="85etgImM21U0zFLn9ePR-47" value="" style="endArrow=classic;html=1;rounded=1;sketch=0;fontSize=15;fontColor=#1D3557;strokeColor=#457B9D;strokeWidth=1;fillColor=#A8DADC;curved=0;exitX=0.75;exitY=0;exitDx=0;exitDy=0;entryX=0.75;entryY=1;entryDx=0;entryDy=0;" parent="85etgImM21U0zFLn9ePR-24" source="85etgImM21U0zFLn9ePR-43" target="85etgImM21U0zFLn9ePR-40" edge="1">
          <mxGeometry width="50" height="50" relative="1" as="geometry">
            <mxPoint x="-130" y="190" as="sourcePoint" />
            <mxPoint x="-80" y="140" as="targetPoint" />
          </mxGeometry>
        </mxCell>
        <mxCell id="85etgImM21U0zFLn9ePR-72" value="&lt;font style=&quot;font-size: 12px&quot;&gt;memberId&lt;/font&gt;" style="edgeLabel;html=1;align=center;verticalAlign=middle;resizable=0;points=[];fontSize=15;fontColor=#1D3557;" parent="85etgImM21U0zFLn9ePR-47" vertex="1" connectable="0">
          <mxGeometry x="0.1453" y="1" relative="1" as="geometry">
            <mxPoint x="1" as="offset" />
          </mxGeometry>
        </mxCell>
        <mxCell id="85etgImM21U0zFLn9ePR-48" value="" style="endArrow=classic;html=1;rounded=1;sketch=0;fontSize=15;fontColor=#1D3557;strokeColor=#457B9D;strokeWidth=1;fillColor=#A8DADC;curved=0;entryX=0.75;entryY=1;entryDx=0;entryDy=0;exitX=0.75;exitY=0;exitDx=0;exitDy=0;" parent="85etgImM21U0zFLn9ePR-24" source="85etgImM21U0zFLn9ePR-40" target="85etgImM21U0zFLn9ePR-16" edge="1">
          <mxGeometry width="50" height="50" relative="1" as="geometry">
            <mxPoint x="162" y="160" as="sourcePoint" />
            <mxPoint x="-80" y="140" as="targetPoint" />
          </mxGeometry>
        </mxCell>
        <mxCell id="85etgImM21U0zFLn9ePR-17" value="&lt;span style=&quot;font-size: 13px&quot;&gt;&lt;span style=&quot;font-weight: normal&quot;&gt;회원 목록&lt;br&gt;/admin/member/list&lt;br&gt;[GET]&lt;/span&gt;&lt;br&gt;&lt;/span&gt;" style="text;html=1;strokeColor=none;fillColor=none;align=center;verticalAlign=middle;whiteSpace=wrap;rounded=0;sketch=0;fontSize=20;fontColor=#1D3557;fontStyle=1" parent="85etgImM21U0zFLn9ePR-24" vertex="1">
          <mxGeometry x="44.95" y="32.61" width="140.1" height="58.19" as="geometry" />
        </mxCell>
        <mxCell id="85etgImM21U0zFLn9ePR-43" value="" style="rounded=1;whiteSpace=wrap;html=1;sketch=0;fontSize=20;strokeColor=#d79b00;strokeWidth=2;fillColor=#ffe6cc;" parent="85etgImM21U0zFLn9ePR-24" vertex="1">
          <mxGeometry x="20" y="437.56" width="190" height="80" as="geometry" />
        </mxCell>
        <mxCell id="85etgImM21U0zFLn9ePR-39" value="" style="group" parent="85etgImM21U0zFLn9ePR-24" vertex="1" connectable="0">
          <mxGeometry x="33" y="250.85" width="177" height="65.12" as="geometry" />
        </mxCell>
        <mxCell id="85etgImM21U0zFLn9ePR-40" value="" style="rounded=1;whiteSpace=wrap;html=1;sketch=0;fontSize=20;fontColor=#1D3557;strokeColor=#457B9D;strokeWidth=2;fillColor=#E8F0FC;" parent="85etgImM21U0zFLn9ePR-39" vertex="1">
          <mxGeometry x="-13" y="-20.85" width="190" height="80.85" as="geometry" />
        </mxCell>
        <mxCell id="85etgImM21U0zFLn9ePR-41" value="&lt;span style=&quot;font-size: 13px&quot;&gt;&lt;span style=&quot;font-weight: normal&quot;&gt;회원 상세&lt;br&gt;/admin/member/detail&lt;br&gt;[GET]&lt;/span&gt;&lt;br&gt;&lt;/span&gt;" style="text;html=1;strokeColor=none;fillColor=none;align=center;verticalAlign=middle;whiteSpace=wrap;rounded=0;sketch=0;fontSize=20;fontColor=#1D3557;fontStyle=1" parent="85etgImM21U0zFLn9ePR-39" vertex="1">
          <mxGeometry x="0.0031578947368418042" y="-0.0027874355592860667" width="161.2421052631579" height="40.36331375134876" as="geometry" />
        </mxCell>
        <mxCell id="85etgImM21U0zFLn9ePR-44" value="&lt;span style=&quot;font-size: 13px&quot;&gt;회원 등급 수정 처리&lt;br&gt;/admin/member/edit_grade&lt;br&gt;[POST]&lt;br&gt;&lt;/span&gt;" style="text;html=1;strokeColor=none;fillColor=none;align=center;verticalAlign=middle;whiteSpace=wrap;rounded=0;sketch=0;fontSize=20;fontColor=#1D3557;fontStyle=0" parent="85etgImM21U0zFLn9ePR-24" vertex="1">
          <mxGeometry x="29.9" y="452.55999999999995" width="170" height="50" as="geometry" />
        </mxCell>
        <mxCell id="85etgImM21U0zFLn9ePR-32" value="" style="endArrow=classic;html=1;rounded=1;sketch=0;fontSize=15;fontColor=#1D3557;strokeColor=#457B9D;strokeWidth=1;fillColor=#A8DADC;curved=0;exitX=0;exitY=0.5;exitDx=0;exitDy=0;entryX=0.5;entryY=0;entryDx=0;entryDy=0;" parent="85etgImM21U0zFLn9ePR-19" source="85etgImM21U0zFLn9ePR-8" target="85etgImM21U0zFLn9ePR-16" edge="1">
          <mxGeometry width="50" height="50" relative="1" as="geometry">
            <mxPoint x="380" y="310" as="sourcePoint" />
            <mxPoint x="625" y="250" as="targetPoint" />
            <Array as="points">
              <mxPoint x="625" y="100" />
            </Array>
          </mxGeometry>
        </mxCell>
        <mxCell id="85etgImM21U0zFLn9ePR-49" value="" style="endArrow=classic;html=1;rounded=1;sketch=0;fontSize=13;fontColor=#1D3557;strokeColor=#457B9D;strokeWidth=1;fillColor=#A8DADC;curved=0;exitX=1;exitY=0.5;exitDx=0;exitDy=0;entryX=0.75;entryY=1;entryDx=0;entryDy=0;" parent="85etgImM21U0zFLn9ePR-19" source="85etgImM21U0zFLn9ePR-40" target="85etgImM21U0zFLn9ePR-8" edge="1">
          <mxGeometry width="50" height="50" relative="1" as="geometry">
            <mxPoint x="380" y="390" as="sourcePoint" />
            <mxPoint x="430" y="340" as="targetPoint" />
            <Array as="points">
              <mxPoint x="778" y="490" />
            </Array>
          </mxGeometry>
        </mxCell>
        <mxCell id="85etgImM21U0zFLn9ePR-50" value="" style="endArrow=classic;html=1;rounded=1;sketch=0;fontSize=13;fontColor=#1D3557;strokeColor=#457B9D;strokeWidth=1;fillColor=#A8DADC;curved=0;exitX=1;exitY=0.5;exitDx=0;exitDy=0;entryX=0.75;entryY=1;entryDx=0;entryDy=0;" parent="85etgImM21U0zFLn9ePR-19" source="85etgImM21U0zFLn9ePR-16" target="85etgImM21U0zFLn9ePR-8" edge="1">
          <mxGeometry width="50" height="50" relative="1" as="geometry">
            <mxPoint x="380" y="390" as="sourcePoint" />
            <mxPoint x="430" y="340" as="targetPoint" />
            <Array as="points">
              <mxPoint x="778" y="282" />
            </Array>
          </mxGeometry>
        </mxCell>
        <mxCell id="85etgImM21U0zFLn9ePR-89" value="&lt;span style=&quot;font-weight: normal&quot;&gt;최근 7일 일별 방문자 수&lt;br&gt;/ajax/visitor_daily&lt;br&gt;[GET]&lt;/span&gt;" style="text;html=1;strokeColor=none;fillColor=none;align=center;verticalAlign=middle;whiteSpace=wrap;rounded=0;sketch=0;fontSize=12;fontColor=#1D3557;fontStyle=1" parent="85etgImM21U0zFLn9ePR-19" vertex="1">
          <mxGeometry x="19.999999999999986" y="252.5" width="131.85" height="55" as="geometry" />
        </mxCell>
        <mxCell id="85etgImM21U0zFLn9ePR-74" value="&lt;span style=&quot;color: rgba(0 , 0 , 0 , 0) ; font-family: monospace ; font-size: 0px&quot;&gt;%3CmxGraphModel%3E%3Croot%3E%3CmxCell%20id%3D%220%22%2F%3E%3CmxCell%20id%3D%221%22%20parent%3D%220%22%2F%3E%3CmxCell%20id%3D%222%22%20value%3D%22%26lt%3Bspan%20style%3D%26quot%3Bcolor%3A%20rgba(0%20%2C%200%20%2C%200%20%2C%200)%20%3B%20font-family%3A%20monospace%20%3B%20font-size%3A%200px%26quot%3B%26gt%3B%253CmxGraphModel%253E%253Croot%253E%253CmxCell%2520id%253D%25220%2522%252F%253E%253CmxCell%2520id%253D%25221%2522%2520parent%253D%25220%2522%252F%253E%253CmxCell%2520id%253D%25222%2522%2520value%253D%2522%2522%2520style%253D%2522rounded%253D1%253BwhiteSpace%253Dwrap%253Bhtml%253D1%253Bsketch%253D0%253BfontSize%253D20%253BfontColor%253D%25231D3557%253BstrokeColor%253D%2523457B9D%253BstrokeWidth%253D2%253BfillColor%253D%2523E8F0FC%253B%2522%2520vertex%253D%25221%2522%2520parent%253D%25221%2522%253E%253CmxGeometry%2520x%253D%2522370%2522%2520y%253D%2522860%2522%2520width%253D%2522144.13%2522%2520height%253D%252280%2522%2520as%253D%2522geometry%2522%252F%253E%253C%252FmxCell%253E%253CmxCell%2520id%253D%25223%2522%2520value%253D%2522%2526lt%253Bspan%2520style%253D%2526quot%253Bfont-size%253A%252013px%2526quot%253B%2526gt%253B%25EA%25B4%2580%25EB%25A6%25AC%25EC%259E%2590%2520%25EB%25A9%2594%25EC%259D%25B8%2520%25ED%258E%2598%25EC%259D%25B4%25EC%25A7%2580%2526lt%253Bbr%2526gt%253B%252Fadmin%252Fmain%2526lt%253Bbr%2526gt%253B%255BGET%255D%2526lt%253Bbr%2526gt%253B%2526lt%253B%252Fspan%2526gt%253B%2522%2520style%253D%2522text%253Bhtml%253D1%253BstrokeColor%253Dnone%253BfillColor%253Dnone%253Balign%253Dcenter%253BverticalAlign%253Dmiddle%253BwhiteSpace%253Dwrap%253Brounded%253D0%253Bsketch%253D0%253BfontSize%253D20%253BfontColor%253D%25231D3557%253BfontStyle%253D1%2522%2520vertex%253D%25221%2522%2520parent%253D%25221%2522%253E%253CmxGeometry%2520x%253D%2522374.79%2522%2520y%253D%2522880%2522%2520width%253D%2522134.56%2522%2520height%253D%252240%2522%2520as%253D%2522geometry%2522%252F%253E%253C%252FmxCell%253E%253C%252Froot%253E%253C%252FmxGraphModel%253E%26lt%3B%2Fspan%26gt%3B%22%20style%3D%22rounded%3D1%3BwhiteSpace%3Dwrap%3Bhtml%3D1%3Bsketch%3D0%3BfontSize%3D20%3BfontColor%3D%231D3557%3BstrokeColor%3D%23457B9D%3BstrokeWidth%3D2%3BfillColor%3D%23E8F0FC%3B%22%20vertex%3D%221%22%20parent%3D%221%22%3E%3CmxGeometry%20x%3D%22-347.06%22%20y%3D%221020%22%20width%3D%22184.13%22%20height%3D%2280%22%20as%3D%22geometry%22%2F%3E%3C%2FmxCell%3E%3C%2Froot%3E%3C%2FmxGraphModel%3E&lt;/span&gt;" style="rounded=1;whiteSpace=wrap;html=1;sketch=0;fontSize=20;fontColor=#1D3557;strokeColor=#457B9D;strokeWidth=2;fillColor=#E8F0FC;" parent="85etgImM21U0zFLn9ePR-19" vertex="1">
          <mxGeometry x="80" y="80" width="184.13" height="80" as="geometry" />
        </mxCell>
        <mxCell id="85etgImM21U0zFLn9ePR-112" value="&lt;span style=&quot;color: rgba(0 , 0 , 0 , 0) ; font-family: monospace ; font-size: 0px&quot;&gt;%3CmxGraphModel%3E%3Croot%3E%3CmxCell%20id%3D%220%22%2F%3E%3CmxCell%20id%3D%221%22%20parent%3D%220%22%2F%3E%3CmxCell%20id%3D%222%22%20value%3D%22%26lt%3Bspan%20style%3D%26quot%3Bcolor%3A%20rgba(0%20%2C%200%20%2C%200%20%2C%200)%20%3B%20font-family%3A%20monospace%20%3B%20font-size%3A%200px%26quot%3B%26gt%3B%253CmxGraphModel%253E%253Croot%253E%253CmxCell%2520id%253D%25220%2522%252F%253E%253CmxCell%2520id%253D%25221%2522%2520parent%253D%25220%2522%252F%253E%253CmxCell%2520id%253D%25222%2522%2520value%253D%2522%2522%2520style%253D%2522rounded%253D1%253BwhiteSpace%253Dwrap%253Bhtml%253D1%253Bsketch%253D0%253BfontSize%253D20%253BfontColor%253D%25231D3557%253BstrokeColor%253D%2523457B9D%253BstrokeWidth%253D2%253BfillColor%253D%2523E8F0FC%253B%2522%2520vertex%253D%25221%2522%2520parent%253D%25221%2522%253E%253CmxGeometry%2520x%253D%2522370%2522%2520y%253D%2522860%2522%2520width%253D%2522144.13%2522%2520height%253D%252280%2522%2520as%253D%2522geometry%2522%252F%253E%253C%252FmxCell%253E%253CmxCell%2520id%253D%25223%2522%2520value%253D%2522%2526lt%253Bspan%2520style%253D%2526quot%253Bfont-size%253A%252013px%2526quot%253B%2526gt%253B%25EA%25B4%2580%25EB%25A6%25AC%25EC%259E%2590%2520%25EB%25A9%2594%25EC%259D%25B8%2520%25ED%258E%2598%25EC%259D%25B4%25EC%25A7%2580%2526lt%253Bbr%2526gt%253B%252Fadmin%252Fmain%2526lt%253Bbr%2526gt%253B%255BGET%255D%2526lt%253Bbr%2526gt%253B%2526lt%253B%252Fspan%2526gt%253B%2522%2520style%253D%2522text%253Bhtml%253D1%253BstrokeColor%253Dnone%253BfillColor%253Dnone%253Balign%253Dcenter%253BverticalAlign%253Dmiddle%253BwhiteSpace%253Dwrap%253Brounded%253D0%253Bsketch%253D0%253BfontSize%253D20%253BfontColor%253D%25231D3557%253BfontStyle%253D1%2522%2520vertex%253D%25221%2522%2520parent%253D%25221%2522%253E%253CmxGeometry%2520x%253D%2522374.79%2522%2520y%253D%2522880%2522%2520width%253D%2522134.56%2522%2520height%253D%252240%2522%2520as%253D%2522geometry%2522%252F%253E%253C%252FmxCell%253E%253C%252Froot%253E%253C%252FmxGraphModel%253E%26lt%3B%2Fspan%26gt%3B%22%20style%3D%22rounded%3D1%3BwhiteSpace%3Dwrap%3Bhtml%3D1%3Bsketch%3D0%3BfontSize%3D20%3BfontColor%3D%231D3557%3BstrokeColor%3D%23457B9D%3BstrokeWidth%3D2%3BfillColor%3D%23E8F0FC%3B%22%20vertex%3D%221%22%20parent%3D%221%22%3E%3CmxGeometry%20x%3D%22-347.06%22%20y%3D%221020%22%20width%3D%22184.13%22%20height%3D%2280%22%20as%3D%22geometry%22%2F%3E%3C%2FmxCell%3E%3C%2Froot%3E%3C%2FmxGraphModel%3E&lt;/span&gt;" style="rounded=1;whiteSpace=wrap;html=1;sketch=0;fontSize=20;strokeColor=#d79b00;strokeWidth=2;fillColor=#ffe6cc;" parent="85etgImM21U0zFLn9ePR-19" vertex="1">
          <mxGeometry x="-75" y="570" width="155" height="80" as="geometry" />
        </mxCell>
        <mxCell id="COgYv8JIRqIL7-lJRIyB-32" value="최근 7일 일별 일시기부금액&lt;br&gt;/ajax/donation_daily&lt;br&gt;[GET]" style="text;html=1;strokeColor=none;fillColor=none;align=center;verticalAlign=middle;whiteSpace=wrap;rounded=0;sketch=0;fontSize=12;fontColor=#1D3557;" parent="85etgImM21U0zFLn9ePR-19" vertex="1">
          <mxGeometry x="-80" y="580" width="160" height="60" as="geometry" />
        </mxCell>
        <mxCell id="QMKBq2frlUEZXYPOAQRA-6" value="" style="endArrow=classic;html=1;rounded=1;sketch=0;fontSize=15;fontColor=#1D3557;strokeColor=#457B9D;strokeWidth=1;fillColor=#A8DADC;curved=0;entryX=0.5;entryY=1;entryDx=0;entryDy=0;exitX=0;exitY=0.5;exitDx=0;exitDy=0;" parent="85etgImM21U0zFLn9ePR-19" source="85etgImM21U0zFLn9ePR-133" target="85etgImM21U0zFLn9ePR-112" edge="1">
          <mxGeometry width="50" height="50" relative="1" as="geometry">
            <mxPoint x="40.15000000000009" y="796.5900000000001" as="sourcePoint" />
            <mxPoint x="40.001871744791515" y="670" as="targetPoint" />
            <Array as="points">
              <mxPoint x="3" y="670" />
            </Array>
          </mxGeometry>
        </mxCell>
        <mxCell id="QMKBq2frlUEZXYPOAQRA-12" value="" style="endArrow=classic;html=1;rounded=1;sketch=0;fontSize=15;fontColor=#1D3557;strokeColor=#457B9D;strokeWidth=1;fillColor=#A8DADC;curved=0;entryX=0;entryY=0.25;entryDx=0;entryDy=0;exitX=0.5;exitY=0;exitDx=0;exitDy=0;" parent="85etgImM21U0zFLn9ePR-19" source="85etgImM21U0zFLn9ePR-112" target="85etgImM21U0zFLn9ePR-133" edge="1">
          <mxGeometry width="50" height="50" relative="1" as="geometry">
            <mxPoint x="90.15000000000009" y="846.5900000000001" as="sourcePoint" />
            <mxPoint x="90.00187174479152" y="720" as="targetPoint" />
            <Array as="points">
              <mxPoint x="3" y="530" />
              <mxPoint x="110" y="530" />
              <mxPoint x="110" y="655" />
            </Array>
          </mxGeometry>
        </mxCell>
        <mxCell id="85etgImM21U0zFLn9ePR-59" value="" style="endArrow=classic;html=1;rounded=1;sketch=0;fontSize=15;fontColor=#1D3557;strokeColor=#457B9D;strokeWidth=1;fillColor=#A8DADC;curved=0;entryX=0.5;entryY=0;entryDx=0;entryDy=0;exitX=0;exitY=0.5;exitDx=0;exitDy=0;" parent="1" source="85etgImM21U0zFLn9ePR-11" target="85etgImM21U0zFLn9ePR-57" edge="1">
          <mxGeometry width="50" height="50" relative="1" as="geometry">
            <mxPoint x="160" y="870" as="sourcePoint" />
            <mxPoint x="-80" y="1110" as="targetPoint" />
            <Array as="points">
              <mxPoint x="-140" y="870" />
            </Array>
          </mxGeometry>
        </mxCell>
        <mxCell id="85etgImM21U0zFLn9ePR-91" value="&lt;span style=&quot;color: rgba(0 , 0 , 0 , 0) ; font-family: monospace ; font-size: 0px&quot;&gt;%3CmxGraphModel%3E%3Croot%3E%3CmxCell%20id%3D%220%22%2F%3E%3CmxCell%20id%3D%221%22%20parent%3D%220%22%2F%3E%3CmxCell%20id%3D%222%22%20value%3D%22%26lt%3Bspan%20style%3D%26quot%3Bcolor%3A%20rgba(0%20%2C%200%20%2C%200%20%2C%200)%20%3B%20font-family%3A%20monospace%20%3B%20font-size%3A%200px%26quot%3B%26gt%3B%253CmxGraphModel%253E%253Croot%253E%253CmxCell%2520id%253D%25220%2522%252F%253E%253CmxCell%2520id%253D%25221%2522%2520parent%253D%25220%2522%252F%253E%253CmxCell%2520id%253D%25222%2522%2520value%253D%2522%2522%2520style%253D%2522rounded%253D1%253BwhiteSpace%253Dwrap%253Bhtml%253D1%253Bsketch%253D0%253BfontSize%253D20%253BfontColor%253D%25231D3557%253BstrokeColor%253D%2523457B9D%253BstrokeWidth%253D2%253BfillColor%253D%2523E8F0FC%253B%2522%2520vertex%253D%25221%2522%2520parent%253D%25221%2522%253E%253CmxGeometry%2520x%253D%2522370%2522%2520y%253D%2522860%2522%2520width%253D%2522144.13%2522%2520height%253D%252280%2522%2520as%253D%2522geometry%2522%252F%253E%253C%252FmxCell%253E%253CmxCell%2520id%253D%25223%2522%2520value%253D%2522%2526lt%253Bspan%2520style%253D%2526quot%253Bfont-size%253A%252013px%2526quot%253B%2526gt%253B%25EA%25B4%2580%25EB%25A6%25AC%25EC%259E%2590%2520%25EB%25A9%2594%25EC%259D%25B8%2520%25ED%258E%2598%25EC%259D%25B4%25EC%25A7%2580%2526lt%253Bbr%2526gt%253B%252Fadmin%252Fmain%2526lt%253Bbr%2526gt%253B%255BGET%255D%2526lt%253Bbr%2526gt%253B%2526lt%253B%252Fspan%2526gt%253B%2522%2520style%253D%2522text%253Bhtml%253D1%253BstrokeColor%253Dnone%253BfillColor%253Dnone%253Balign%253Dcenter%253BverticalAlign%253Dmiddle%253BwhiteSpace%253Dwrap%253Brounded%253D0%253Bsketch%253D0%253BfontSize%253D20%253BfontColor%253D%25231D3557%253BfontStyle%253D1%2522%2520vertex%253D%25221%2522%2520parent%253D%25221%2522%253E%253CmxGeometry%2520x%253D%2522374.79%2522%2520y%253D%2522880%2522%2520width%253D%2522134.56%2522%2520height%253D%252240%2522%2520as%253D%2522geometry%2522%252F%253E%253C%252FmxCell%253E%253C%252Froot%253E%253C%252FmxGraphModel%253E%26lt%3B%2Fspan%26gt%3B%22%20style%3D%22rounded%3D1%3BwhiteSpace%3Dwrap%3Bhtml%3D1%3Bsketch%3D0%3BfontSize%3D20%3BfontColor%3D%231D3557%3BstrokeColor%3D%23457B9D%3BstrokeWidth%3D2%3BfillColor%3D%23E8F0FC%3B%22%20vertex%3D%221%22%20parent%3D%221%22%3E%3CmxGeometry%20x%3D%22-347.06%22%20y%3D%221020%22%20width%3D%22184.13%22%20height%3D%2280%22%20as%3D%22geometry%22%2F%3E%3C%2FmxCell%3E%3C%2Froot%3E%3C%2FmxGraphModel%3E&lt;/span&gt;" style="rounded=1;whiteSpace=wrap;html=1;sketch=0;fontSize=20;fontColor=#1D3557;strokeColor=#457B9D;strokeWidth=2;fillColor=#E8F0FC;" parent="1" vertex="1">
          <mxGeometry x="-710" y="870" width="209.13" height="80" as="geometry" />
        </mxCell>
        <mxCell id="85etgImM21U0zFLn9ePR-92" value="&lt;span style=&quot;color: rgba(0 , 0 , 0 , 0) ; font-family: monospace ; font-size: 0px&quot;&gt;%3CmxGraphModel%3E%3Croot%3E%3CmxCell%20id%3D%220%22%2F%3E%3CmxCell%20id%3D%221%22%20parent%3D%220%22%2F%3E%3CmxCell%20id%3D%222%22%20value%3D%22%26lt%3Bspan%20style%3D%26quot%3Bcolor%3A%20rgba(0%20%2C%200%20%2C%200%20%2C%200)%20%3B%20font-family%3A%20monospace%20%3B%20font-size%3A%200px%26quot%3B%26gt%3B%253CmxGraphModel%253E%253Croot%253E%253CmxCell%2520id%253D%25220%2522%252F%253E%253CmxCell%2520id%253D%25221%2522%2520parent%253D%25220%2522%252F%253E%253CmxCell%2520id%253D%25222%2522%2520value%253D%2522%2522%2520style%253D%2522rounded%253D1%253BwhiteSpace%253Dwrap%253Bhtml%253D1%253Bsketch%253D0%253BfontSize%253D20%253BfontColor%253D%25231D3557%253BstrokeColor%253D%2523457B9D%253BstrokeWidth%253D2%253BfillColor%253D%2523E8F0FC%253B%2522%2520vertex%253D%25221%2522%2520parent%253D%25221%2522%253E%253CmxGeometry%2520x%253D%2522370%2522%2520y%253D%2522860%2522%2520width%253D%2522144.13%2522%2520height%253D%252280%2522%2520as%253D%2522geometry%2522%252F%253E%253C%252FmxCell%253E%253CmxCell%2520id%253D%25223%2522%2520value%253D%2522%2526lt%253Bspan%2520style%253D%2526quot%253Bfont-size%253A%252013px%2526quot%253B%2526gt%253B%25EA%25B4%2580%25EB%25A6%25AC%25EC%259E%2590%2520%25EB%25A9%2594%25EC%259D%25B8%2520%25ED%258E%2598%25EC%259D%25B4%25EC%25A7%2580%2526lt%253Bbr%2526gt%253B%252Fadmin%252Fmain%2526lt%253Bbr%2526gt%253B%255BGET%255D%2526lt%253Bbr%2526gt%253B%2526lt%253B%252Fspan%2526gt%253B%2522%2520style%253D%2522text%253Bhtml%253D1%253BstrokeColor%253Dnone%253BfillColor%253Dnone%253Balign%253Dcenter%253BverticalAlign%253Dmiddle%253BwhiteSpace%253Dwrap%253Brounded%253D0%253Bsketch%253D0%253BfontSize%253D20%253BfontColor%253D%25231D3557%253BfontStyle%253D1%2522%2520vertex%253D%25221%2522%2520parent%253D%25221%2522%253E%253CmxGeometry%2520x%253D%2522374.79%2522%2520y%253D%2522880%2522%2520width%253D%2522134.56%2522%2520height%253D%252240%2522%2520as%253D%2522geometry%2522%252F%253E%253C%252FmxCell%253E%253C%252Froot%253E%253C%252FmxGraphModel%253E%26lt%3B%2Fspan%26gt%3B%22%20style%3D%22rounded%3D1%3BwhiteSpace%3Dwrap%3Bhtml%3D1%3Bsketch%3D0%3BfontSize%3D20%3BfontColor%3D%231D3557%3BstrokeColor%3D%23457B9D%3BstrokeWidth%3D2%3BfillColor%3D%23E8F0FC%3B%22%20vertex%3D%221%22%20parent%3D%221%22%3E%3CmxGeometry%20x%3D%22-347.06%22%20y%3D%221020%22%20width%3D%22184.13%22%20height%3D%2280%22%20as%3D%22geometry%22%2F%3E%3C%2FmxCell%3E%3C%2Froot%3E%3C%2FmxGraphModel%3E&lt;/span&gt;" style="rounded=1;whiteSpace=wrap;html=1;sketch=0;fontSize=20;fontColor=#1D3557;strokeColor=#457B9D;strokeWidth=2;fillColor=#E8F0FC;" parent="1" vertex="1">
          <mxGeometry x="-700" y="890" width="209.13" height="80" as="geometry" />
        </mxCell>
        <mxCell id="85etgImM21U0zFLn9ePR-93" value="&lt;span style=&quot;color: rgba(0 , 0 , 0 , 0) ; font-family: monospace ; font-size: 0px&quot;&gt;%3CmxGraphModel%3E%3Croot%3E%3CmxCell%20id%3D%220%22%2F%3E%3CmxCell%20id%3D%221%22%20parent%3D%220%22%2F%3E%3CmxCell%20id%3D%222%22%20value%3D%22%26lt%3Bspan%20style%3D%26quot%3Bcolor%3A%20rgba(0%20%2C%200%20%2C%200%20%2C%200)%20%3B%20font-family%3A%20monospace%20%3B%20font-size%3A%200px%26quot%3B%26gt%3B%253CmxGraphModel%253E%253Croot%253E%253CmxCell%2520id%253D%25220%2522%252F%253E%253CmxCell%2520id%253D%25221%2522%2520parent%253D%25220%2522%252F%253E%253CmxCell%2520id%253D%25222%2522%2520value%253D%2522%2522%2520style%253D%2522rounded%253D1%253BwhiteSpace%253Dwrap%253Bhtml%253D1%253Bsketch%253D0%253BfontSize%253D20%253BfontColor%253D%25231D3557%253BstrokeColor%253D%2523457B9D%253BstrokeWidth%253D2%253BfillColor%253D%2523E8F0FC%253B%2522%2520vertex%253D%25221%2522%2520parent%253D%25221%2522%253E%253CmxGeometry%2520x%253D%2522370%2522%2520y%253D%2522860%2522%2520width%253D%2522144.13%2522%2520height%253D%252280%2522%2520as%253D%2522geometry%2522%252F%253E%253C%252FmxCell%253E%253CmxCell%2520id%253D%25223%2522%2520value%253D%2522%2526lt%253Bspan%2520style%253D%2526quot%253Bfont-size%253A%252013px%2526quot%253B%2526gt%253B%25EA%25B4%2580%25EB%25A6%25AC%25EC%259E%2590%2520%25EB%25A9%2594%25EC%259D%25B8%2520%25ED%258E%2598%25EC%259D%25B4%25EC%25A7%2580%2526lt%253Bbr%2526gt%253B%252Fadmin%252Fmain%2526lt%253Bbr%2526gt%253B%255BGET%255D%2526lt%253Bbr%2526gt%253B%2526lt%253B%252Fspan%2526gt%253B%2522%2520style%253D%2522text%253Bhtml%253D1%253BstrokeColor%253Dnone%253BfillColor%253Dnone%253Balign%253Dcenter%253BverticalAlign%253Dmiddle%253BwhiteSpace%253Dwrap%253Brounded%253D0%253Bsketch%253D0%253BfontSize%253D20%253BfontColor%253D%25231D3557%253BfontStyle%253D1%2522%2520vertex%253D%25221%2522%2520parent%253D%25221%2522%253E%253CmxGeometry%2520x%253D%2522374.79%2522%2520y%253D%2522880%2522%2520width%253D%2522134.56%2522%2520height%253D%252240%2522%2520as%253D%2522geometry%2522%252F%253E%253C%252FmxCell%253E%253C%252Froot%253E%253C%252FmxGraphModel%253E%26lt%3B%2Fspan%26gt%3B%22%20style%3D%22rounded%3D1%3BwhiteSpace%3Dwrap%3Bhtml%3D1%3Bsketch%3D0%3BfontSize%3D20%3BfontColor%3D%231D3557%3BstrokeColor%3D%23457B9D%3BstrokeWidth%3D2%3BfillColor%3D%23E8F0FC%3B%22%20vertex%3D%221%22%20parent%3D%221%22%3E%3CmxGeometry%20x%3D%22-347.06%22%20y%3D%221020%22%20width%3D%22184.13%22%20height%3D%2280%22%20as%3D%22geometry%22%2F%3E%3C%2FmxCell%3E%3C%2Froot%3E%3C%2FmxGraphModel%3E&lt;/span&gt;" style="rounded=1;whiteSpace=wrap;html=1;sketch=0;fontSize=20;fontColor=#1D3557;strokeColor=#457B9D;strokeWidth=2;fillColor=#E8F0FC;" parent="1" vertex="1">
          <mxGeometry x="-890" y="870" width="209.13" height="80" as="geometry" />
        </mxCell>
        <mxCell id="85etgImM21U0zFLn9ePR-102" value="" style="endArrow=classic;html=1;rounded=1;sketch=0;fontSize=12;fontColor=#1D3557;strokeColor=#457B9D;strokeWidth=1;fillColor=#A8DADC;curved=0;exitX=0.5;exitY=0;exitDx=0;exitDy=0;entryX=0.25;entryY=0;entryDx=0;entryDy=0;" parent="1" source="85etgImM21U0zFLn9ePR-78" target="85etgImM21U0zFLn9ePR-73" edge="1">
          <mxGeometry width="50" height="50" relative="1" as="geometry">
            <mxPoint x="-510" y="1110" as="sourcePoint" />
            <mxPoint x="-460" y="1060" as="targetPoint" />
            <Array as="points">
              <mxPoint x="-423" y="980" />
              <mxPoint x="-278" y="980" />
            </Array>
          </mxGeometry>
        </mxCell>
        <mxCell id="85etgImM21U0zFLn9ePR-103" value="ChartVO" style="edgeLabel;html=1;align=center;verticalAlign=middle;resizable=0;points=[];fontSize=12;fontColor=#1D3557;" parent="85etgImM21U0zFLn9ePR-102" vertex="1" connectable="0">
          <mxGeometry x="-0.1243" y="1" relative="1" as="geometry">
            <mxPoint as="offset" />
          </mxGeometry>
        </mxCell>
        <mxCell id="85etgImM21U0zFLn9ePR-99" value="" style="endArrow=classic;html=1;rounded=1;sketch=0;fontSize=12;fontColor=#1D3557;strokeColor=#457B9D;strokeWidth=1;fillColor=#A8DADC;curved=0;exitX=0;exitY=0.25;exitDx=0;exitDy=0;entryX=0.5;entryY=1;entryDx=0;entryDy=0;" parent="1" source="85etgImM21U0zFLn9ePR-73" target="85etgImM21U0zFLn9ePR-78" edge="1">
          <mxGeometry width="50" height="50" relative="1" as="geometry">
            <mxPoint x="-510" y="1260" as="sourcePoint" />
            <mxPoint x="-460" y="1210" as="targetPoint" />
            <Array as="points">
              <mxPoint x="-423" y="1130" />
            </Array>
          </mxGeometry>
        </mxCell>
        <mxCell id="85etgImM21U0zFLn9ePR-79" value="&lt;span style=&quot;color: rgba(0 , 0 , 0 , 0) ; font-family: monospace ; font-size: 0px&quot;&gt;%3CmxGraphModel%3E%3Croot%3E%3CmxCell%20id%3D%220%22%2F%3E%3CmxCell%20id%3D%221%22%20parent%3D%220%22%2F%3E%3CmxCell%20id%3D%222%22%20value%3D%22%26lt%3Bspan%20style%3D%26quot%3Bcolor%3A%20rgba(0%20%2C%200%20%2C%200%20%2C%200)%20%3B%20font-family%3A%20monospace%20%3B%20font-size%3A%200px%26quot%3B%26gt%3B%253CmxGraphModel%253E%253Croot%253E%253CmxCell%2520id%253D%25220%2522%252F%253E%253CmxCell%2520id%253D%25221%2522%2520parent%253D%25220%2522%252F%253E%253CmxCell%2520id%253D%25222%2522%2520value%253D%2522%2522%2520style%253D%2522rounded%253D1%253BwhiteSpace%253Dwrap%253Bhtml%253D1%253Bsketch%253D0%253BfontSize%253D20%253BfontColor%253D%25231D3557%253BstrokeColor%253D%2523457B9D%253BstrokeWidth%253D2%253BfillColor%253D%2523E8F0FC%253B%2522%2520vertex%253D%25221%2522%2520parent%253D%25221%2522%253E%253CmxGeometry%2520x%253D%2522370%2522%2520y%253D%2522860%2522%2520width%253D%2522144.13%2522%2520height%253D%252280%2522%2520as%253D%2522geometry%2522%252F%253E%253C%252FmxCell%253E%253CmxCell%2520id%253D%25223%2522%2520value%253D%2522%2526lt%253Bspan%2520style%253D%2526quot%253Bfont-size%253A%252013px%2526quot%253B%2526gt%253B%25EA%25B4%2580%25EB%25A6%25AC%25EC%259E%2590%2520%25EB%25A9%2594%25EC%259D%25B8%2520%25ED%258E%2598%25EC%259D%25B4%25EC%25A7%2580%2526lt%253Bbr%2526gt%253B%252Fadmin%252Fmain%2526lt%253Bbr%2526gt%253B%255BGET%255D%2526lt%253Bbr%2526gt%253B%2526lt%253B%252Fspan%2526gt%253B%2522%2520style%253D%2522text%253Bhtml%253D1%253BstrokeColor%253Dnone%253BfillColor%253Dnone%253Balign%253Dcenter%253BverticalAlign%253Dmiddle%253BwhiteSpace%253Dwrap%253Brounded%253D0%253Bsketch%253D0%253BfontSize%253D20%253BfontColor%253D%25231D3557%253BfontStyle%253D1%2522%2520vertex%253D%25221%2522%2520parent%253D%25221%2522%253E%253CmxGeometry%2520x%253D%2522374.79%2522%2520y%253D%2522880%2522%2520width%253D%2522134.56%2522%2520height%253D%252240%2522%2520as%253D%2522geometry%2522%252F%253E%253C%252FmxCell%253E%253C%252Froot%253E%253C%252FmxGraphModel%253E%26lt%3B%2Fspan%26gt%3B%22%20style%3D%22rounded%3D1%3BwhiteSpace%3Dwrap%3Bhtml%3D1%3Bsketch%3D0%3BfontSize%3D20%3BfontColor%3D%231D3557%3BstrokeColor%3D%23457B9D%3BstrokeWidth%3D2%3BfillColor%3D%23E8F0FC%3B%22%20vertex%3D%221%22%20parent%3D%221%22%3E%3CmxGeometry%20x%3D%22-347.06%22%20y%3D%221020%22%20width%3D%22184.13%22%20height%3D%2280%22%20as%3D%22geometry%22%2F%3E%3C%2FmxCell%3E%3C%2Froot%3E%3C%2FmxGraphModel%3E&lt;/span&gt;" style="rounded=1;whiteSpace=wrap;html=1;sketch=0;fontSize=20;strokeColor=#d79b00;strokeWidth=2;fillColor=#ffe6cc;" parent="1" vertex="1">
          <mxGeometry x="-660" y="1010" width="150" height="80" as="geometry" />
        </mxCell>
        <mxCell id="85etgImM21U0zFLn9ePR-100" value="" style="endArrow=classic;html=1;rounded=1;sketch=0;fontSize=12;fontColor=#1D3557;strokeColor=#457B9D;strokeWidth=1;fillColor=#A8DADC;curved=0;exitX=0;exitY=0.25;exitDx=0;exitDy=0;entryX=0.5;entryY=1;entryDx=0;entryDy=0;" parent="1" source="85etgImM21U0zFLn9ePR-73" target="85etgImM21U0zFLn9ePR-79" edge="1">
          <mxGeometry width="50" height="50" relative="1" as="geometry">
            <mxPoint x="-510" y="1260" as="sourcePoint" />
            <mxPoint x="-460" y="1210" as="targetPoint" />
            <Array as="points">
              <mxPoint x="-585" y="1130" />
            </Array>
          </mxGeometry>
        </mxCell>
        <mxCell id="85etgImM21U0zFLn9ePR-101" value="" style="endArrow=classic;html=1;rounded=1;sketch=0;fontSize=12;fontColor=#1D3557;strokeColor=#457B9D;strokeWidth=1;fillColor=#A8DADC;curved=0;exitX=0.5;exitY=0;exitDx=0;exitDy=0;entryX=0.25;entryY=0;entryDx=0;entryDy=0;" parent="1" source="85etgImM21U0zFLn9ePR-79" target="85etgImM21U0zFLn9ePR-73" edge="1">
          <mxGeometry width="50" height="50" relative="1" as="geometry">
            <mxPoint x="-510" y="1110" as="sourcePoint" />
            <mxPoint x="-460" y="1060" as="targetPoint" />
            <Array as="points">
              <mxPoint x="-585" y="980" />
              <mxPoint x="-278" y="980" />
            </Array>
          </mxGeometry>
        </mxCell>
        <mxCell id="85etgImM21U0zFLn9ePR-98" value="&lt;span style=&quot;font-weight: normal&quot;&gt;이번달 일별 방문자 수&lt;br&gt;/ajax/this_month_daily&lt;br&gt;[GET]&lt;/span&gt;" style="text;html=1;strokeColor=none;fillColor=none;align=center;verticalAlign=middle;whiteSpace=wrap;rounded=0;sketch=0;fontSize=12;fontColor=#1D3557;fontStyle=1" parent="1" vertex="1">
          <mxGeometry x="-655.87" y="1022.5" width="135.87" height="57.5" as="geometry" />
        </mxCell>
        <mxCell id="85etgImM21U0zFLn9ePR-76" value="&lt;span style=&quot;color: rgba(0 , 0 , 0 , 0) ; font-family: monospace ; font-size: 0px&quot;&gt;%3CmxGraphModel%3E%3Croot%3E%3CmxCell%20id%3D%220%22%2F%3E%3CmxCell%20id%3D%221%22%20parent%3D%220%22%2F%3E%3CmxCell%20id%3D%222%22%20value%3D%22%26lt%3Bspan%20style%3D%26quot%3Bcolor%3A%20rgba(0%20%2C%200%20%2C%200%20%2C%200)%20%3B%20font-family%3A%20monospace%20%3B%20font-size%3A%200px%26quot%3B%26gt%3B%253CmxGraphModel%253E%253Croot%253E%253CmxCell%2520id%253D%25220%2522%252F%253E%253CmxCell%2520id%253D%25221%2522%2520parent%253D%25220%2522%252F%253E%253CmxCell%2520id%253D%25222%2522%2520value%253D%2522%2522%2520style%253D%2522rounded%253D1%253BwhiteSpace%253Dwrap%253Bhtml%253D1%253Bsketch%253D0%253BfontSize%253D20%253BfontColor%253D%25231D3557%253BstrokeColor%253D%2523457B9D%253BstrokeWidth%253D2%253BfillColor%253D%2523E8F0FC%253B%2522%2520vertex%253D%25221%2522%2520parent%253D%25221%2522%253E%253CmxGeometry%2520x%253D%2522370%2522%2520y%253D%2522860%2522%2520width%253D%2522144.13%2522%2520height%253D%252280%2522%2520as%253D%2522geometry%2522%252F%253E%253C%252FmxCell%253E%253CmxCell%2520id%253D%25223%2522%2520value%253D%2522%2526lt%253Bspan%2520style%253D%2526quot%253Bfont-size%253A%252013px%2526quot%253B%2526gt%253B%25EA%25B4%2580%25EB%25A6%25AC%25EC%259E%2590%2520%25EB%25A9%2594%25EC%259D%25B8%2520%25ED%258E%2598%25EC%259D%25B4%25EC%25A7%2580%2526lt%253Bbr%2526gt%253B%252Fadmin%252Fmain%2526lt%253Bbr%2526gt%253B%255BGET%255D%2526lt%253Bbr%2526gt%253B%2526lt%253B%252Fspan%2526gt%253B%2522%2520style%253D%2522text%253Bhtml%253D1%253BstrokeColor%253Dnone%253BfillColor%253Dnone%253Balign%253Dcenter%253BverticalAlign%253Dmiddle%253BwhiteSpace%253Dwrap%253Brounded%253D0%253Bsketch%253D0%253BfontSize%253D20%253BfontColor%253D%25231D3557%253BfontStyle%253D1%2522%2520vertex%253D%25221%2522%2520parent%253D%25221%2522%253E%253CmxGeometry%2520x%253D%2522374.79%2522%2520y%253D%2522880%2522%2520width%253D%2522134.56%2522%2520height%253D%252240%2522%2520as%253D%2522geometry%2522%252F%253E%253C%252FmxCell%253E%253C%252Froot%253E%253C%252FmxGraphModel%253E%26lt%3B%2Fspan%26gt%3B%22%20style%3D%22rounded%3D1%3BwhiteSpace%3Dwrap%3Bhtml%3D1%3Bsketch%3D0%3BfontSize%3D20%3BfontColor%3D%231D3557%3BstrokeColor%3D%23457B9D%3BstrokeWidth%3D2%3BfillColor%3D%23E8F0FC%3B%22%20vertex%3D%221%22%20parent%3D%221%22%3E%3CmxGeometry%20x%3D%22-347.06%22%20y%3D%221020%22%20width%3D%22184.13%22%20height%3D%2280%22%20as%3D%22geometry%22%2F%3E%3C%2FmxCell%3E%3C%2Froot%3E%3C%2FmxGraphModel%3E&lt;/span&gt;" style="rounded=1;whiteSpace=wrap;html=1;sketch=0;fontSize=20;strokeColor=#d79b00;strokeWidth=2;fillColor=#ffe6cc;" parent="1" vertex="1">
          <mxGeometry x="-730" y="1169" width="145" height="80" as="geometry" />
        </mxCell>
        <mxCell id="85etgImM21U0zFLn9ePR-120" value="12개월 간 월별 방문자 수&lt;br&gt;/ajax/moy&lt;br&gt;[GET]" style="text;html=1;strokeColor=none;fillColor=none;align=center;verticalAlign=middle;whiteSpace=wrap;rounded=0;sketch=0;fontSize=12;fontColor=#1D3557;" parent="1" vertex="1">
          <mxGeometry x="-733.15" y="1194" width="153.15" height="30" as="geometry" />
        </mxCell>
        <mxCell id="85etgImM21U0zFLn9ePR-122" value="" style="endArrow=classic;html=1;rounded=1;sketch=0;fontSize=12;fontColor=#1D3557;strokeColor=#457B9D;strokeWidth=1;fillColor=#A8DADC;curved=0;exitX=0;exitY=0.5;exitDx=0;exitDy=0;entryX=0.5;entryY=1;entryDx=0;entryDy=0;" parent="1" source="85etgImM21U0zFLn9ePR-77" target="85etgImM21U0zFLn9ePR-118" edge="1">
          <mxGeometry width="50" height="50" relative="1" as="geometry">
            <mxPoint x="-510" y="1340" as="sourcePoint" />
            <mxPoint x="-460" y="1290" as="targetPoint" />
            <Array as="points">
              <mxPoint x="-808" y="1279" />
            </Array>
          </mxGeometry>
        </mxCell>
        <mxCell id="85etgImM21U0zFLn9ePR-123" value="" style="endArrow=classic;html=1;rounded=1;sketch=0;fontSize=12;fontColor=#1D3557;strokeColor=#457B9D;strokeWidth=1;fillColor=#A8DADC;curved=0;exitX=0;exitY=0.5;exitDx=0;exitDy=0;entryX=0.5;entryY=1;entryDx=0;entryDy=0;" parent="1" source="85etgImM21U0zFLn9ePR-77" target="85etgImM21U0zFLn9ePR-76" edge="1">
          <mxGeometry width="50" height="50" relative="1" as="geometry">
            <mxPoint x="-510" y="1340" as="sourcePoint" />
            <mxPoint x="-460" y="1290" as="targetPoint" />
            <Array as="points">
              <mxPoint x="-657" y="1279" />
            </Array>
          </mxGeometry>
        </mxCell>
        <mxCell id="85etgImM21U0zFLn9ePR-124" value="" style="endArrow=classic;html=1;rounded=1;sketch=0;fontSize=12;fontColor=#1D3557;strokeColor=#457B9D;strokeWidth=1;fillColor=#A8DADC;curved=0;exitX=0;exitY=0.5;exitDx=0;exitDy=0;entryX=0.5;entryY=1;entryDx=0;entryDy=0;" parent="1" source="85etgImM21U0zFLn9ePR-77" target="85etgImM21U0zFLn9ePR-116" edge="1">
          <mxGeometry width="50" height="50" relative="1" as="geometry">
            <mxPoint x="-510" y="1340" as="sourcePoint" />
            <mxPoint x="-460" y="1290" as="targetPoint" />
            <Array as="points">
              <mxPoint x="-508" y="1279" />
            </Array>
          </mxGeometry>
        </mxCell>
        <mxCell id="85etgImM21U0zFLn9ePR-125" value="" style="endArrow=classic;html=1;rounded=1;sketch=0;fontSize=12;fontColor=#1D3557;strokeColor=#457B9D;strokeWidth=1;fillColor=#A8DADC;curved=0;exitX=0.5;exitY=0;exitDx=0;exitDy=0;entryX=0;entryY=0.25;entryDx=0;entryDy=0;" parent="1" source="85etgImM21U0zFLn9ePR-118" target="85etgImM21U0zFLn9ePR-77" edge="1">
          <mxGeometry width="50" height="50" relative="1" as="geometry">
            <mxPoint x="-510" y="1340" as="sourcePoint" />
            <mxPoint x="-460" y="1290" as="targetPoint" />
            <Array as="points">
              <mxPoint x="-808" y="1140" />
              <mxPoint x="-400" y="1140" />
              <mxPoint x="-400" y="1259" />
            </Array>
          </mxGeometry>
        </mxCell>
        <mxCell id="85etgImM21U0zFLn9ePR-130" value="" style="endArrow=classic;html=1;rounded=1;sketch=0;fontSize=12;fontColor=#1D3557;strokeColor=#457B9D;strokeWidth=1;fillColor=#A8DADC;curved=0;exitX=0.5;exitY=0;exitDx=0;exitDy=0;entryX=0;entryY=0.25;entryDx=0;entryDy=0;" parent="1" source="85etgImM21U0zFLn9ePR-76" target="85etgImM21U0zFLn9ePR-77" edge="1">
          <mxGeometry width="50" height="50" relative="1" as="geometry">
            <mxPoint x="-510" y="1340" as="sourcePoint" />
            <mxPoint x="-460" y="1290" as="targetPoint" />
            <Array as="points">
              <mxPoint x="-657" y="1140" />
              <mxPoint x="-400" y="1140" />
              <mxPoint x="-400" y="1259" />
            </Array>
          </mxGeometry>
        </mxCell>
        <mxCell id="85etgImM21U0zFLn9ePR-131" value="" style="endArrow=classic;html=1;rounded=1;sketch=0;fontSize=12;fontColor=#1D3557;strokeColor=#457B9D;strokeWidth=1;fillColor=#A8DADC;curved=0;exitX=0.5;exitY=0;exitDx=0;exitDy=0;entryX=0;entryY=0.25;entryDx=0;entryDy=0;" parent="1" source="85etgImM21U0zFLn9ePR-116" target="85etgImM21U0zFLn9ePR-77" edge="1">
          <mxGeometry width="50" height="50" relative="1" as="geometry">
            <mxPoint x="-620" y="1270" as="sourcePoint" />
            <mxPoint x="-570" y="1220" as="targetPoint" />
            <Array as="points">
              <mxPoint x="-508" y="1140" />
              <mxPoint x="-400" y="1140" />
              <mxPoint x="-400" y="1259" />
            </Array>
          </mxGeometry>
        </mxCell>
        <mxCell id="85etgImM21U0zFLn9ePR-132" value="ChartVO" style="edgeLabel;html=1;align=center;verticalAlign=middle;resizable=0;points=[];fontSize=12;fontColor=#1D3557;" parent="85etgImM21U0zFLn9ePR-131" vertex="1" connectable="0">
          <mxGeometry x="0.0749" y="-1" relative="1" as="geometry">
            <mxPoint as="offset" />
          </mxGeometry>
        </mxCell>
        <mxCell id="COgYv8JIRqIL7-lJRIyB-3" value="" style="endArrow=classic;html=1;rounded=1;sketch=0;fontSize=12;fontColor=#1D3557;strokeColor=#457B9D;strokeWidth=1;fillColor=#A8DADC;curved=0;exitX=0.75;exitY=1;exitDx=0;exitDy=0;entryX=0.998;entryY=0.606;entryDx=0;entryDy=0;entryPerimeter=0;" parent="1" source="85etgImM21U0zFLn9ePR-57" target="85etgImM21U0zFLn9ePR-77" edge="1">
          <mxGeometry width="50" height="50" relative="1" as="geometry">
            <mxPoint x="-260" y="1300" as="sourcePoint" />
            <mxPoint x="-210" y="1250" as="targetPoint" />
            <Array as="points">
              <mxPoint x="-92" y="1287" />
            </Array>
          </mxGeometry>
        </mxCell>
        <mxCell id="85etgImM21U0zFLn9ePR-113" value="&lt;span style=&quot;color: rgba(0 , 0 , 0 , 0) ; font-family: monospace ; font-size: 0px&quot;&gt;%3CmxGraphModel%3E%3Croot%3E%3CmxCell%20id%3D%220%22%2F%3E%3CmxCell%20id%3D%221%22%20parent%3D%220%22%2F%3E%3CmxCell%20id%3D%222%22%20value%3D%22%26lt%3Bspan%20style%3D%26quot%3Bcolor%3A%20rgba(0%20%2C%200%20%2C%200%20%2C%200)%20%3B%20font-family%3A%20monospace%20%3B%20font-size%3A%200px%26quot%3B%26gt%3B%253CmxGraphModel%253E%253Croot%253E%253CmxCell%2520id%253D%25220%2522%252F%253E%253CmxCell%2520id%253D%25221%2522%2520parent%253D%25220%2522%252F%253E%253CmxCell%2520id%253D%25222%2522%2520value%253D%2522%2522%2520style%253D%2522rounded%253D1%253BwhiteSpace%253Dwrap%253Bhtml%253D1%253Bsketch%253D0%253BfontSize%253D20%253BfontColor%253D%25231D3557%253BstrokeColor%253D%2523457B9D%253BstrokeWidth%253D2%253BfillColor%253D%2523E8F0FC%253B%2522%2520vertex%253D%25221%2522%2520parent%253D%25221%2522%253E%253CmxGeometry%2520x%253D%2522370%2522%2520y%253D%2522860%2522%2520width%253D%2522144.13%2522%2520height%253D%252280%2522%2520as%253D%2522geometry%2522%252F%253E%253C%252FmxCell%253E%253CmxCell%2520id%253D%25223%2522%2520value%253D%2522%2526lt%253Bspan%2520style%253D%2526quot%253Bfont-size%253A%252013px%2526quot%253B%2526gt%253B%25EA%25B4%2580%25EB%25A6%25AC%25EC%259E%2590%2520%25EB%25A9%2594%25EC%259D%25B8%2520%25ED%258E%2598%25EC%259D%25B4%25EC%25A7%2580%2526lt%253Bbr%2526gt%253B%252Fadmin%252Fmain%2526lt%253Bbr%2526gt%253B%255BGET%255D%2526lt%253Bbr%2526gt%253B%2526lt%253B%252Fspan%2526gt%253B%2522%2520style%253D%2522text%253Bhtml%253D1%253BstrokeColor%253Dnone%253BfillColor%253Dnone%253Balign%253Dcenter%253BverticalAlign%253Dmiddle%253BwhiteSpace%253Dwrap%253Brounded%253D0%253Bsketch%253D0%253BfontSize%253D20%253BfontColor%253D%25231D3557%253BfontStyle%253D1%2522%2520vertex%253D%25221%2522%2520parent%253D%25221%2522%253E%253CmxGeometry%2520x%253D%2522374.79%2522%2520y%253D%2522880%2522%2520width%253D%2522134.56%2522%2520height%253D%252240%2522%2520as%253D%2522geometry%2522%252F%253E%253C%252FmxCell%253E%253C%252Froot%253E%253C%252FmxGraphModel%253E%26lt%3B%2Fspan%26gt%3B%22%20style%3D%22rounded%3D1%3BwhiteSpace%3Dwrap%3Bhtml%3D1%3Bsketch%3D0%3BfontSize%3D20%3BfontColor%3D%231D3557%3BstrokeColor%3D%23457B9D%3BstrokeWidth%3D2%3BfillColor%3D%23E8F0FC%3B%22%20vertex%3D%221%22%20parent%3D%221%22%3E%3CmxGeometry%20x%3D%22-347.06%22%20y%3D%221020%22%20width%3D%22184.13%22%20height%3D%2280%22%20as%3D%22geometry%22%2F%3E%3C%2FmxCell%3E%3C%2Froot%3E%3C%2FmxGraphModel%3E&lt;/span&gt;" style="rounded=1;whiteSpace=wrap;html=1;sketch=0;fontSize=20;fontColor=#1D3557;strokeColor=#457B9D;strokeWidth=2;fillColor=#E8F0FC;" parent="1" vertex="1">
          <mxGeometry x="-460" y="870" width="184.13" height="80" as="geometry" />
        </mxCell>
        <mxCell id="85etgImM21U0zFLn9ePR-114" value="&lt;span style=&quot;color: rgba(0 , 0 , 0 , 0) ; font-family: monospace ; font-size: 0px&quot;&gt;%3CmxGraphModel%3E%3Croot%3E%3CmxCell%20id%3D%220%22%2F%3E%3CmxCell%20id%3D%221%22%20parent%3D%220%22%2F%3E%3CmxCell%20id%3D%222%22%20value%3D%22%26lt%3Bspan%20style%3D%26quot%3Bcolor%3A%20rgba(0%20%2C%200%20%2C%200%20%2C%200)%20%3B%20font-family%3A%20monospace%20%3B%20font-size%3A%200px%26quot%3B%26gt%3B%253CmxGraphModel%253E%253Croot%253E%253CmxCell%2520id%253D%25220%2522%252F%253E%253CmxCell%2520id%253D%25221%2522%2520parent%253D%25220%2522%252F%253E%253CmxCell%2520id%253D%25222%2522%2520value%253D%2522%2522%2520style%253D%2522rounded%253D1%253BwhiteSpace%253Dwrap%253Bhtml%253D1%253Bsketch%253D0%253BfontSize%253D20%253BfontColor%253D%25231D3557%253BstrokeColor%253D%2523457B9D%253BstrokeWidth%253D2%253BfillColor%253D%2523E8F0FC%253B%2522%2520vertex%253D%25221%2522%2520parent%253D%25221%2522%253E%253CmxGeometry%2520x%253D%2522370%2522%2520y%253D%2522860%2522%2520width%253D%2522144.13%2522%2520height%253D%252280%2522%2520as%253D%2522geometry%2522%252F%253E%253C%252FmxCell%253E%253CmxCell%2520id%253D%25223%2522%2520value%253D%2522%2526lt%253Bspan%2520style%253D%2526quot%253Bfont-size%253A%252013px%2526quot%253B%2526gt%253B%25EA%25B4%2580%25EB%25A6%25AC%25EC%259E%2590%2520%25EB%25A9%2594%25EC%259D%25B8%2520%25ED%258E%2598%25EC%259D%25B4%25EC%25A7%2580%2526lt%253Bbr%2526gt%253B%252Fadmin%252Fmain%2526lt%253Bbr%2526gt%253B%255BGET%255D%2526lt%253Bbr%2526gt%253B%2526lt%253B%252Fspan%2526gt%253B%2522%2520style%253D%2522text%253Bhtml%253D1%253BstrokeColor%253Dnone%253BfillColor%253Dnone%253Balign%253Dcenter%253BverticalAlign%253Dmiddle%253BwhiteSpace%253Dwrap%253Brounded%253D0%253Bsketch%253D0%253BfontSize%253D20%253BfontColor%253D%25231D3557%253BfontStyle%253D1%2522%2520vertex%253D%25221%2522%2520parent%253D%25221%2522%253E%253CmxGeometry%2520x%253D%2522374.79%2522%2520y%253D%2522880%2522%2520width%253D%2522134.56%2522%2520height%253D%252240%2522%2520as%253D%2522geometry%2522%252F%253E%253C%252FmxCell%253E%253C%252Froot%253E%253C%252FmxGraphModel%253E%26lt%3B%2Fspan%26gt%3B%22%20style%3D%22rounded%3D1%3BwhiteSpace%3Dwrap%3Bhtml%3D1%3Bsketch%3D0%3BfontSize%3D20%3BfontColor%3D%231D3557%3BstrokeColor%3D%23457B9D%3BstrokeWidth%3D2%3BfillColor%3D%23E8F0FC%3B%22%20vertex%3D%221%22%20parent%3D%221%22%3E%3CmxGeometry%20x%3D%22-347.06%22%20y%3D%221020%22%20width%3D%22184.13%22%20height%3D%2280%22%20as%3D%22geometry%22%2F%3E%3C%2FmxCell%3E%3C%2Froot%3E%3C%2FmxGraphModel%3E&lt;/span&gt;" style="rounded=1;whiteSpace=wrap;html=1;sketch=0;fontSize=20;fontColor=#1D3557;strokeColor=#457B9D;strokeWidth=2;fillColor=#E8F0FC;" parent="1" vertex="1">
          <mxGeometry x="-460" y="860" width="184.13" height="80" as="geometry" />
        </mxCell>
        <mxCell id="85etgImM21U0zFLn9ePR-115" value="&lt;span style=&quot;color: rgba(0 , 0 , 0 , 0) ; font-family: monospace ; font-size: 0px&quot;&gt;%3CmxGraphModel%3E%3Croot%3E%3CmxCell%20id%3D%220%22%2F%3E%3CmxCell%20id%3D%221%22%20parent%3D%220%22%2F%3E%3CmxCell%20id%3D%222%22%20value%3D%22%26lt%3Bspan%20style%3D%26quot%3Bcolor%3A%20rgba(0%20%2C%200%20%2C%200%20%2C%200)%20%3B%20font-family%3A%20monospace%20%3B%20font-size%3A%200px%26quot%3B%26gt%3B%253CmxGraphModel%253E%253Croot%253E%253CmxCell%2520id%253D%25220%2522%252F%253E%253CmxCell%2520id%253D%25221%2522%2520parent%253D%25220%2522%252F%253E%253CmxCell%2520id%253D%25222%2522%2520value%253D%2522%2522%2520style%253D%2522rounded%253D1%253BwhiteSpace%253Dwrap%253Bhtml%253D1%253Bsketch%253D0%253BfontSize%253D20%253BfontColor%253D%25231D3557%253BstrokeColor%253D%2523457B9D%253BstrokeWidth%253D2%253BfillColor%253D%2523E8F0FC%253B%2522%2520vertex%253D%25221%2522%2520parent%253D%25221%2522%253E%253CmxGeometry%2520x%253D%2522370%2522%2520y%253D%2522860%2522%2520width%253D%2522144.13%2522%2520height%253D%252280%2522%2520as%253D%2522geometry%2522%252F%253E%253C%252FmxCell%253E%253CmxCell%2520id%253D%25223%2522%2520value%253D%2522%2526lt%253Bspan%2520style%253D%2526quot%253Bfont-size%253A%252013px%2526quot%253B%2526gt%253B%25EA%25B4%2580%25EB%25A6%25AC%25EC%259E%2590%2520%25EB%25A9%2594%25EC%259D%25B8%2520%25ED%258E%2598%25EC%259D%25B4%25EC%25A7%2580%2526lt%253Bbr%2526gt%253B%252Fadmin%252Fmain%2526lt%253Bbr%2526gt%253B%255BGET%255D%2526lt%253Bbr%2526gt%253B%2526lt%253B%252Fspan%2526gt%253B%2522%2520style%253D%2522text%253Bhtml%253D1%253BstrokeColor%253Dnone%253BfillColor%253Dnone%253Balign%253Dcenter%253BverticalAlign%253Dmiddle%253BwhiteSpace%253Dwrap%253Brounded%253D0%253Bsketch%253D0%253BfontSize%253D20%253BfontColor%253D%25231D3557%253BfontStyle%253D1%2522%2520vertex%253D%25221%2522%2520parent%253D%25221%2522%253E%253CmxGeometry%2520x%253D%2522374.79%2522%2520y%253D%2522880%2522%2520width%253D%2522134.56%2522%2520height%253D%252240%2522%2520as%253D%2522geometry%2522%252F%253E%253C%252FmxCell%253E%253C%252Froot%253E%253C%252FmxGraphModel%253E%26lt%3B%2Fspan%26gt%3B%22%20style%3D%22rounded%3D1%3BwhiteSpace%3Dwrap%3Bhtml%3D1%3Bsketch%3D0%3BfontSize%3D20%3BfontColor%3D%231D3557%3BstrokeColor%3D%23457B9D%3BstrokeWidth%3D2%3BfillColor%3D%23E8F0FC%3B%22%20vertex%3D%221%22%20parent%3D%221%22%3E%3CmxGeometry%20x%3D%22-347.06%22%20y%3D%221020%22%20width%3D%22184.13%22%20height%3D%2280%22%20as%3D%22geometry%22%2F%3E%3C%2FmxCell%3E%3C%2Froot%3E%3C%2FmxGraphModel%3E&lt;/span&gt;" style="rounded=1;whiteSpace=wrap;html=1;sketch=0;fontSize=20;fontColor=#1D3557;strokeColor=#457B9D;strokeWidth=2;fillColor=#E8F0FC;" parent="1" vertex="1">
          <mxGeometry x="-380" y="840" width="184.13" height="80" as="geometry" />
        </mxCell>
        <mxCell id="COgYv8JIRqIL7-lJRIyB-22" value="&lt;span style=&quot;color: rgba(0 , 0 , 0 , 0) ; font-family: monospace ; font-size: 0px&quot;&gt;%3CmxGraphModel%3E%3Croot%3E%3CmxCell%20id%3D%220%22%2F%3E%3CmxCell%20id%3D%221%22%20parent%3D%220%22%2F%3E%3CmxCell%20id%3D%222%22%20value%3D%22%26lt%3Bspan%20style%3D%26quot%3Bcolor%3A%20rgba(0%20%2C%200%20%2C%200%20%2C%200)%20%3B%20font-family%3A%20monospace%20%3B%20font-size%3A%200px%26quot%3B%26gt%3B%253CmxGraphModel%253E%253Croot%253E%253CmxCell%2520id%253D%25220%2522%252F%253E%253CmxCell%2520id%253D%25221%2522%2520parent%253D%25220%2522%252F%253E%253CmxCell%2520id%253D%25222%2522%2520value%253D%2522%2522%2520style%253D%2522rounded%253D1%253BwhiteSpace%253Dwrap%253Bhtml%253D1%253Bsketch%253D0%253BfontSize%253D20%253BfontColor%253D%25231D3557%253BstrokeColor%253D%2523457B9D%253BstrokeWidth%253D2%253BfillColor%253D%2523E8F0FC%253B%2522%2520vertex%253D%25221%2522%2520parent%253D%25221%2522%253E%253CmxGeometry%2520x%253D%2522370%2522%2520y%253D%2522860%2522%2520width%253D%2522144.13%2522%2520height%253D%252280%2522%2520as%253D%2522geometry%2522%252F%253E%253C%252FmxCell%253E%253CmxCell%2520id%253D%25223%2522%2520value%253D%2522%2526lt%253Bspan%2520style%253D%2526quot%253Bfont-size%253A%252013px%2526quot%253B%2526gt%253B%25EA%25B4%2580%25EB%25A6%25AC%25EC%259E%2590%2520%25EB%25A9%2594%25EC%259D%25B8%2520%25ED%258E%2598%25EC%259D%25B4%25EC%25A7%2580%2526lt%253Bbr%2526gt%253B%252Fadmin%252Fmain%2526lt%253Bbr%2526gt%253B%255BGET%255D%2526lt%253Bbr%2526gt%253B%2526lt%253B%252Fspan%2526gt%253B%2522%2520style%253D%2522text%253Bhtml%253D1%253BstrokeColor%253Dnone%253BfillColor%253Dnone%253Balign%253Dcenter%253BverticalAlign%253Dmiddle%253BwhiteSpace%253Dwrap%253Brounded%253D0%253Bsketch%253D0%253BfontSize%253D20%253BfontColor%253D%25231D3557%253BfontStyle%253D1%2522%2520vertex%253D%25221%2522%2520parent%253D%25221%2522%253E%253CmxGeometry%2520x%253D%2522374.79%2522%2520y%253D%2522880%2522%2520width%253D%2522134.56%2522%2520height%253D%252240%2522%2520as%253D%2522geometry%2522%252F%253E%253C%252FmxCell%253E%253C%252Froot%253E%253C%252FmxGraphModel%253E%26lt%3B%2Fspan%26gt%3B%22%20style%3D%22rounded%3D1%3BwhiteSpace%3Dwrap%3Bhtml%3D1%3Bsketch%3D0%3BfontSize%3D20%3BfontColor%3D%231D3557%3BstrokeColor%3D%23457B9D%3BstrokeWidth%3D2%3BfillColor%3D%23E8F0FC%3B%22%20vertex%3D%221%22%20parent%3D%221%22%3E%3CmxGeometry%20x%3D%22-347.06%22%20y%3D%221020%22%20width%3D%22184.13%22%20height%3D%2280%22%20as%3D%22geometry%22%2F%3E%3C%2FmxCell%3E%3C%2Froot%3E%3C%2FmxGraphModel%3E&lt;/span&gt;" style="rounded=1;whiteSpace=wrap;html=1;sketch=0;fontSize=20;strokeColor=#d79b00;strokeWidth=2;fillColor=#ffe6cc;" parent="1" vertex="1">
          <mxGeometry x="-1110" y="1440" width="145" height="80" as="geometry" />
        </mxCell>
        <mxCell id="COgYv8JIRqIL7-lJRIyB-23" value="&lt;span style=&quot;color: rgba(0 , 0 , 0 , 0) ; font-family: monospace ; font-size: 0px&quot;&gt;%3CmxGraphModel%3E%3Croot%3E%3CmxCell%20id%3D%220%22%2F%3E%3CmxCell%20id%3D%221%22%20parent%3D%220%22%2F%3E%3CmxCell%20id%3D%222%22%20value%3D%22%26lt%3Bspan%20style%3D%26quot%3Bcolor%3A%20rgba(0%20%2C%200%20%2C%200%20%2C%200)%20%3B%20font-family%3A%20monospace%20%3B%20font-size%3A%200px%26quot%3B%26gt%3B%253CmxGraphModel%253E%253Croot%253E%253CmxCell%2520id%253D%25220%2522%252F%253E%253CmxCell%2520id%253D%25221%2522%2520parent%253D%25220%2522%252F%253E%253CmxCell%2520id%253D%25222%2522%2520value%253D%2522%2522%2520style%253D%2522rounded%253D1%253BwhiteSpace%253Dwrap%253Bhtml%253D1%253Bsketch%253D0%253BfontSize%253D20%253BfontColor%253D%25231D3557%253BstrokeColor%253D%2523457B9D%253BstrokeWidth%253D2%253BfillColor%253D%2523E8F0FC%253B%2522%2520vertex%253D%25221%2522%2520parent%253D%25221%2522%253E%253CmxGeometry%2520x%253D%2522370%2522%2520y%253D%2522860%2522%2520width%253D%2522144.13%2522%2520height%253D%252280%2522%2520as%253D%2522geometry%2522%252F%253E%253C%252FmxCell%253E%253CmxCell%2520id%253D%25223%2522%2520value%253D%2522%2526lt%253Bspan%2520style%253D%2526quot%253Bfont-size%253A%252013px%2526quot%253B%2526gt%253B%25EA%25B4%2580%25EB%25A6%25AC%25EC%259E%2590%2520%25EB%25A9%2594%25EC%259D%25B8%2520%25ED%258E%2598%25EC%259D%25B4%25EC%25A7%2580%2526lt%253Bbr%2526gt%253B%252Fadmin%252Fmain%2526lt%253Bbr%2526gt%253B%255BGET%255D%2526lt%253Bbr%2526gt%253B%2526lt%253B%252Fspan%2526gt%253B%2522%2520style%253D%2522text%253Bhtml%253D1%253BstrokeColor%253Dnone%253BfillColor%253Dnone%253Balign%253Dcenter%253BverticalAlign%253Dmiddle%253BwhiteSpace%253Dwrap%253Brounded%253D0%253Bsketch%253D0%253BfontSize%253D20%253BfontColor%253D%25231D3557%253BfontStyle%253D1%2522%2520vertex%253D%25221%2522%2520parent%253D%25221%2522%253E%253CmxGeometry%2520x%253D%2522374.79%2522%2520y%253D%2522880%2522%2520width%253D%2522134.56%2522%2520height%253D%252240%2522%2520as%253D%2522geometry%2522%252F%253E%253C%252FmxCell%253E%253C%252Froot%253E%253C%252FmxGraphModel%253E%26lt%3B%2Fspan%26gt%3B%22%20style%3D%22rounded%3D1%3BwhiteSpace%3Dwrap%3Bhtml%3D1%3Bsketch%3D0%3BfontSize%3D20%3BfontColor%3D%231D3557%3BstrokeColor%3D%23457B9D%3BstrokeWidth%3D2%3BfillColor%3D%23E8F0FC%3B%22%20vertex%3D%221%22%20parent%3D%221%22%3E%3CmxGeometry%20x%3D%22-347.06%22%20y%3D%221020%22%20width%3D%22184.13%22%20height%3D%2280%22%20as%3D%22geometry%22%2F%3E%3C%2FmxCell%3E%3C%2Froot%3E%3C%2FmxGraphModel%3E&lt;/span&gt;" style="rounded=1;whiteSpace=wrap;html=1;sketch=0;fontSize=20;strokeColor=#d79b00;strokeWidth=2;fillColor=#ffe6cc;" parent="1" vertex="1">
          <mxGeometry x="-1080" y="1450" width="145" height="80" as="geometry" />
        </mxCell>
        <mxCell id="COgYv8JIRqIL7-lJRIyB-24" value="&lt;span style=&quot;color: rgba(0 , 0 , 0 , 0) ; font-family: monospace ; font-size: 0px&quot;&gt;%3CmxGraphModel%3E%3Croot%3E%3CmxCell%20id%3D%220%22%2F%3E%3CmxCell%20id%3D%221%22%20parent%3D%220%22%2F%3E%3CmxCell%20id%3D%222%22%20value%3D%22%26lt%3Bspan%20style%3D%26quot%3Bcolor%3A%20rgba(0%20%2C%200%20%2C%200%20%2C%200)%20%3B%20font-family%3A%20monospace%20%3B%20font-size%3A%200px%26quot%3B%26gt%3B%253CmxGraphModel%253E%253Croot%253E%253CmxCell%2520id%253D%25220%2522%252F%253E%253CmxCell%2520id%253D%25221%2522%2520parent%253D%25220%2522%252F%253E%253CmxCell%2520id%253D%25222%2522%2520value%253D%2522%2522%2520style%253D%2522rounded%253D1%253BwhiteSpace%253Dwrap%253Bhtml%253D1%253Bsketch%253D0%253BfontSize%253D20%253BfontColor%253D%25231D3557%253BstrokeColor%253D%2523457B9D%253BstrokeWidth%253D2%253BfillColor%253D%2523E8F0FC%253B%2522%2520vertex%253D%25221%2522%2520parent%253D%25221%2522%253E%253CmxGeometry%2520x%253D%2522370%2522%2520y%253D%2522860%2522%2520width%253D%2522144.13%2522%2520height%253D%252280%2522%2520as%253D%2522geometry%2522%252F%253E%253C%252FmxCell%253E%253CmxCell%2520id%253D%25223%2522%2520value%253D%2522%2526lt%253Bspan%2520style%253D%2526quot%253Bfont-size%253A%252013px%2526quot%253B%2526gt%253B%25EA%25B4%2580%25EB%25A6%25AC%25EC%259E%2590%2520%25EB%25A9%2594%25EC%259D%25B8%2520%25ED%258E%2598%25EC%259D%25B4%25EC%25A7%2580%2526lt%253Bbr%2526gt%253B%252Fadmin%252Fmain%2526lt%253Bbr%2526gt%253B%255BGET%255D%2526lt%253Bbr%2526gt%253B%2526lt%253B%252Fspan%2526gt%253B%2522%2520style%253D%2522text%253Bhtml%253D1%253BstrokeColor%253Dnone%253BfillColor%253Dnone%253Balign%253Dcenter%253BverticalAlign%253Dmiddle%253BwhiteSpace%253Dwrap%253Brounded%253D0%253Bsketch%253D0%253BfontSize%253D20%253BfontColor%253D%25231D3557%253BfontStyle%253D1%2522%2520vertex%253D%25221%2522%2520parent%253D%25221%2522%253E%253CmxGeometry%2520x%253D%2522374.79%2522%2520y%253D%2522880%2522%2520width%253D%2522134.56%2522%2520height%253D%252240%2522%2520as%253D%2522geometry%2522%252F%253E%253C%252FmxCell%253E%253C%252Froot%253E%253C%252FmxGraphModel%253E%26lt%3B%2Fspan%26gt%3B%22%20style%3D%22rounded%3D1%3BwhiteSpace%3Dwrap%3Bhtml%3D1%3Bsketch%3D0%3BfontSize%3D20%3BfontColor%3D%231D3557%3BstrokeColor%3D%23457B9D%3BstrokeWidth%3D2%3BfillColor%3D%23E8F0FC%3B%22%20vertex%3D%221%22%20parent%3D%221%22%3E%3CmxGeometry%20x%3D%22-347.06%22%20y%3D%221020%22%20width%3D%22184.13%22%20height%3D%2280%22%20as%3D%22geometry%22%2F%3E%3C%2FmxCell%3E%3C%2Froot%3E%3C%2FmxGraphModel%3E&lt;/span&gt;" style="rounded=1;whiteSpace=wrap;html=1;sketch=0;fontSize=20;strokeColor=#d79b00;strokeWidth=2;fillColor=#ffe6cc;" parent="1" vertex="1">
          <mxGeometry x="-1120" y="1420" width="145" height="80" as="geometry" />
        </mxCell>
        <mxCell id="COgYv8JIRqIL7-lJRIyB-25" value="&lt;span style=&quot;color: rgba(0 , 0 , 0 , 0) ; font-family: monospace ; font-size: 0px&quot;&gt;%3CmxGraphModel%3E%3Croot%3E%3CmxCell%20id%3D%220%22%2F%3E%3CmxCell%20id%3D%221%22%20parent%3D%220%22%2F%3E%3CmxCell%20id%3D%222%22%20value%3D%22%26lt%3Bspan%20style%3D%26quot%3Bcolor%3A%20rgba(0%20%2C%200%20%2C%200%20%2C%200)%20%3B%20font-family%3A%20monospace%20%3B%20font-size%3A%200px%26quot%3B%26gt%3B%253CmxGraphModel%253E%253Croot%253E%253CmxCell%2520id%253D%25220%2522%252F%253E%253CmxCell%2520id%253D%25221%2522%2520parent%253D%25220%2522%252F%253E%253CmxCell%2520id%253D%25222%2522%2520value%253D%2522%2522%2520style%253D%2522rounded%253D1%253BwhiteSpace%253Dwrap%253Bhtml%253D1%253Bsketch%253D0%253BfontSize%253D20%253BfontColor%253D%25231D3557%253BstrokeColor%253D%2523457B9D%253BstrokeWidth%253D2%253BfillColor%253D%2523E8F0FC%253B%2522%2520vertex%253D%25221%2522%2520parent%253D%25221%2522%253E%253CmxGeometry%2520x%253D%2522370%2522%2520y%253D%2522860%2522%2520width%253D%2522144.13%2522%2520height%253D%252280%2522%2520as%253D%2522geometry%2522%252F%253E%253C%252FmxCell%253E%253CmxCell%2520id%253D%25223%2522%2520value%253D%2522%2526lt%253Bspan%2520style%253D%2526quot%253Bfont-size%253A%252013px%2526quot%253B%2526gt%253B%25EA%25B4%2580%25EB%25A6%25AC%25EC%259E%2590%2520%25EB%25A9%2594%25EC%259D%25B8%2520%25ED%258E%2598%25EC%259D%25B4%25EC%25A7%2580%2526lt%253Bbr%2526gt%253B%252Fadmin%252Fmain%2526lt%253Bbr%2526gt%253B%255BGET%255D%2526lt%253Bbr%2526gt%253B%2526lt%253B%252Fspan%2526gt%253B%2522%2520style%253D%2522text%253Bhtml%253D1%253BstrokeColor%253Dnone%253BfillColor%253Dnone%253Balign%253Dcenter%253BverticalAlign%253Dmiddle%253BwhiteSpace%253Dwrap%253Brounded%253D0%253Bsketch%253D0%253BfontSize%253D20%253BfontColor%253D%25231D3557%253BfontStyle%253D1%2522%2520vertex%253D%25221%2522%2520parent%253D%25221%2522%253E%253CmxGeometry%2520x%253D%2522374.79%2522%2520y%253D%2522880%2522%2520width%253D%2522134.56%2522%2520height%253D%252240%2522%2520as%253D%2522geometry%2522%252F%253E%253C%252FmxCell%253E%253C%252Froot%253E%253C%252FmxGraphModel%253E%26lt%3B%2Fspan%26gt%3B%22%20style%3D%22rounded%3D1%3BwhiteSpace%3Dwrap%3Bhtml%3D1%3Bsketch%3D0%3BfontSize%3D20%3BfontColor%3D%231D3557%3BstrokeColor%3D%23457B9D%3BstrokeWidth%3D2%3BfillColor%3D%23E8F0FC%3B%22%20vertex%3D%221%22%20parent%3D%221%22%3E%3CmxGeometry%20x%3D%22-347.06%22%20y%3D%221020%22%20width%3D%22184.13%22%20height%3D%2280%22%20as%3D%22geometry%22%2F%3E%3C%2FmxCell%3E%3C%2Froot%3E%3C%2FmxGraphModel%3E&lt;/span&gt;" style="rounded=1;whiteSpace=wrap;html=1;sketch=0;fontSize=20;strokeColor=#d79b00;strokeWidth=2;fillColor=#ffe6cc;" parent="1" vertex="1">
          <mxGeometry x="-1100" y="1450" width="145" height="80" as="geometry" />
        </mxCell>
        <mxCell id="COgYv8JIRqIL7-lJRIyB-26" value="&lt;span style=&quot;color: rgba(0 , 0 , 0 , 0) ; font-family: monospace ; font-size: 0px&quot;&gt;%3CmxGraphModel%3E%3Croot%3E%3CmxCell%20id%3D%220%22%2F%3E%3CmxCell%20id%3D%221%22%20parent%3D%220%22%2F%3E%3CmxCell%20id%3D%222%22%20value%3D%22%26lt%3Bspan%20style%3D%26quot%3Bcolor%3A%20rgba(0%20%2C%200%20%2C%200%20%2C%200)%20%3B%20font-family%3A%20monospace%20%3B%20font-size%3A%200px%26quot%3B%26gt%3B%253CmxGraphModel%253E%253Croot%253E%253CmxCell%2520id%253D%25220%2522%252F%253E%253CmxCell%2520id%253D%25221%2522%2520parent%253D%25220%2522%252F%253E%253CmxCell%2520id%253D%25222%2522%2520value%253D%2522%2522%2520style%253D%2522rounded%253D1%253BwhiteSpace%253Dwrap%253Bhtml%253D1%253Bsketch%253D0%253BfontSize%253D20%253BfontColor%253D%25231D3557%253BstrokeColor%253D%2523457B9D%253BstrokeWidth%253D2%253BfillColor%253D%2523E8F0FC%253B%2522%2520vertex%253D%25221%2522%2520parent%253D%25221%2522%253E%253CmxGeometry%2520x%253D%2522370%2522%2520y%253D%2522860%2522%2520width%253D%2522144.13%2522%2520height%253D%252280%2522%2520as%253D%2522geometry%2522%252F%253E%253C%252FmxCell%253E%253CmxCell%2520id%253D%25223%2522%2520value%253D%2522%2526lt%253Bspan%2520style%253D%2526quot%253Bfont-size%253A%252013px%2526quot%253B%2526gt%253B%25EA%25B4%2580%25EB%25A6%25AC%25EC%259E%2590%2520%25EB%25A9%2594%25EC%259D%25B8%2520%25ED%258E%2598%25EC%259D%25B4%25EC%25A7%2580%2526lt%253Bbr%2526gt%253B%252Fadmin%252Fmain%2526lt%253Bbr%2526gt%253B%255BGET%255D%2526lt%253Bbr%2526gt%253B%2526lt%253B%252Fspan%2526gt%253B%2522%2520style%253D%2522text%253Bhtml%253D1%253BstrokeColor%253Dnone%253BfillColor%253Dnone%253Balign%253Dcenter%253BverticalAlign%253Dmiddle%253BwhiteSpace%253Dwrap%253Brounded%253D0%253Bsketch%253D0%253BfontSize%253D20%253BfontColor%253D%25231D3557%253BfontStyle%253D1%2522%2520vertex%253D%25221%2522%2520parent%253D%25221%2522%253E%253CmxGeometry%2520x%253D%2522374.79%2522%2520y%253D%2522880%2522%2520width%253D%2522134.56%2522%2520height%253D%252240%2522%2520as%253D%2522geometry%2522%252F%253E%253C%252FmxCell%253E%253C%252Froot%253E%253C%252FmxGraphModel%253E%26lt%3B%2Fspan%26gt%3B%22%20style%3D%22rounded%3D1%3BwhiteSpace%3Dwrap%3Bhtml%3D1%3Bsketch%3D0%3BfontSize%3D20%3BfontColor%3D%231D3557%3BstrokeColor%3D%23457B9D%3BstrokeWidth%3D2%3BfillColor%3D%23E8F0FC%3B%22%20vertex%3D%221%22%20parent%3D%221%22%3E%3CmxGeometry%20x%3D%22-347.06%22%20y%3D%221020%22%20width%3D%22184.13%22%20height%3D%2280%22%20as%3D%22geometry%22%2F%3E%3C%2FmxCell%3E%3C%2Froot%3E%3C%2FmxGraphModel%3E&lt;/span&gt;" style="rounded=1;whiteSpace=wrap;html=1;sketch=0;fontSize=20;strokeColor=#d79b00;strokeWidth=2;fillColor=#ffe6cc;" parent="1" vertex="1">
          <mxGeometry x="-1140" y="1468.78" width="145" height="80" as="geometry" />
        </mxCell>
        <mxCell id="COgYv8JIRqIL7-lJRIyB-27" value="&lt;span style=&quot;color: rgba(0 , 0 , 0 , 0) ; font-family: monospace ; font-size: 0px&quot;&gt;%3CmxGraphModel%3E%3Croot%3E%3CmxCell%20id%3D%220%22%2F%3E%3CmxCell%20id%3D%221%22%20parent%3D%220%22%2F%3E%3CmxCell%20id%3D%222%22%20value%3D%22%26lt%3Bspan%20style%3D%26quot%3Bcolor%3A%20rgba(0%20%2C%200%20%2C%200%20%2C%200)%20%3B%20font-family%3A%20monospace%20%3B%20font-size%3A%200px%26quot%3B%26gt%3B%253CmxGraphModel%253E%253Croot%253E%253CmxCell%2520id%253D%25220%2522%252F%253E%253CmxCell%2520id%253D%25221%2522%2520parent%253D%25220%2522%252F%253E%253CmxCell%2520id%253D%25222%2522%2520value%253D%2522%2522%2520style%253D%2522rounded%253D1%253BwhiteSpace%253Dwrap%253Bhtml%253D1%253Bsketch%253D0%253BfontSize%253D20%253BfontColor%253D%25231D3557%253BstrokeColor%253D%2523457B9D%253BstrokeWidth%253D2%253BfillColor%253D%2523E8F0FC%253B%2522%2520vertex%253D%25221%2522%2520parent%253D%25221%2522%253E%253CmxGeometry%2520x%253D%2522370%2522%2520y%253D%2522860%2522%2520width%253D%2522144.13%2522%2520height%253D%252280%2522%2520as%253D%2522geometry%2522%252F%253E%253C%252FmxCell%253E%253CmxCell%2520id%253D%25223%2522%2520value%253D%2522%2526lt%253Bspan%2520style%253D%2526quot%253Bfont-size%253A%252013px%2526quot%253B%2526gt%253B%25EA%25B4%2580%25EB%25A6%25AC%25EC%259E%2590%2520%25EB%25A9%2594%25EC%259D%25B8%2520%25ED%258E%2598%25EC%259D%25B4%25EC%25A7%2580%2526lt%253Bbr%2526gt%253B%252Fadmin%252Fmain%2526lt%253Bbr%2526gt%253B%255BGET%255D%2526lt%253Bbr%2526gt%253B%2526lt%253B%252Fspan%2526gt%253B%2522%2520style%253D%2522text%253Bhtml%253D1%253BstrokeColor%253Dnone%253BfillColor%253Dnone%253Balign%253Dcenter%253BverticalAlign%253Dmiddle%253BwhiteSpace%253Dwrap%253Brounded%253D0%253Bsketch%253D0%253BfontSize%253D20%253BfontColor%253D%25231D3557%253BfontStyle%253D1%2522%2520vertex%253D%25221%2522%2520parent%253D%25221%2522%253E%253CmxGeometry%2520x%253D%2522374.79%2522%2520y%253D%2522880%2522%2520width%253D%2522134.56%2522%2520height%253D%252240%2522%2520as%253D%2522geometry%2522%252F%253E%253C%252FmxCell%253E%253C%252Froot%253E%253C%252FmxGraphModel%253E%26lt%3B%2Fspan%26gt%3B%22%20style%3D%22rounded%3D1%3BwhiteSpace%3Dwrap%3Bhtml%3D1%3Bsketch%3D0%3BfontSize%3D20%3BfontColor%3D%231D3557%3BstrokeColor%3D%23457B9D%3BstrokeWidth%3D2%3BfillColor%3D%23E8F0FC%3B%22%20vertex%3D%221%22%20parent%3D%221%22%3E%3CmxGeometry%20x%3D%22-347.06%22%20y%3D%221020%22%20width%3D%22184.13%22%20height%3D%2280%22%20as%3D%22geometry%22%2F%3E%3C%2FmxCell%3E%3C%2Froot%3E%3C%2FmxGraphModel%3E&lt;/span&gt;" style="rounded=1;whiteSpace=wrap;html=1;sketch=0;fontSize=20;strokeColor=#d79b00;strokeWidth=2;fillColor=#ffe6cc;" parent="1" vertex="1">
          <mxGeometry x="-1110" y="1500" width="145" height="80" as="geometry" />
        </mxCell>
        <mxCell id="COgYv8JIRqIL7-lJRIyB-28" value="&lt;span style=&quot;color: rgba(0 , 0 , 0 , 0) ; font-family: monospace ; font-size: 0px&quot;&gt;%3CmxGraphModel%3E%3Croot%3E%3CmxCell%20id%3D%220%22%2F%3E%3CmxCell%20id%3D%221%22%20parent%3D%220%22%2F%3E%3CmxCell%20id%3D%222%22%20value%3D%22%26lt%3Bspan%20style%3D%26quot%3Bcolor%3A%20rgba(0%20%2C%200%20%2C%200%20%2C%200)%20%3B%20font-family%3A%20monospace%20%3B%20font-size%3A%200px%26quot%3B%26gt%3B%253CmxGraphModel%253E%253Croot%253E%253CmxCell%2520id%253D%25220%2522%252F%253E%253CmxCell%2520id%253D%25221%2522%2520parent%253D%25220%2522%252F%253E%253CmxCell%2520id%253D%25222%2522%2520value%253D%2522%2522%2520style%253D%2522rounded%253D1%253BwhiteSpace%253Dwrap%253Bhtml%253D1%253Bsketch%253D0%253BfontSize%253D20%253BfontColor%253D%25231D3557%253BstrokeColor%253D%2523457B9D%253BstrokeWidth%253D2%253BfillColor%253D%2523E8F0FC%253B%2522%2520vertex%253D%25221%2522%2520parent%253D%25221%2522%253E%253CmxGeometry%2520x%253D%2522370%2522%2520y%253D%2522860%2522%2520width%253D%2522144.13%2522%2520height%253D%252280%2522%2520as%253D%2522geometry%2522%252F%253E%253C%252FmxCell%253E%253CmxCell%2520id%253D%25223%2522%2520value%253D%2522%2526lt%253Bspan%2520style%253D%2526quot%253Bfont-size%253A%252013px%2526quot%253B%2526gt%253B%25EA%25B4%2580%25EB%25A6%25AC%25EC%259E%2590%2520%25EB%25A9%2594%25EC%259D%25B8%2520%25ED%258E%2598%25EC%259D%25B4%25EC%25A7%2580%2526lt%253Bbr%2526gt%253B%252Fadmin%252Fmain%2526lt%253Bbr%2526gt%253B%255BGET%255D%2526lt%253Bbr%2526gt%253B%2526lt%253B%252Fspan%2526gt%253B%2522%2520style%253D%2522text%253Bhtml%253D1%253BstrokeColor%253Dnone%253BfillColor%253Dnone%253Balign%253Dcenter%253BverticalAlign%253Dmiddle%253BwhiteSpace%253Dwrap%253Brounded%253D0%253Bsketch%253D0%253BfontSize%253D20%253BfontColor%253D%25231D3557%253BfontStyle%253D1%2522%2520vertex%253D%25221%2522%2520parent%253D%25221%2522%253E%253CmxGeometry%2520x%253D%2522374.79%2522%2520y%253D%2522880%2522%2520width%253D%2522134.56%2522%2520height%253D%252240%2522%2520as%253D%2522geometry%2522%252F%253E%253C%252FmxCell%253E%253C%252Froot%253E%253C%252FmxGraphModel%253E%26lt%3B%2Fspan%26gt%3B%22%20style%3D%22rounded%3D1%3BwhiteSpace%3Dwrap%3Bhtml%3D1%3Bsketch%3D0%3BfontSize%3D20%3BfontColor%3D%231D3557%3BstrokeColor%3D%23457B9D%3BstrokeWidth%3D2%3BfillColor%3D%23E8F0FC%3B%22%20vertex%3D%221%22%20parent%3D%221%22%3E%3CmxGeometry%20x%3D%22-347.06%22%20y%3D%221020%22%20width%3D%22184.13%22%20height%3D%2280%22%20as%3D%22geometry%22%2F%3E%3C%2FmxCell%3E%3C%2Froot%3E%3C%2FmxGraphModel%3E&lt;/span&gt;" style="rounded=1;whiteSpace=wrap;html=1;sketch=0;fontSize=20;strokeColor=#d79b00;strokeWidth=2;fillColor=#ffe6cc;" parent="1" vertex="1">
          <mxGeometry x="-1100" y="1450" width="145" height="80" as="geometry" />
        </mxCell>
        <mxCell id="COgYv8JIRqIL7-lJRIyB-29" value="&lt;span style=&quot;color: rgba(0 , 0 , 0 , 0) ; font-family: monospace ; font-size: 0px&quot;&gt;%3CmxGraphModel%3E%3Croot%3E%3CmxCell%20id%3D%220%22%2F%3E%3CmxCell%20id%3D%221%22%20parent%3D%220%22%2F%3E%3CmxCell%20id%3D%222%22%20value%3D%22%26lt%3Bspan%20style%3D%26quot%3Bcolor%3A%20rgba(0%20%2C%200%20%2C%200%20%2C%200)%20%3B%20font-family%3A%20monospace%20%3B%20font-size%3A%200px%26quot%3B%26gt%3B%253CmxGraphModel%253E%253Croot%253E%253CmxCell%2520id%253D%25220%2522%252F%253E%253CmxCell%2520id%253D%25221%2522%2520parent%253D%25220%2522%252F%253E%253CmxCell%2520id%253D%25222%2522%2520value%253D%2522%2522%2520style%253D%2522rounded%253D1%253BwhiteSpace%253Dwrap%253Bhtml%253D1%253Bsketch%253D0%253BfontSize%253D20%253BfontColor%253D%25231D3557%253BstrokeColor%253D%2523457B9D%253BstrokeWidth%253D2%253BfillColor%253D%2523E8F0FC%253B%2522%2520vertex%253D%25221%2522%2520parent%253D%25221%2522%253E%253CmxGeometry%2520x%253D%2522370%2522%2520y%253D%2522860%2522%2520width%253D%2522144.13%2522%2520height%253D%252280%2522%2520as%253D%2522geometry%2522%252F%253E%253C%252FmxCell%253E%253CmxCell%2520id%253D%25223%2522%2520value%253D%2522%2526lt%253Bspan%2520style%253D%2526quot%253Bfont-size%253A%252013px%2526quot%253B%2526gt%253B%25EA%25B4%2580%25EB%25A6%25AC%25EC%259E%2590%2520%25EB%25A9%2594%25EC%259D%25B8%2520%25ED%258E%2598%25EC%259D%25B4%25EC%25A7%2580%2526lt%253Bbr%2526gt%253B%252Fadmin%252Fmain%2526lt%253Bbr%2526gt%253B%255BGET%255D%2526lt%253Bbr%2526gt%253B%2526lt%253B%252Fspan%2526gt%253B%2522%2520style%253D%2522text%253Bhtml%253D1%253BstrokeColor%253Dnone%253BfillColor%253Dnone%253Balign%253Dcenter%253BverticalAlign%253Dmiddle%253BwhiteSpace%253Dwrap%253Brounded%253D0%253Bsketch%253D0%253BfontSize%253D20%253BfontColor%253D%25231D3557%253BfontStyle%253D1%2522%2520vertex%253D%25221%2522%2520parent%253D%25221%2522%253E%253CmxGeometry%2520x%253D%2522374.79%2522%2520y%253D%2522880%2522%2520width%253D%2522134.56%2522%2520height%253D%252240%2522%2520as%253D%2522geometry%2522%252F%253E%253C%252FmxCell%253E%253C%252Froot%253E%253C%252FmxGraphModel%253E%26lt%3B%2Fspan%26gt%3B%22%20style%3D%22rounded%3D1%3BwhiteSpace%3Dwrap%3Bhtml%3D1%3Bsketch%3D0%3BfontSize%3D20%3BfontColor%3D%231D3557%3BstrokeColor%3D%23457B9D%3BstrokeWidth%3D2%3BfillColor%3D%23E8F0FC%3B%22%20vertex%3D%221%22%20parent%3D%221%22%3E%3CmxGeometry%20x%3D%22-347.06%22%20y%3D%221020%22%20width%3D%22184.13%22%20height%3D%2280%22%20as%3D%22geometry%22%2F%3E%3C%2FmxCell%3E%3C%2Froot%3E%3C%2FmxGraphModel%3E&lt;/span&gt;" style="rounded=1;whiteSpace=wrap;html=1;sketch=0;fontSize=20;strokeColor=#d79b00;strokeWidth=2;fillColor=#ffe6cc;" parent="1" vertex="1">
          <mxGeometry x="-1090" y="1440" width="145" height="80" as="geometry" />
        </mxCell>
        <mxCell id="COgYv8JIRqIL7-lJRIyB-21" value="&lt;span style=&quot;color: rgba(0 , 0 , 0 , 0) ; font-family: monospace ; font-size: 0px&quot;&gt;%3CmxGraphModel%3E%3Croot%3E%3CmxCell%20id%3D%220%22%2F%3E%3CmxCell%20id%3D%221%22%20parent%3D%220%22%2F%3E%3CmxCell%20id%3D%222%22%20value%3D%22%26lt%3Bspan%20style%3D%26quot%3Bcolor%3A%20rgba(0%20%2C%200%20%2C%200%20%2C%200)%20%3B%20font-family%3A%20monospace%20%3B%20font-size%3A%200px%26quot%3B%26gt%3B%253CmxGraphModel%253E%253Croot%253E%253CmxCell%2520id%253D%25220%2522%252F%253E%253CmxCell%2520id%253D%25221%2522%2520parent%253D%25220%2522%252F%253E%253CmxCell%2520id%253D%25222%2522%2520value%253D%2522%2522%2520style%253D%2522rounded%253D1%253BwhiteSpace%253Dwrap%253Bhtml%253D1%253Bsketch%253D0%253BfontSize%253D20%253BfontColor%253D%25231D3557%253BstrokeColor%253D%2523457B9D%253BstrokeWidth%253D2%253BfillColor%253D%2523E8F0FC%253B%2522%2520vertex%253D%25221%2522%2520parent%253D%25221%2522%253E%253CmxGeometry%2520x%253D%2522370%2522%2520y%253D%2522860%2522%2520width%253D%2522144.13%2522%2520height%253D%252280%2522%2520as%253D%2522geometry%2522%252F%253E%253C%252FmxCell%253E%253CmxCell%2520id%253D%25223%2522%2520value%253D%2522%2526lt%253Bspan%2520style%253D%2526quot%253Bfont-size%253A%252013px%2526quot%253B%2526gt%253B%25EA%25B4%2580%25EB%25A6%25AC%25EC%259E%2590%2520%25EB%25A9%2594%25EC%259D%25B8%2520%25ED%258E%2598%25EC%259D%25B4%25EC%25A7%2580%2526lt%253Bbr%2526gt%253B%252Fadmin%252Fmain%2526lt%253Bbr%2526gt%253B%255BGET%255D%2526lt%253Bbr%2526gt%253B%2526lt%253B%252Fspan%2526gt%253B%2522%2520style%253D%2522text%253Bhtml%253D1%253BstrokeColor%253Dnone%253BfillColor%253Dnone%253Balign%253Dcenter%253BverticalAlign%253Dmiddle%253BwhiteSpace%253Dwrap%253Brounded%253D0%253Bsketch%253D0%253BfontSize%253D20%253BfontColor%253D%25231D3557%253BfontStyle%253D1%2522%2520vertex%253D%25221%2522%2520parent%253D%25221%2522%253E%253CmxGeometry%2520x%253D%2522374.79%2522%2520y%253D%2522880%2522%2520width%253D%2522134.56%2522%2520height%253D%252240%2522%2520as%253D%2522geometry%2522%252F%253E%253C%252FmxCell%253E%253C%252Froot%253E%253C%252FmxGraphModel%253E%26lt%3B%2Fspan%26gt%3B%22%20style%3D%22rounded%3D1%3BwhiteSpace%3Dwrap%3Bhtml%3D1%3Bsketch%3D0%3BfontSize%3D20%3BfontColor%3D%231D3557%3BstrokeColor%3D%23457B9D%3BstrokeWidth%3D2%3BfillColor%3D%23E8F0FC%3B%22%20vertex%3D%221%22%20parent%3D%221%22%3E%3CmxGeometry%20x%3D%22-347.06%22%20y%3D%221020%22%20width%3D%22184.13%22%20height%3D%2280%22%20as%3D%22geometry%22%2F%3E%3C%2FmxCell%3E%3C%2Froot%3E%3C%2FmxGraphModel%3E&lt;/span&gt;" style="rounded=1;whiteSpace=wrap;html=1;sketch=0;fontSize=20;strokeColor=#d79b00;strokeWidth=2;fillColor=#ffe6cc;" parent="1" vertex="1">
          <mxGeometry x="-750" y="1340" width="159.57" height="80" as="geometry" />
        </mxCell>
        <mxCell id="COgYv8JIRqIL7-lJRIyB-34" value="당월 일별 정기 기부 금액&lt;br&gt;ajax/regular_thisMonth_daily&lt;br&gt;[GET]" style="text;html=1;strokeColor=none;fillColor=none;align=center;verticalAlign=middle;whiteSpace=wrap;rounded=0;sketch=0;fontSize=12;fontColor=#1D3557;" parent="1" vertex="1">
          <mxGeometry x="-896" y="1350" width="127" height="60" as="geometry" />
        </mxCell>
        <mxCell id="COgYv8JIRqIL7-lJRIyB-33" value="당월 일별 일기 기부 금액&lt;br&gt;/ajax/donation_thisMonth_daily&lt;br&gt;[GET]" style="text;html=1;strokeColor=none;fillColor=none;align=center;verticalAlign=middle;whiteSpace=wrap;rounded=0;sketch=0;fontSize=12;fontColor=#1D3557;" parent="1" vertex="1">
          <mxGeometry x="-750" y="1355" width="160" height="50" as="geometry" />
        </mxCell>
        <mxCell id="QMKBq2frlUEZXYPOAQRA-7" value="" style="endArrow=classic;html=1;rounded=1;sketch=0;fontSize=15;fontColor=#1D3557;strokeColor=#457B9D;strokeWidth=1;fillColor=#A8DADC;curved=0;entryX=0.5;entryY=1;entryDx=0;entryDy=0;exitX=0;exitY=0.5;exitDx=0;exitDy=0;" parent="1" source="85etgImM21U0zFLn9ePR-133" target="COgYv8JIRqIL7-lJRIyB-21" edge="1">
          <mxGeometry width="50" height="50" relative="1" as="geometry">
            <mxPoint x="-459.8499999999999" y="1576.5900000000001" as="sourcePoint" />
            <mxPoint x="-459.9981282552085" y="1450" as="targetPoint" />
            <Array as="points">
              <mxPoint x="-670" y="1440" />
            </Array>
          </mxGeometry>
        </mxCell>
        <mxCell id="QMKBq2frlUEZXYPOAQRA-8" value="" style="endArrow=classic;html=1;rounded=1;sketch=0;fontSize=15;fontColor=#1D3557;strokeColor=#457B9D;strokeWidth=1;fillColor=#A8DADC;curved=0;entryX=0.5;entryY=1;entryDx=0;entryDy=0;exitX=0;exitY=0.5;exitDx=0;exitDy=0;" parent="1" source="85etgImM21U0zFLn9ePR-133" target="COgYv8JIRqIL7-lJRIyB-31" edge="1">
          <mxGeometry width="50" height="50" relative="1" as="geometry">
            <mxPoint x="-449.8499999999999" y="1586.5900000000001" as="sourcePoint" />
            <mxPoint x="-449.9981282552085" y="1460" as="targetPoint" />
            <Array as="points">
              <mxPoint x="-832" y="1440" />
            </Array>
          </mxGeometry>
        </mxCell>
        <mxCell id="QMKBq2frlUEZXYPOAQRA-9" value="" style="endArrow=classic;html=1;rounded=1;sketch=0;fontSize=15;fontColor=#1D3557;strokeColor=#457B9D;strokeWidth=1;fillColor=#A8DADC;curved=0;entryX=0;entryY=0.25;entryDx=0;entryDy=0;exitX=0.5;exitY=0;exitDx=0;exitDy=0;" parent="1" source="COgYv8JIRqIL7-lJRIyB-31" target="85etgImM21U0zFLn9ePR-133" edge="1">
          <mxGeometry width="50" height="50" relative="1" as="geometry">
            <mxPoint x="-439.8499999999999" y="1596.5900000000001" as="sourcePoint" />
            <mxPoint x="-439.9981282552085" y="1470" as="targetPoint" />
            <Array as="points">
              <mxPoint x="-832" y="1300" />
              <mxPoint x="-400" y="1300" />
              <mxPoint x="-400" y="1425" />
            </Array>
          </mxGeometry>
        </mxCell>
        <mxCell id="QMKBq2frlUEZXYPOAQRA-11" value="" style="endArrow=classic;html=1;rounded=1;sketch=0;fontSize=15;fontColor=#1D3557;strokeColor=#457B9D;strokeWidth=1;fillColor=#A8DADC;curved=0;entryX=0;entryY=0.25;entryDx=0;entryDy=0;exitX=0.5;exitY=0;exitDx=0;exitDy=0;" parent="1" source="COgYv8JIRqIL7-lJRIyB-21" target="85etgImM21U0zFLn9ePR-133" edge="1">
          <mxGeometry width="50" height="50" relative="1" as="geometry">
            <mxPoint x="-429.8499999999999" y="1606.5900000000001" as="sourcePoint" />
            <mxPoint x="-429.9981282552085" y="1480" as="targetPoint" />
            <Array as="points">
              <mxPoint x="-670" y="1300" />
              <mxPoint x="-400" y="1300" />
              <mxPoint x="-400" y="1425" />
            </Array>
          </mxGeometry>
        </mxCell>
        <mxCell id="QMKBq2frlUEZXYPOAQRA-13" value="ChartVO" style="edgeLabel;html=1;align=center;verticalAlign=middle;resizable=0;points=[];" parent="QMKBq2frlUEZXYPOAQRA-11" vertex="1" connectable="0">
          <mxGeometry x="0.3466" y="-1" relative="1" as="geometry">
            <mxPoint as="offset" />
          </mxGeometry>
        </mxCell>
        <mxCell id="QMKBq2frlUEZXYPOAQRA-34" value="&lt;span style=&quot;color: rgba(0 , 0 , 0 , 0) ; font-family: monospace ; font-size: 0px&quot;&gt;%3CmxGraphModel%3E%3Croot%3E%3CmxCell%20id%3D%220%22%2F%3E%3CmxCell%20id%3D%221%22%20parent%3D%220%22%2F%3E%3CmxCell%20id%3D%222%22%20value%3D%22%26lt%3Bspan%20style%3D%26quot%3Bcolor%3A%20rgba(0%20%2C%200%20%2C%200%20%2C%200)%20%3B%20font-family%3A%20monospace%20%3B%20font-size%3A%200px%26quot%3B%26gt%3B%253CmxGraphModel%253E%253Croot%253E%253CmxCell%2520id%253D%25220%2522%252F%253E%253CmxCell%2520id%253D%25221%2522%2520parent%253D%25220%2522%252F%253E%253CmxCell%2520id%253D%25222%2522%2520value%253D%2522%2522%2520style%253D%2522rounded%253D1%253BwhiteSpace%253Dwrap%253Bhtml%253D1%253Bsketch%253D0%253BfontSize%253D20%253BfontColor%253D%25231D3557%253BstrokeColor%253D%2523457B9D%253BstrokeWidth%253D2%253BfillColor%253D%2523E8F0FC%253B%2522%2520vertex%253D%25221%2522%2520parent%253D%25221%2522%253E%253CmxGeometry%2520x%253D%2522370%2522%2520y%253D%2522860%2522%2520width%253D%2522144.13%2522%2520height%253D%252280%2522%2520as%253D%2522geometry%2522%252F%253E%253C%252FmxCell%253E%253CmxCell%2520id%253D%25223%2522%2520value%253D%2522%2526lt%253Bspan%2520style%253D%2526quot%253Bfont-size%253A%252013px%2526quot%253B%2526gt%253B%25EA%25B4%2580%25EB%25A6%25AC%25EC%259E%2590%2520%25EB%25A9%2594%25EC%259D%25B8%2520%25ED%258E%2598%25EC%259D%25B4%25EC%25A7%2580%2526lt%253Bbr%2526gt%253B%252Fadmin%252Fmain%2526lt%253Bbr%2526gt%253B%255BGET%255D%2526lt%253Bbr%2526gt%253B%2526lt%253B%252Fspan%2526gt%253B%2522%2520style%253D%2522text%253Bhtml%253D1%253BstrokeColor%253Dnone%253BfillColor%253Dnone%253Balign%253Dcenter%253BverticalAlign%253Dmiddle%253BwhiteSpace%253Dwrap%253Brounded%253D0%253Bsketch%253D0%253BfontSize%253D20%253BfontColor%253D%25231D3557%253BfontStyle%253D1%2522%2520vertex%253D%25221%2522%2520parent%253D%25221%2522%253E%253CmxGeometry%2520x%253D%2522374.79%2522%2520y%253D%2522880%2522%2520width%253D%2522134.56%2522%2520height%253D%252240%2522%2520as%253D%2522geometry%2522%252F%253E%253C%252FmxCell%253E%253C%252Froot%253E%253C%252FmxGraphModel%253E%26lt%3B%2Fspan%26gt%3B%22%20style%3D%22rounded%3D1%3BwhiteSpace%3Dwrap%3Bhtml%3D1%3Bsketch%3D0%3BfontSize%3D20%3BfontColor%3D%231D3557%3BstrokeColor%3D%23457B9D%3BstrokeWidth%3D2%3BfillColor%3D%23E8F0FC%3B%22%20vertex%3D%221%22%20parent%3D%221%22%3E%3CmxGeometry%20x%3D%22-347.06%22%20y%3D%221020%22%20width%3D%22184.13%22%20height%3D%2280%22%20as%3D%22geometry%22%2F%3E%3C%2FmxCell%3E%3C%2Froot%3E%3C%2FmxGraphModel%3E&lt;/span&gt;" style="rounded=1;whiteSpace=wrap;html=1;sketch=0;fontSize=20;strokeColor=#d79b00;strokeWidth=2;fillColor=#ffe6cc;" parent="1" vertex="1">
          <mxGeometry x="-740" y="1500" width="160" height="80" as="geometry" />
        </mxCell>
        <mxCell id="QMKBq2frlUEZXYPOAQRA-35" value="&lt;span style=&quot;color: rgba(0 , 0 , 0 , 0) ; font-family: monospace ; font-size: 0px&quot;&gt;%3CmxGraphModel%3E%3Croot%3E%3CmxCell%20id%3D%220%22%2F%3E%3CmxCell%20id%3D%221%22%20parent%3D%220%22%2F%3E%3CmxCell%20id%3D%222%22%20value%3D%22%26lt%3Bspan%20style%3D%26quot%3Bcolor%3A%20rgba(0%20%2C%200%20%2C%200%20%2C%200)%20%3B%20font-family%3A%20monospace%20%3B%20font-size%3A%200px%26quot%3B%26gt%3B%253CmxGraphModel%253E%253Croot%253E%253CmxCell%2520id%253D%25220%2522%252F%253E%253CmxCell%2520id%253D%25221%2522%2520parent%253D%25220%2522%252F%253E%253CmxCell%2520id%253D%25222%2522%2520value%253D%2522%2522%2520style%253D%2522rounded%253D1%253BwhiteSpace%253Dwrap%253Bhtml%253D1%253Bsketch%253D0%253BfontSize%253D20%253BfontColor%253D%25231D3557%253BstrokeColor%253D%2523457B9D%253BstrokeWidth%253D2%253BfillColor%253D%2523E8F0FC%253B%2522%2520vertex%253D%25221%2522%2520parent%253D%25221%2522%253E%253CmxGeometry%2520x%253D%2522370%2522%2520y%253D%2522860%2522%2520width%253D%2522144.13%2522%2520height%253D%252280%2522%2520as%253D%2522geometry%2522%252F%253E%253C%252FmxCell%253E%253CmxCell%2520id%253D%25223%2522%2520value%253D%2522%2526lt%253Bspan%2520style%253D%2526quot%253Bfont-size%253A%252013px%2526quot%253B%2526gt%253B%25EA%25B4%2580%25EB%25A6%25AC%25EC%259E%2590%2520%25EB%25A9%2594%25EC%259D%25B8%2520%25ED%258E%2598%25EC%259D%25B4%25EC%25A7%2580%2526lt%253Bbr%2526gt%253B%252Fadmin%252Fmain%2526lt%253Bbr%2526gt%253B%255BGET%255D%2526lt%253Bbr%2526gt%253B%2526lt%253B%252Fspan%2526gt%253B%2522%2520style%253D%2522text%253Bhtml%253D1%253BstrokeColor%253Dnone%253BfillColor%253Dnone%253Balign%253Dcenter%253BverticalAlign%253Dmiddle%253BwhiteSpace%253Dwrap%253Brounded%253D0%253Bsketch%253D0%253BfontSize%253D20%253BfontColor%253D%25231D3557%253BfontStyle%253D1%2522%2520vertex%253D%25221%2522%2520parent%253D%25221%2522%253E%253CmxGeometry%2520x%253D%2522374.79%2522%2520y%253D%2522880%2522%2520width%253D%2522134.56%2522%2520height%253D%252240%2522%2520as%253D%2522geometry%2522%252F%253E%253C%252FmxCell%253E%253C%252Froot%253E%253C%252FmxGraphModel%253E%26lt%3B%2Fspan%26gt%3B%22%20style%3D%22rounded%3D1%3BwhiteSpace%3Dwrap%3Bhtml%3D1%3Bsketch%3D0%3BfontSize%3D20%3BfontColor%3D%231D3557%3BstrokeColor%3D%23457B9D%3BstrokeWidth%3D2%3BfillColor%3D%23E8F0FC%3B%22%20vertex%3D%221%22%20parent%3D%221%22%3E%3CmxGeometry%20x%3D%22-347.06%22%20y%3D%221020%22%20width%3D%22184.13%22%20height%3D%2280%22%20as%3D%22geometry%22%2F%3E%3C%2FmxCell%3E%3C%2Froot%3E%3C%2FmxGraphModel%3E&lt;/span&gt;" style="rounded=1;whiteSpace=wrap;html=1;sketch=0;fontSize=20;strokeColor=#d79b00;strokeWidth=2;fillColor=#ffe6cc;" parent="1" vertex="1">
          <mxGeometry x="-905" y="1500" width="160" height="80" as="geometry" />
        </mxCell>
        <mxCell id="QMKBq2frlUEZXYPOAQRA-40" value="6개월 간 월별 일시 기부 금액&lt;br&gt;/ajax/donation_monthly&lt;br&gt;[GET]" style="text;html=1;strokeColor=none;fillColor=none;align=center;verticalAlign=middle;whiteSpace=wrap;rounded=0;sketch=0;fontSize=12;fontColor=#1D3557;" parent="1" vertex="1">
          <mxGeometry x="-740" y="1510" width="160" height="60" as="geometry" />
        </mxCell>
        <mxCell id="QMKBq2frlUEZXYPOAQRA-41" value="12개월 간 월별 일시 기부 금액&lt;br&gt;/ajax/donation_moy&lt;br&gt;[GET]" style="text;html=1;strokeColor=none;fillColor=none;align=center;verticalAlign=middle;whiteSpace=wrap;rounded=0;sketch=0;fontSize=12;fontColor=#1D3557;" parent="1" vertex="1">
          <mxGeometry x="-910" y="1510" width="165" height="60" as="geometry" />
        </mxCell>
        <mxCell id="QMKBq2frlUEZXYPOAQRA-46" value="" style="endArrow=classic;html=1;rounded=1;sketch=0;fontSize=15;fontColor=#1D3557;strokeColor=#457B9D;strokeWidth=1;fillColor=#A8DADC;curved=0;entryX=0.5;entryY=1;entryDx=0;entryDy=0;exitX=0;exitY=0.5;exitDx=0;exitDy=0;" parent="1" source="QMKBq2frlUEZXYPOAQRA-14" target="QMKBq2frlUEZXYPOAQRA-34" edge="1">
          <mxGeometry width="50" height="50" relative="1" as="geometry">
            <mxPoint x="-402.8499999999999" y="1733.3000000000002" as="sourcePoint" />
            <mxPoint x="-402.9981282552085" y="1606.71" as="targetPoint" />
            <Array as="points">
              <mxPoint x="-660" y="1600" />
            </Array>
          </mxGeometry>
        </mxCell>
        <mxCell id="QMKBq2frlUEZXYPOAQRA-47" value="" style="endArrow=classic;html=1;rounded=1;sketch=0;fontSize=15;fontColor=#1D3557;strokeColor=#457B9D;strokeWidth=1;fillColor=#A8DADC;curved=0;entryX=0.5;entryY=1;entryDx=0;entryDy=0;exitX=0;exitY=0.5;exitDx=0;exitDy=0;" parent="1" source="QMKBq2frlUEZXYPOAQRA-14" target="QMKBq2frlUEZXYPOAQRA-35" edge="1">
          <mxGeometry width="50" height="50" relative="1" as="geometry">
            <mxPoint x="-392.8499999999999" y="1743.3000000000002" as="sourcePoint" />
            <mxPoint x="-392.9981282552085" y="1616.71" as="targetPoint" />
            <Array as="points">
              <mxPoint x="-825" y="1600" />
            </Array>
          </mxGeometry>
        </mxCell>
        <mxCell id="QMKBq2frlUEZXYPOAQRA-51" value="" style="endArrow=classic;html=1;rounded=1;sketch=0;fontSize=15;fontColor=#1D3557;strokeColor=#457B9D;strokeWidth=1;fillColor=#A8DADC;curved=0;entryX=0;entryY=0.25;entryDx=0;entryDy=0;exitX=0.5;exitY=0;exitDx=0;exitDy=0;" parent="1" source="QMKBq2frlUEZXYPOAQRA-34" target="QMKBq2frlUEZXYPOAQRA-14" edge="1">
          <mxGeometry width="50" height="50" relative="1" as="geometry">
            <mxPoint x="-352.8499999999999" y="1783.3000000000002" as="sourcePoint" />
            <mxPoint x="-352.9981282552085" y="1656.71" as="targetPoint" />
            <Array as="points">
              <mxPoint x="-660" y="1470" />
              <mxPoint x="-380" y="1470" />
              <mxPoint x="-380" y="1585" />
            </Array>
          </mxGeometry>
        </mxCell>
        <mxCell id="QMKBq2frlUEZXYPOAQRA-52" value="" style="endArrow=classic;html=1;rounded=1;sketch=0;fontSize=15;fontColor=#1D3557;strokeColor=#457B9D;strokeWidth=1;fillColor=#A8DADC;curved=0;entryX=0;entryY=0.25;entryDx=0;entryDy=0;exitX=0.5;exitY=0;exitDx=0;exitDy=0;" parent="1" source="QMKBq2frlUEZXYPOAQRA-35" target="QMKBq2frlUEZXYPOAQRA-14" edge="1">
          <mxGeometry width="50" height="50" relative="1" as="geometry">
            <mxPoint x="-342.8499999999999" y="1793.3000000000002" as="sourcePoint" />
            <mxPoint x="-342.9981282552085" y="1666.71" as="targetPoint" />
            <Array as="points">
              <mxPoint x="-825" y="1470" />
              <mxPoint x="-380" y="1470" />
              <mxPoint x="-380" y="1585" />
            </Array>
          </mxGeometry>
        </mxCell>
        <mxCell id="QMKBq2frlUEZXYPOAQRA-54" value="ChartVO" style="edgeLabel;html=1;align=center;verticalAlign=middle;resizable=0;points=[];" parent="QMKBq2frlUEZXYPOAQRA-52" vertex="1" connectable="0">
          <mxGeometry x="0.6217" relative="1" as="geometry">
            <mxPoint as="offset" />
          </mxGeometry>
        </mxCell>
      </root>
    </mxGraphModel>
  </diagram>
</mxfile>
